G04 #@! TF.GenerationSoftware,KiCad,Pcbnew,5.1.3-ffb9f22~84~ubuntu18.04.1*
G04 #@! TF.CreationDate,2019-08-04T06:46:36-07:00*
G04 #@! TF.ProjectId,body_part_power,626f6479-5f70-4617-9274-5f706f776572,rev?*
G04 #@! TF.SameCoordinates,Original*
G04 #@! TF.FileFunction,Soldermask,Bot*
G04 #@! TF.FilePolarity,Negative*
%FSLAX46Y46*%
G04 Gerber Fmt 4.6, Leading zero omitted, Abs format (unit mm)*
G04 Created by KiCad (PCBNEW 5.1.3-ffb9f22~84~ubuntu18.04.1) date 2019-08-04 06:46:36*
%MOMM*%
%LPD*%
G04 APERTURE LIST*
%ADD10C,0.100000*%
G04 APERTURE END LIST*
D10*
G36*
X153110443Y-103385519D02*
G01*
X153176627Y-103392037D01*
X153346466Y-103443557D01*
X153502991Y-103527222D01*
X153538729Y-103556552D01*
X153640186Y-103639814D01*
X153723448Y-103741271D01*
X153752778Y-103777009D01*
X153836443Y-103933534D01*
X153887963Y-104103373D01*
X153905359Y-104280000D01*
X153887963Y-104456627D01*
X153836443Y-104626466D01*
X153752778Y-104782991D01*
X153723448Y-104818729D01*
X153640186Y-104920186D01*
X153538729Y-105003448D01*
X153502991Y-105032778D01*
X153346466Y-105116443D01*
X153176627Y-105167963D01*
X153110442Y-105174482D01*
X153044260Y-105181000D01*
X152955740Y-105181000D01*
X152889558Y-105174482D01*
X152823373Y-105167963D01*
X152653534Y-105116443D01*
X152497009Y-105032778D01*
X152461271Y-105003448D01*
X152359814Y-104920186D01*
X152276552Y-104818729D01*
X152247222Y-104782991D01*
X152163557Y-104626466D01*
X152112037Y-104456627D01*
X152094641Y-104280000D01*
X152112037Y-104103373D01*
X152163557Y-103933534D01*
X152247222Y-103777009D01*
X152276552Y-103741271D01*
X152359814Y-103639814D01*
X152461271Y-103556552D01*
X152497009Y-103527222D01*
X152653534Y-103443557D01*
X152823373Y-103392037D01*
X152889557Y-103385519D01*
X152955740Y-103379000D01*
X153044260Y-103379000D01*
X153110443Y-103385519D01*
X153110443Y-103385519D01*
G37*
G36*
X153110442Y-100845518D02*
G01*
X153176627Y-100852037D01*
X153346466Y-100903557D01*
X153502991Y-100987222D01*
X153538729Y-101016552D01*
X153640186Y-101099814D01*
X153723448Y-101201271D01*
X153752778Y-101237009D01*
X153836443Y-101393534D01*
X153887963Y-101563373D01*
X153905359Y-101740000D01*
X153887963Y-101916627D01*
X153836443Y-102086466D01*
X153752778Y-102242991D01*
X153723448Y-102278729D01*
X153640186Y-102380186D01*
X153538729Y-102463448D01*
X153502991Y-102492778D01*
X153346466Y-102576443D01*
X153176627Y-102627963D01*
X153110443Y-102634481D01*
X153044260Y-102641000D01*
X152955740Y-102641000D01*
X152889557Y-102634481D01*
X152823373Y-102627963D01*
X152653534Y-102576443D01*
X152497009Y-102492778D01*
X152461271Y-102463448D01*
X152359814Y-102380186D01*
X152276552Y-102278729D01*
X152247222Y-102242991D01*
X152163557Y-102086466D01*
X152112037Y-101916627D01*
X152094641Y-101740000D01*
X152112037Y-101563373D01*
X152163557Y-101393534D01*
X152247222Y-101237009D01*
X152276552Y-101201271D01*
X152359814Y-101099814D01*
X152461271Y-101016552D01*
X152497009Y-100987222D01*
X152653534Y-100903557D01*
X152823373Y-100852037D01*
X152889557Y-100845519D01*
X152955740Y-100839000D01*
X153044260Y-100839000D01*
X153110442Y-100845518D01*
X153110442Y-100845518D01*
G37*
G36*
X153110442Y-98305518D02*
G01*
X153176627Y-98312037D01*
X153346466Y-98363557D01*
X153502991Y-98447222D01*
X153538729Y-98476552D01*
X153640186Y-98559814D01*
X153723448Y-98661271D01*
X153752778Y-98697009D01*
X153836443Y-98853534D01*
X153887963Y-99023373D01*
X153905359Y-99200000D01*
X153887963Y-99376627D01*
X153836443Y-99546466D01*
X153752778Y-99702991D01*
X153723448Y-99738729D01*
X153640186Y-99840186D01*
X153538729Y-99923448D01*
X153502991Y-99952778D01*
X153346466Y-100036443D01*
X153176627Y-100087963D01*
X153110442Y-100094482D01*
X153044260Y-100101000D01*
X152955740Y-100101000D01*
X152889558Y-100094482D01*
X152823373Y-100087963D01*
X152653534Y-100036443D01*
X152497009Y-99952778D01*
X152461271Y-99923448D01*
X152359814Y-99840186D01*
X152276552Y-99738729D01*
X152247222Y-99702991D01*
X152163557Y-99546466D01*
X152112037Y-99376627D01*
X152094641Y-99200000D01*
X152112037Y-99023373D01*
X152163557Y-98853534D01*
X152247222Y-98697009D01*
X152276552Y-98661271D01*
X152359814Y-98559814D01*
X152461271Y-98476552D01*
X152497009Y-98447222D01*
X152653534Y-98363557D01*
X152823373Y-98312037D01*
X152889558Y-98305518D01*
X152955740Y-98299000D01*
X153044260Y-98299000D01*
X153110442Y-98305518D01*
X153110442Y-98305518D01*
G37*
G36*
X153110443Y-95765519D02*
G01*
X153176627Y-95772037D01*
X153346466Y-95823557D01*
X153502991Y-95907222D01*
X153538729Y-95936552D01*
X153640186Y-96019814D01*
X153723448Y-96121271D01*
X153752778Y-96157009D01*
X153836443Y-96313534D01*
X153887963Y-96483373D01*
X153905359Y-96660000D01*
X153887963Y-96836627D01*
X153836443Y-97006466D01*
X153752778Y-97162991D01*
X153723448Y-97198729D01*
X153640186Y-97300186D01*
X153538729Y-97383448D01*
X153502991Y-97412778D01*
X153346466Y-97496443D01*
X153176627Y-97547963D01*
X153110443Y-97554481D01*
X153044260Y-97561000D01*
X152955740Y-97561000D01*
X152889557Y-97554481D01*
X152823373Y-97547963D01*
X152653534Y-97496443D01*
X152497009Y-97412778D01*
X152461271Y-97383448D01*
X152359814Y-97300186D01*
X152276552Y-97198729D01*
X152247222Y-97162991D01*
X152163557Y-97006466D01*
X152112037Y-96836627D01*
X152094641Y-96660000D01*
X152112037Y-96483373D01*
X152163557Y-96313534D01*
X152247222Y-96157009D01*
X152276552Y-96121271D01*
X152359814Y-96019814D01*
X152461271Y-95936552D01*
X152497009Y-95907222D01*
X152653534Y-95823557D01*
X152823373Y-95772037D01*
X152889557Y-95765519D01*
X152955740Y-95759000D01*
X153044260Y-95759000D01*
X153110443Y-95765519D01*
X153110443Y-95765519D01*
G37*
G36*
X153110443Y-93225519D02*
G01*
X153176627Y-93232037D01*
X153346466Y-93283557D01*
X153502991Y-93367222D01*
X153538729Y-93396552D01*
X153640186Y-93479814D01*
X153723448Y-93581271D01*
X153752778Y-93617009D01*
X153836443Y-93773534D01*
X153887963Y-93943373D01*
X153905359Y-94120000D01*
X153887963Y-94296627D01*
X153836443Y-94466466D01*
X153752778Y-94622991D01*
X153723448Y-94658729D01*
X153640186Y-94760186D01*
X153538729Y-94843448D01*
X153502991Y-94872778D01*
X153346466Y-94956443D01*
X153176627Y-95007963D01*
X153110443Y-95014481D01*
X153044260Y-95021000D01*
X152955740Y-95021000D01*
X152889557Y-95014481D01*
X152823373Y-95007963D01*
X152653534Y-94956443D01*
X152497009Y-94872778D01*
X152461271Y-94843448D01*
X152359814Y-94760186D01*
X152276552Y-94658729D01*
X152247222Y-94622991D01*
X152163557Y-94466466D01*
X152112037Y-94296627D01*
X152094641Y-94120000D01*
X152112037Y-93943373D01*
X152163557Y-93773534D01*
X152247222Y-93617009D01*
X152276552Y-93581271D01*
X152359814Y-93479814D01*
X152461271Y-93396552D01*
X152497009Y-93367222D01*
X152653534Y-93283557D01*
X152823373Y-93232037D01*
X152889558Y-93225518D01*
X152955740Y-93219000D01*
X153044260Y-93219000D01*
X153110443Y-93225519D01*
X153110443Y-93225519D01*
G37*
G36*
X153110443Y-90685519D02*
G01*
X153176627Y-90692037D01*
X153346466Y-90743557D01*
X153502991Y-90827222D01*
X153538729Y-90856552D01*
X153640186Y-90939814D01*
X153723448Y-91041271D01*
X153752778Y-91077009D01*
X153836443Y-91233534D01*
X153887963Y-91403373D01*
X153905359Y-91580000D01*
X153887963Y-91756627D01*
X153836443Y-91926466D01*
X153752778Y-92082991D01*
X153723448Y-92118729D01*
X153640186Y-92220186D01*
X153538729Y-92303448D01*
X153502991Y-92332778D01*
X153346466Y-92416443D01*
X153176627Y-92467963D01*
X153110442Y-92474482D01*
X153044260Y-92481000D01*
X152955740Y-92481000D01*
X152889557Y-92474481D01*
X152823373Y-92467963D01*
X152653534Y-92416443D01*
X152497009Y-92332778D01*
X152461271Y-92303448D01*
X152359814Y-92220186D01*
X152276552Y-92118729D01*
X152247222Y-92082991D01*
X152163557Y-91926466D01*
X152112037Y-91756627D01*
X152094641Y-91580000D01*
X152112037Y-91403373D01*
X152163557Y-91233534D01*
X152247222Y-91077009D01*
X152276552Y-91041271D01*
X152359814Y-90939814D01*
X152461271Y-90856552D01*
X152497009Y-90827222D01*
X152653534Y-90743557D01*
X152823373Y-90692037D01*
X152889557Y-90685519D01*
X152955740Y-90679000D01*
X153044260Y-90679000D01*
X153110443Y-90685519D01*
X153110443Y-90685519D01*
G37*
G36*
X153110442Y-88145518D02*
G01*
X153176627Y-88152037D01*
X153346466Y-88203557D01*
X153502991Y-88287222D01*
X153538729Y-88316552D01*
X153640186Y-88399814D01*
X153723448Y-88501271D01*
X153752778Y-88537009D01*
X153836443Y-88693534D01*
X153887963Y-88863373D01*
X153905359Y-89040000D01*
X153887963Y-89216627D01*
X153836443Y-89386466D01*
X153752778Y-89542991D01*
X153723448Y-89578729D01*
X153640186Y-89680186D01*
X153538729Y-89763448D01*
X153502991Y-89792778D01*
X153346466Y-89876443D01*
X153176627Y-89927963D01*
X153110442Y-89934482D01*
X153044260Y-89941000D01*
X152955740Y-89941000D01*
X152889558Y-89934482D01*
X152823373Y-89927963D01*
X152653534Y-89876443D01*
X152497009Y-89792778D01*
X152461271Y-89763448D01*
X152359814Y-89680186D01*
X152276552Y-89578729D01*
X152247222Y-89542991D01*
X152163557Y-89386466D01*
X152112037Y-89216627D01*
X152094641Y-89040000D01*
X152112037Y-88863373D01*
X152163557Y-88693534D01*
X152247222Y-88537009D01*
X152276552Y-88501271D01*
X152359814Y-88399814D01*
X152461271Y-88316552D01*
X152497009Y-88287222D01*
X152653534Y-88203557D01*
X152823373Y-88152037D01*
X152889558Y-88145518D01*
X152955740Y-88139000D01*
X153044260Y-88139000D01*
X153110442Y-88145518D01*
X153110442Y-88145518D01*
G37*
G36*
X153901000Y-87401000D02*
G01*
X152099000Y-87401000D01*
X152099000Y-85599000D01*
X153901000Y-85599000D01*
X153901000Y-87401000D01*
X153901000Y-87401000D01*
G37*
G36*
X153110443Y-80305519D02*
G01*
X153176627Y-80312037D01*
X153346466Y-80363557D01*
X153502991Y-80447222D01*
X153538729Y-80476552D01*
X153640186Y-80559814D01*
X153723448Y-80661271D01*
X153752778Y-80697009D01*
X153836443Y-80853534D01*
X153887963Y-81023373D01*
X153905359Y-81200000D01*
X153887963Y-81376627D01*
X153836443Y-81546466D01*
X153752778Y-81702991D01*
X153723448Y-81738729D01*
X153640186Y-81840186D01*
X153538729Y-81923448D01*
X153502991Y-81952778D01*
X153346466Y-82036443D01*
X153176627Y-82087963D01*
X153110442Y-82094482D01*
X153044260Y-82101000D01*
X152955740Y-82101000D01*
X152889558Y-82094482D01*
X152823373Y-82087963D01*
X152653534Y-82036443D01*
X152497009Y-81952778D01*
X152461271Y-81923448D01*
X152359814Y-81840186D01*
X152276552Y-81738729D01*
X152247222Y-81702991D01*
X152163557Y-81546466D01*
X152112037Y-81376627D01*
X152094641Y-81200000D01*
X152112037Y-81023373D01*
X152163557Y-80853534D01*
X152247222Y-80697009D01*
X152276552Y-80661271D01*
X152359814Y-80559814D01*
X152461271Y-80476552D01*
X152497009Y-80447222D01*
X152653534Y-80363557D01*
X152823373Y-80312037D01*
X152889557Y-80305519D01*
X152955740Y-80299000D01*
X153044260Y-80299000D01*
X153110443Y-80305519D01*
X153110443Y-80305519D01*
G37*
G36*
X153110442Y-77765518D02*
G01*
X153176627Y-77772037D01*
X153346466Y-77823557D01*
X153502991Y-77907222D01*
X153538729Y-77936552D01*
X153640186Y-78019814D01*
X153723448Y-78121271D01*
X153752778Y-78157009D01*
X153836443Y-78313534D01*
X153887963Y-78483373D01*
X153905359Y-78660000D01*
X153887963Y-78836627D01*
X153836443Y-79006466D01*
X153752778Y-79162991D01*
X153723448Y-79198729D01*
X153640186Y-79300186D01*
X153538729Y-79383448D01*
X153502991Y-79412778D01*
X153346466Y-79496443D01*
X153176627Y-79547963D01*
X153110442Y-79554482D01*
X153044260Y-79561000D01*
X152955740Y-79561000D01*
X152889558Y-79554482D01*
X152823373Y-79547963D01*
X152653534Y-79496443D01*
X152497009Y-79412778D01*
X152461271Y-79383448D01*
X152359814Y-79300186D01*
X152276552Y-79198729D01*
X152247222Y-79162991D01*
X152163557Y-79006466D01*
X152112037Y-78836627D01*
X152094641Y-78660000D01*
X152112037Y-78483373D01*
X152163557Y-78313534D01*
X152247222Y-78157009D01*
X152276552Y-78121271D01*
X152359814Y-78019814D01*
X152461271Y-77936552D01*
X152497009Y-77907222D01*
X152653534Y-77823557D01*
X152823373Y-77772037D01*
X152889558Y-77765518D01*
X152955740Y-77759000D01*
X153044260Y-77759000D01*
X153110442Y-77765518D01*
X153110442Y-77765518D01*
G37*
G36*
X153110442Y-75225518D02*
G01*
X153176627Y-75232037D01*
X153346466Y-75283557D01*
X153502991Y-75367222D01*
X153538729Y-75396552D01*
X153640186Y-75479814D01*
X153723448Y-75581271D01*
X153752778Y-75617009D01*
X153836443Y-75773534D01*
X153887963Y-75943373D01*
X153905359Y-76120000D01*
X153887963Y-76296627D01*
X153836443Y-76466466D01*
X153752778Y-76622991D01*
X153723448Y-76658729D01*
X153640186Y-76760186D01*
X153538729Y-76843448D01*
X153502991Y-76872778D01*
X153346466Y-76956443D01*
X153176627Y-77007963D01*
X153110443Y-77014481D01*
X153044260Y-77021000D01*
X152955740Y-77021000D01*
X152889557Y-77014481D01*
X152823373Y-77007963D01*
X152653534Y-76956443D01*
X152497009Y-76872778D01*
X152461271Y-76843448D01*
X152359814Y-76760186D01*
X152276552Y-76658729D01*
X152247222Y-76622991D01*
X152163557Y-76466466D01*
X152112037Y-76296627D01*
X152094641Y-76120000D01*
X152112037Y-75943373D01*
X152163557Y-75773534D01*
X152247222Y-75617009D01*
X152276552Y-75581271D01*
X152359814Y-75479814D01*
X152461271Y-75396552D01*
X152497009Y-75367222D01*
X152653534Y-75283557D01*
X152823373Y-75232037D01*
X152889558Y-75225518D01*
X152955740Y-75219000D01*
X153044260Y-75219000D01*
X153110442Y-75225518D01*
X153110442Y-75225518D01*
G37*
G36*
X153110443Y-72685519D02*
G01*
X153176627Y-72692037D01*
X153346466Y-72743557D01*
X153502991Y-72827222D01*
X153538729Y-72856552D01*
X153640186Y-72939814D01*
X153723448Y-73041271D01*
X153752778Y-73077009D01*
X153836443Y-73233534D01*
X153887963Y-73403373D01*
X153905359Y-73580000D01*
X153887963Y-73756627D01*
X153836443Y-73926466D01*
X153752778Y-74082991D01*
X153723448Y-74118729D01*
X153640186Y-74220186D01*
X153538729Y-74303448D01*
X153502991Y-74332778D01*
X153346466Y-74416443D01*
X153176627Y-74467963D01*
X153110442Y-74474482D01*
X153044260Y-74481000D01*
X152955740Y-74481000D01*
X152889558Y-74474482D01*
X152823373Y-74467963D01*
X152653534Y-74416443D01*
X152497009Y-74332778D01*
X152461271Y-74303448D01*
X152359814Y-74220186D01*
X152276552Y-74118729D01*
X152247222Y-74082991D01*
X152163557Y-73926466D01*
X152112037Y-73756627D01*
X152094641Y-73580000D01*
X152112037Y-73403373D01*
X152163557Y-73233534D01*
X152247222Y-73077009D01*
X152276552Y-73041271D01*
X152359814Y-72939814D01*
X152461271Y-72856552D01*
X152497009Y-72827222D01*
X152653534Y-72743557D01*
X152823373Y-72692037D01*
X152889557Y-72685519D01*
X152955740Y-72679000D01*
X153044260Y-72679000D01*
X153110443Y-72685519D01*
X153110443Y-72685519D01*
G37*
G36*
X153110443Y-70145519D02*
G01*
X153176627Y-70152037D01*
X153346466Y-70203557D01*
X153502991Y-70287222D01*
X153538729Y-70316552D01*
X153640186Y-70399814D01*
X153723448Y-70501271D01*
X153752778Y-70537009D01*
X153836443Y-70693534D01*
X153887963Y-70863373D01*
X153905359Y-71040000D01*
X153887963Y-71216627D01*
X153836443Y-71386466D01*
X153752778Y-71542991D01*
X153723448Y-71578729D01*
X153640186Y-71680186D01*
X153538729Y-71763448D01*
X153502991Y-71792778D01*
X153346466Y-71876443D01*
X153176627Y-71927963D01*
X153110443Y-71934481D01*
X153044260Y-71941000D01*
X152955740Y-71941000D01*
X152889557Y-71934481D01*
X152823373Y-71927963D01*
X152653534Y-71876443D01*
X152497009Y-71792778D01*
X152461271Y-71763448D01*
X152359814Y-71680186D01*
X152276552Y-71578729D01*
X152247222Y-71542991D01*
X152163557Y-71386466D01*
X152112037Y-71216627D01*
X152094641Y-71040000D01*
X152112037Y-70863373D01*
X152163557Y-70693534D01*
X152247222Y-70537009D01*
X152276552Y-70501271D01*
X152359814Y-70399814D01*
X152461271Y-70316552D01*
X152497009Y-70287222D01*
X152653534Y-70203557D01*
X152823373Y-70152037D01*
X152889557Y-70145519D01*
X152955740Y-70139000D01*
X153044260Y-70139000D01*
X153110443Y-70145519D01*
X153110443Y-70145519D01*
G37*
G36*
X153901000Y-69401000D02*
G01*
X152099000Y-69401000D01*
X152099000Y-67599000D01*
X153901000Y-67599000D01*
X153901000Y-69401000D01*
X153901000Y-69401000D01*
G37*
G36*
X153110442Y-62385518D02*
G01*
X153176627Y-62392037D01*
X153346466Y-62443557D01*
X153502991Y-62527222D01*
X153538729Y-62556552D01*
X153640186Y-62639814D01*
X153723448Y-62741271D01*
X153752778Y-62777009D01*
X153836443Y-62933534D01*
X153887963Y-63103373D01*
X153905359Y-63280000D01*
X153887963Y-63456627D01*
X153836443Y-63626466D01*
X153752778Y-63782991D01*
X153723448Y-63818729D01*
X153640186Y-63920186D01*
X153538729Y-64003448D01*
X153502991Y-64032778D01*
X153346466Y-64116443D01*
X153176627Y-64167963D01*
X153110442Y-64174482D01*
X153044260Y-64181000D01*
X152955740Y-64181000D01*
X152889558Y-64174482D01*
X152823373Y-64167963D01*
X152653534Y-64116443D01*
X152497009Y-64032778D01*
X152461271Y-64003448D01*
X152359814Y-63920186D01*
X152276552Y-63818729D01*
X152247222Y-63782991D01*
X152163557Y-63626466D01*
X152112037Y-63456627D01*
X152094641Y-63280000D01*
X152112037Y-63103373D01*
X152163557Y-62933534D01*
X152247222Y-62777009D01*
X152276552Y-62741271D01*
X152359814Y-62639814D01*
X152461271Y-62556552D01*
X152497009Y-62527222D01*
X152653534Y-62443557D01*
X152823373Y-62392037D01*
X152889558Y-62385518D01*
X152955740Y-62379000D01*
X153044260Y-62379000D01*
X153110442Y-62385518D01*
X153110442Y-62385518D01*
G37*
G36*
X153110443Y-59845519D02*
G01*
X153176627Y-59852037D01*
X153346466Y-59903557D01*
X153502991Y-59987222D01*
X153538729Y-60016552D01*
X153640186Y-60099814D01*
X153723448Y-60201271D01*
X153752778Y-60237009D01*
X153836443Y-60393534D01*
X153887963Y-60563373D01*
X153905359Y-60740000D01*
X153887963Y-60916627D01*
X153836443Y-61086466D01*
X153752778Y-61242991D01*
X153723448Y-61278729D01*
X153640186Y-61380186D01*
X153538729Y-61463448D01*
X153502991Y-61492778D01*
X153346466Y-61576443D01*
X153176627Y-61627963D01*
X153110442Y-61634482D01*
X153044260Y-61641000D01*
X152955740Y-61641000D01*
X152889558Y-61634482D01*
X152823373Y-61627963D01*
X152653534Y-61576443D01*
X152497009Y-61492778D01*
X152461271Y-61463448D01*
X152359814Y-61380186D01*
X152276552Y-61278729D01*
X152247222Y-61242991D01*
X152163557Y-61086466D01*
X152112037Y-60916627D01*
X152094641Y-60740000D01*
X152112037Y-60563373D01*
X152163557Y-60393534D01*
X152247222Y-60237009D01*
X152276552Y-60201271D01*
X152359814Y-60099814D01*
X152461271Y-60016552D01*
X152497009Y-59987222D01*
X152653534Y-59903557D01*
X152823373Y-59852037D01*
X152889557Y-59845519D01*
X152955740Y-59839000D01*
X153044260Y-59839000D01*
X153110443Y-59845519D01*
X153110443Y-59845519D01*
G37*
G36*
X153110442Y-57305518D02*
G01*
X153176627Y-57312037D01*
X153346466Y-57363557D01*
X153502991Y-57447222D01*
X153538729Y-57476552D01*
X153640186Y-57559814D01*
X153723448Y-57661271D01*
X153752778Y-57697009D01*
X153836443Y-57853534D01*
X153887963Y-58023373D01*
X153905359Y-58200000D01*
X153887963Y-58376627D01*
X153836443Y-58546466D01*
X153752778Y-58702991D01*
X153723448Y-58738729D01*
X153640186Y-58840186D01*
X153538729Y-58923448D01*
X153502991Y-58952778D01*
X153346466Y-59036443D01*
X153176627Y-59087963D01*
X153110443Y-59094481D01*
X153044260Y-59101000D01*
X152955740Y-59101000D01*
X152889557Y-59094481D01*
X152823373Y-59087963D01*
X152653534Y-59036443D01*
X152497009Y-58952778D01*
X152461271Y-58923448D01*
X152359814Y-58840186D01*
X152276552Y-58738729D01*
X152247222Y-58702991D01*
X152163557Y-58546466D01*
X152112037Y-58376627D01*
X152094641Y-58200000D01*
X152112037Y-58023373D01*
X152163557Y-57853534D01*
X152247222Y-57697009D01*
X152276552Y-57661271D01*
X152359814Y-57559814D01*
X152461271Y-57476552D01*
X152497009Y-57447222D01*
X152653534Y-57363557D01*
X152823373Y-57312037D01*
X152889558Y-57305518D01*
X152955740Y-57299000D01*
X153044260Y-57299000D01*
X153110442Y-57305518D01*
X153110442Y-57305518D01*
G37*
G36*
X153110442Y-54765518D02*
G01*
X153176627Y-54772037D01*
X153346466Y-54823557D01*
X153502991Y-54907222D01*
X153538729Y-54936552D01*
X153640186Y-55019814D01*
X153723448Y-55121271D01*
X153752778Y-55157009D01*
X153836443Y-55313534D01*
X153887963Y-55483373D01*
X153905359Y-55660000D01*
X153887963Y-55836627D01*
X153836443Y-56006466D01*
X153752778Y-56162991D01*
X153723448Y-56198729D01*
X153640186Y-56300186D01*
X153538729Y-56383448D01*
X153502991Y-56412778D01*
X153346466Y-56496443D01*
X153176627Y-56547963D01*
X153110442Y-56554482D01*
X153044260Y-56561000D01*
X152955740Y-56561000D01*
X152889558Y-56554482D01*
X152823373Y-56547963D01*
X152653534Y-56496443D01*
X152497009Y-56412778D01*
X152461271Y-56383448D01*
X152359814Y-56300186D01*
X152276552Y-56198729D01*
X152247222Y-56162991D01*
X152163557Y-56006466D01*
X152112037Y-55836627D01*
X152094641Y-55660000D01*
X152112037Y-55483373D01*
X152163557Y-55313534D01*
X152247222Y-55157009D01*
X152276552Y-55121271D01*
X152359814Y-55019814D01*
X152461271Y-54936552D01*
X152497009Y-54907222D01*
X152653534Y-54823557D01*
X152823373Y-54772037D01*
X152889558Y-54765518D01*
X152955740Y-54759000D01*
X153044260Y-54759000D01*
X153110442Y-54765518D01*
X153110442Y-54765518D01*
G37*
G36*
X153110442Y-52225518D02*
G01*
X153176627Y-52232037D01*
X153346466Y-52283557D01*
X153502991Y-52367222D01*
X153538729Y-52396552D01*
X153640186Y-52479814D01*
X153723448Y-52581271D01*
X153752778Y-52617009D01*
X153836443Y-52773534D01*
X153887963Y-52943373D01*
X153905359Y-53120000D01*
X153887963Y-53296627D01*
X153836443Y-53466466D01*
X153752778Y-53622991D01*
X153723448Y-53658729D01*
X153640186Y-53760186D01*
X153538729Y-53843448D01*
X153502991Y-53872778D01*
X153346466Y-53956443D01*
X153176627Y-54007963D01*
X153110442Y-54014482D01*
X153044260Y-54021000D01*
X152955740Y-54021000D01*
X152889558Y-54014482D01*
X152823373Y-54007963D01*
X152653534Y-53956443D01*
X152497009Y-53872778D01*
X152461271Y-53843448D01*
X152359814Y-53760186D01*
X152276552Y-53658729D01*
X152247222Y-53622991D01*
X152163557Y-53466466D01*
X152112037Y-53296627D01*
X152094641Y-53120000D01*
X152112037Y-52943373D01*
X152163557Y-52773534D01*
X152247222Y-52617009D01*
X152276552Y-52581271D01*
X152359814Y-52479814D01*
X152461271Y-52396552D01*
X152497009Y-52367222D01*
X152653534Y-52283557D01*
X152823373Y-52232037D01*
X152889558Y-52225518D01*
X152955740Y-52219000D01*
X153044260Y-52219000D01*
X153110442Y-52225518D01*
X153110442Y-52225518D01*
G37*
G36*
X153110442Y-49685518D02*
G01*
X153176627Y-49692037D01*
X153346466Y-49743557D01*
X153502991Y-49827222D01*
X153538729Y-49856552D01*
X153640186Y-49939814D01*
X153723448Y-50041271D01*
X153752778Y-50077009D01*
X153836443Y-50233534D01*
X153887963Y-50403373D01*
X153905359Y-50580000D01*
X153887963Y-50756627D01*
X153836443Y-50926466D01*
X153752778Y-51082991D01*
X153723448Y-51118729D01*
X153640186Y-51220186D01*
X153538729Y-51303448D01*
X153502991Y-51332778D01*
X153346466Y-51416443D01*
X153176627Y-51467963D01*
X153110443Y-51474481D01*
X153044260Y-51481000D01*
X152955740Y-51481000D01*
X152889557Y-51474481D01*
X152823373Y-51467963D01*
X152653534Y-51416443D01*
X152497009Y-51332778D01*
X152461271Y-51303448D01*
X152359814Y-51220186D01*
X152276552Y-51118729D01*
X152247222Y-51082991D01*
X152163557Y-50926466D01*
X152112037Y-50756627D01*
X152094641Y-50580000D01*
X152112037Y-50403373D01*
X152163557Y-50233534D01*
X152247222Y-50077009D01*
X152276552Y-50041271D01*
X152359814Y-49939814D01*
X152461271Y-49856552D01*
X152497009Y-49827222D01*
X152653534Y-49743557D01*
X152823373Y-49692037D01*
X152889558Y-49685518D01*
X152955740Y-49679000D01*
X153044260Y-49679000D01*
X153110442Y-49685518D01*
X153110442Y-49685518D01*
G37*
G36*
X153110443Y-47145519D02*
G01*
X153176627Y-47152037D01*
X153346466Y-47203557D01*
X153502991Y-47287222D01*
X153538729Y-47316552D01*
X153640186Y-47399814D01*
X153723448Y-47501271D01*
X153752778Y-47537009D01*
X153836443Y-47693534D01*
X153887963Y-47863373D01*
X153905359Y-48040000D01*
X153887963Y-48216627D01*
X153836443Y-48386466D01*
X153752778Y-48542991D01*
X153723448Y-48578729D01*
X153640186Y-48680186D01*
X153538729Y-48763448D01*
X153502991Y-48792778D01*
X153346466Y-48876443D01*
X153176627Y-48927963D01*
X153110442Y-48934482D01*
X153044260Y-48941000D01*
X152955740Y-48941000D01*
X152889558Y-48934482D01*
X152823373Y-48927963D01*
X152653534Y-48876443D01*
X152497009Y-48792778D01*
X152461271Y-48763448D01*
X152359814Y-48680186D01*
X152276552Y-48578729D01*
X152247222Y-48542991D01*
X152163557Y-48386466D01*
X152112037Y-48216627D01*
X152094641Y-48040000D01*
X152112037Y-47863373D01*
X152163557Y-47693534D01*
X152247222Y-47537009D01*
X152276552Y-47501271D01*
X152359814Y-47399814D01*
X152461271Y-47316552D01*
X152497009Y-47287222D01*
X152653534Y-47203557D01*
X152823373Y-47152037D01*
X152889557Y-47145519D01*
X152955740Y-47139000D01*
X153044260Y-47139000D01*
X153110443Y-47145519D01*
X153110443Y-47145519D01*
G37*
G36*
X153901000Y-46401000D02*
G01*
X152099000Y-46401000D01*
X152099000Y-44599000D01*
X153901000Y-44599000D01*
X153901000Y-46401000D01*
X153901000Y-46401000D01*
G37*
M02*
