G04 #@! TF.GenerationSoftware,KiCad,Pcbnew,5.1.3-ffb9f22~84~ubuntu18.04.1*
G04 #@! TF.CreationDate,2019-08-04T06:46:36-07:00*
G04 #@! TF.ProjectId,body_part_power,626f6479-5f70-4617-9274-5f706f776572,rev?*
G04 #@! TF.SameCoordinates,Original*
G04 #@! TF.FileFunction,Copper,L2,Bot*
G04 #@! TF.FilePolarity,Positive*
%FSLAX46Y46*%
G04 Gerber Fmt 4.6, Leading zero omitted, Abs format (unit mm)*
G04 Created by KiCad (PCBNEW 5.1.3-ffb9f22~84~ubuntu18.04.1) date 2019-08-04 06:46:36*
%MOMM*%
%LPD*%
G04 APERTURE LIST*
%ADD10R,1.700000X1.700000*%
%ADD11O,1.700000X1.700000*%
%ADD12C,0.800000*%
%ADD13C,0.250000*%
%ADD14C,0.254000*%
G04 APERTURE END LIST*
D10*
X153000000Y-86500000D03*
D11*
X153000000Y-89040000D03*
X153000000Y-91580000D03*
X153000000Y-94120000D03*
X153000000Y-96660000D03*
X153000000Y-99200000D03*
X153000000Y-101740000D03*
X153000000Y-104280000D03*
X153000000Y-63280000D03*
X153000000Y-60740000D03*
X153000000Y-58200000D03*
X153000000Y-55660000D03*
X153000000Y-53120000D03*
X153000000Y-50580000D03*
X153000000Y-48040000D03*
D10*
X153000000Y-45500000D03*
X153000000Y-68500000D03*
D11*
X153000000Y-71040000D03*
X153000000Y-73580000D03*
X153000000Y-76120000D03*
X153000000Y-78660000D03*
X153000000Y-81200000D03*
D12*
X184000000Y-87000000D03*
X209500000Y-61000000D03*
X208000000Y-64000000D03*
X210000000Y-64000000D03*
X212000000Y-64000000D03*
X205500000Y-61000000D03*
X207500000Y-61000000D03*
X211000000Y-64000000D03*
X211500000Y-63000000D03*
X209000000Y-62000000D03*
X208000000Y-62000000D03*
X209000000Y-64000000D03*
X207500000Y-63000000D03*
X211000000Y-62000000D03*
X207000000Y-62000000D03*
X210500000Y-61000000D03*
X210500000Y-63000000D03*
X210000000Y-62000000D03*
X208500000Y-63000000D03*
X207000000Y-64000000D03*
X206000000Y-62000000D03*
X206500000Y-63000000D03*
X209500000Y-63000000D03*
X206500000Y-61000000D03*
X208500000Y-61000000D03*
X209500000Y-73500000D03*
X208000000Y-76500000D03*
X210000000Y-76500000D03*
X212000000Y-76500000D03*
X205500000Y-73500000D03*
X207500000Y-73500000D03*
X211000000Y-76500000D03*
X211500000Y-75500000D03*
X209000000Y-74500000D03*
X208000000Y-74500000D03*
X209000000Y-76500000D03*
X207500000Y-75500000D03*
X211000000Y-74500000D03*
X207000000Y-74500000D03*
X210500000Y-73500000D03*
X210500000Y-75500000D03*
X210000000Y-74500000D03*
X208500000Y-75500000D03*
X207000000Y-76500000D03*
X206000000Y-74500000D03*
X206500000Y-75500000D03*
X209500000Y-75500000D03*
X206500000Y-73500000D03*
X208500000Y-73500000D03*
X209500000Y-86000000D03*
X208000000Y-89000000D03*
X210000000Y-89000000D03*
X212000000Y-89000000D03*
X205500000Y-86000000D03*
X207500000Y-86000000D03*
X211000000Y-89000000D03*
X211500000Y-88000000D03*
X209000000Y-87000000D03*
X208000000Y-87000000D03*
X209000000Y-89000000D03*
X207500000Y-88000000D03*
X211000000Y-87000000D03*
X207000000Y-87000000D03*
X210500000Y-86000000D03*
X210500000Y-88000000D03*
X210000000Y-87000000D03*
X208500000Y-88000000D03*
X207000000Y-89000000D03*
X206000000Y-87000000D03*
X206500000Y-88000000D03*
X209500000Y-88000000D03*
X206500000Y-86000000D03*
X208500000Y-86000000D03*
X210000000Y-99000000D03*
X208500000Y-102000000D03*
X210500000Y-102000000D03*
X212500000Y-102000000D03*
X206000000Y-99000000D03*
X208000000Y-99000000D03*
X211500000Y-102000000D03*
X212000000Y-101000000D03*
X209500000Y-100000000D03*
X208500000Y-100000000D03*
X209500000Y-102000000D03*
X208000000Y-101000000D03*
X211500000Y-100000000D03*
X207500000Y-100000000D03*
X211000000Y-99000000D03*
X211000000Y-101000000D03*
X210500000Y-100000000D03*
X209000000Y-101000000D03*
X207500000Y-102000000D03*
X206500000Y-100000000D03*
X207000000Y-101000000D03*
X210000000Y-101000000D03*
X207000000Y-99000000D03*
X209000000Y-99000000D03*
X161500000Y-72250000D03*
X160750000Y-76750000D03*
X162250000Y-81500000D03*
X161225000Y-75855571D03*
X164512653Y-72252347D03*
X162225000Y-74275000D03*
X176000000Y-39500000D03*
X198500000Y-40000000D03*
X177000000Y-39500000D03*
X178000000Y-39500000D03*
X179000000Y-39500000D03*
X180000000Y-39500000D03*
X181000000Y-39500000D03*
X182000000Y-39500000D03*
X183000000Y-39500000D03*
X184000000Y-39500000D03*
X185000000Y-39500000D03*
X186000000Y-39500000D03*
X187000000Y-39500000D03*
X176500000Y-40500000D03*
X177500000Y-40500000D03*
X178500000Y-40500000D03*
X179500000Y-40500000D03*
X180500000Y-40500000D03*
X181500000Y-40500000D03*
X182500000Y-40500000D03*
X183500000Y-40500000D03*
X184500000Y-40500000D03*
X185500000Y-40500000D03*
X186500000Y-40500000D03*
X187500000Y-40500000D03*
X205500000Y-48500000D03*
X206500000Y-48500000D03*
X207500000Y-48500000D03*
X208500000Y-48500000D03*
X209500000Y-48500000D03*
X210500000Y-48500000D03*
X206000000Y-49500000D03*
X207000000Y-49500000D03*
X208000000Y-49500000D03*
X209000000Y-49500000D03*
X210000000Y-49500000D03*
X211000000Y-49500000D03*
X211500000Y-50500000D03*
X210500000Y-50500000D03*
X209500000Y-50500000D03*
X208500000Y-50500000D03*
X207500000Y-50500000D03*
X206500000Y-50500000D03*
X207000000Y-51500000D03*
X208000000Y-51500000D03*
X209000000Y-51500000D03*
X210000000Y-51500000D03*
X211000000Y-51500000D03*
X212000000Y-51500000D03*
X195500003Y-101500000D03*
X195500006Y-89250000D03*
X195500000Y-76750000D03*
X195500000Y-64250000D03*
X195500000Y-52250000D03*
X195500006Y-43250000D03*
X167000000Y-74000000D03*
X160750000Y-71250000D03*
X166000000Y-84250000D03*
X175500000Y-86250000D03*
X178000000Y-97500000D03*
X177000000Y-98000000D03*
X178000000Y-98500000D03*
X177000000Y-99000000D03*
X178000000Y-99500000D03*
X177000000Y-100000000D03*
X178000000Y-100500000D03*
X177000000Y-101000000D03*
X178000000Y-101500000D03*
X177000000Y-102000000D03*
X178000000Y-102500000D03*
X177000000Y-103000000D03*
X178000000Y-103500000D03*
X177000000Y-104000000D03*
X179000000Y-98000000D03*
X179000000Y-99000000D03*
X179000000Y-100000000D03*
X179000000Y-101000000D03*
X179000000Y-102000000D03*
X179000000Y-103000000D03*
X179000000Y-104000000D03*
X180500000Y-75500000D03*
X181500000Y-75500000D03*
X182500000Y-75500000D03*
X183500000Y-75500000D03*
X184500000Y-75500000D03*
X185500000Y-75500000D03*
X180000000Y-76500000D03*
X181000000Y-76500000D03*
X182000000Y-76500000D03*
X183000000Y-76500000D03*
X184000000Y-76500000D03*
X185000000Y-76500000D03*
X185500000Y-77500000D03*
X184500000Y-77500000D03*
X183500000Y-77500000D03*
X182500000Y-77500000D03*
X181500000Y-77500000D03*
X180500000Y-77500000D03*
X180000000Y-71500000D03*
X181000000Y-71000000D03*
X182000000Y-70500000D03*
X182000000Y-71500000D03*
X181000000Y-72000000D03*
X180000000Y-72500000D03*
X179000000Y-72000000D03*
X179000000Y-73000000D03*
X180000000Y-73500000D03*
X181000000Y-73000000D03*
X182000000Y-72500000D03*
X179000000Y-62000000D03*
X179000000Y-63000000D03*
X179000000Y-64000000D03*
X179000000Y-65000000D03*
X180000000Y-65500000D03*
X180000000Y-64500000D03*
X180000000Y-63500000D03*
X180000000Y-62500000D03*
X180000000Y-61500000D03*
X181000000Y-62000000D03*
X181000000Y-63000000D03*
X181000000Y-64000000D03*
X181000000Y-65000000D03*
X179000000Y-66000000D03*
X181000000Y-61000000D03*
X180000000Y-49500000D03*
X179000000Y-53000000D03*
X179000000Y-51000000D03*
X180000000Y-51500000D03*
X180000000Y-50500000D03*
X180000000Y-48500000D03*
X180000000Y-52500000D03*
X178000000Y-50500000D03*
X179000000Y-49000000D03*
X178000000Y-52500000D03*
X178000000Y-51500000D03*
X178000000Y-49500000D03*
X179000000Y-50000000D03*
X179000000Y-52000000D03*
X178000000Y-53500000D03*
X182000000Y-87000000D03*
X183000000Y-87000000D03*
X185000000Y-87000000D03*
X186000000Y-87000000D03*
X181500000Y-88000000D03*
X182500000Y-88000000D03*
X183500000Y-88000000D03*
X184500000Y-88000000D03*
X185500000Y-88000000D03*
X186500000Y-88000000D03*
X181000000Y-87000000D03*
X174750000Y-84000000D03*
X178750000Y-58000000D03*
X178000000Y-81500000D03*
X180525306Y-84025306D03*
X179500000Y-81250000D03*
X181012653Y-82512653D03*
X178000000Y-75250000D03*
X178000000Y-70250000D03*
X176750000Y-75000000D03*
X176987347Y-71737347D03*
X175500000Y-75000000D03*
X176250000Y-73500000D03*
X170500000Y-85000000D03*
X169750000Y-76500000D03*
X170500000Y-75750000D03*
X172250000Y-84750000D03*
X204750000Y-38750000D03*
X196250000Y-100500000D03*
X196250000Y-88500000D03*
X203500000Y-38250000D03*
X196750000Y-76000000D03*
X202500000Y-37750000D03*
X201500000Y-37250000D03*
X196500000Y-63500000D03*
X200500000Y-36500000D03*
X196250000Y-51000000D03*
X193000000Y-36000000D03*
X192770615Y-39551734D03*
X193500000Y-101500000D03*
X193500000Y-89250000D03*
X193500000Y-76750000D03*
X193500000Y-64250000D03*
X193500000Y-52250000D03*
X193500000Y-43250000D03*
X194500000Y-101500000D03*
X194500003Y-89250000D03*
X194500000Y-76750000D03*
X194500000Y-64250000D03*
X194500000Y-52250000D03*
X194500003Y-43250000D03*
X191579401Y-43979998D03*
X189750000Y-53750000D03*
X189500000Y-65750000D03*
X189750000Y-78000000D03*
X189750000Y-90750000D03*
X189750000Y-103250000D03*
X166169142Y-82580858D03*
X169000000Y-73500000D03*
D13*
X161500000Y-72250000D02*
X161500000Y-74500000D01*
X161500000Y-74500000D02*
X160500000Y-75500000D01*
X160500000Y-76500000D02*
X160500000Y-75500000D01*
X160750000Y-76750000D02*
X160500000Y-76500000D01*
X164512653Y-72567918D02*
X164512653Y-72252347D01*
X162490285Y-74540285D02*
X162540285Y-74540285D01*
X162225000Y-74275000D02*
X162490285Y-74540285D01*
X161225000Y-75855571D02*
X162540285Y-74540285D01*
X162540285Y-74540285D02*
X164512653Y-72567918D01*
X195500006Y-52249994D02*
X195500000Y-52250000D01*
X195500006Y-43250000D02*
X195500006Y-52249994D01*
X195500000Y-52250000D02*
X195500000Y-64250000D01*
X195500000Y-64250000D02*
X195500000Y-76750000D01*
X195500000Y-89249994D02*
X195500006Y-89250000D01*
X195500000Y-76750000D02*
X195500000Y-89249994D01*
X195500006Y-101499997D02*
X195500003Y-101500000D01*
X195500006Y-89250000D02*
X195500006Y-101499997D01*
X153000000Y-89840998D02*
X157250000Y-94090998D01*
X153000000Y-89040000D02*
X153000000Y-89840998D01*
X157250000Y-94090998D02*
X157250000Y-108500000D01*
X157250000Y-108500000D02*
X158750000Y-110000000D01*
X158750000Y-110000000D02*
X192250000Y-110000000D01*
X195500003Y-106749997D02*
X195500003Y-101500000D01*
X192250000Y-110000000D02*
X195500003Y-106749997D01*
X167000000Y-73434315D02*
X167000000Y-74000000D01*
X164815685Y-71250000D02*
X167000000Y-73434315D01*
X160750000Y-71250000D02*
X164815685Y-71250000D01*
X166000000Y-84250000D02*
X168000000Y-86250000D01*
X168000000Y-86250000D02*
X175500000Y-86250000D01*
X174750000Y-84000000D02*
X174750000Y-62000000D01*
X174750000Y-62000000D02*
X178750000Y-58000000D01*
X180500000Y-84000000D02*
X180525306Y-84025306D01*
X178000000Y-81500000D02*
X180500000Y-84000000D01*
X179500000Y-81250000D02*
X180887653Y-82637653D01*
X180887653Y-82637653D02*
X181012653Y-82512653D01*
X178000000Y-75250000D02*
X178000000Y-70250000D01*
X177149999Y-71899999D02*
X176987347Y-71737347D01*
X176750000Y-75000000D02*
X177149999Y-74600001D01*
X177149999Y-74600001D02*
X177149999Y-71899999D01*
X175500000Y-75000000D02*
X175500000Y-74250000D01*
X175500000Y-74250000D02*
X176250000Y-73500000D01*
X170500000Y-85000000D02*
X169750000Y-84250000D01*
X169750000Y-84250000D02*
X169750000Y-76500000D01*
X170500000Y-75750000D02*
X170500000Y-83000000D01*
X170500000Y-83000000D02*
X172250000Y-84750000D01*
X204200010Y-92549990D02*
X196250000Y-100500000D01*
X204750000Y-38750000D02*
X204750000Y-92000000D01*
X204750000Y-92000000D02*
X204200010Y-92549990D01*
X203750000Y-81000000D02*
X196250000Y-88500000D01*
X203750000Y-39065685D02*
X203750000Y-81000000D01*
X203500000Y-38815685D02*
X203750000Y-39065685D01*
X203500000Y-38250000D02*
X203500000Y-38815685D01*
X202500000Y-70250000D02*
X196750000Y-76000000D01*
X202500000Y-37750000D02*
X202500000Y-39250000D01*
X202500000Y-38500000D02*
X202500000Y-39250000D01*
X202500000Y-39250000D02*
X202500000Y-70250000D01*
X201500000Y-37250000D02*
X201500000Y-58500000D01*
X201500000Y-58500000D02*
X196500000Y-63500000D01*
X200500000Y-36500000D02*
X200500000Y-47000000D01*
X200500000Y-47000000D02*
X196500000Y-51000000D01*
X196500000Y-51000000D02*
X196250000Y-51000000D01*
X193000000Y-36000000D02*
X193000000Y-39322349D01*
X193000000Y-39322349D02*
X192770615Y-39551734D01*
X193500000Y-43250000D02*
X193500000Y-52250000D01*
X193500000Y-52250000D02*
X193500000Y-64250000D01*
X193500000Y-64250000D02*
X193500000Y-76750000D01*
X193500000Y-76750000D02*
X193500000Y-89250000D01*
X193500000Y-89250000D02*
X193500000Y-101500000D01*
X157790000Y-43250000D02*
X153000000Y-48040000D01*
X193500000Y-43250000D02*
X157790000Y-43250000D01*
X194500003Y-52249997D02*
X194500000Y-52250000D01*
X194500003Y-43250000D02*
X194500003Y-52249997D01*
X194500000Y-52250000D02*
X194500000Y-64250000D01*
X194500000Y-64250000D02*
X194500000Y-76750000D01*
X194500000Y-89249997D02*
X194500003Y-89250000D01*
X194500000Y-76750000D02*
X194500000Y-89249997D01*
X194500003Y-101499997D02*
X194500000Y-101500000D01*
X194500003Y-89250000D02*
X194500003Y-101499997D01*
X157075001Y-42524999D02*
X154100000Y-45500000D01*
X154100000Y-45500000D02*
X153000000Y-45500000D01*
X194340687Y-42524999D02*
X157075001Y-42524999D01*
X194500003Y-42684315D02*
X194340687Y-42524999D01*
X194500003Y-43250000D02*
X194500003Y-42684315D01*
X154100000Y-68500000D02*
X153000000Y-68500000D01*
X160000050Y-105818000D02*
X160000050Y-74400050D01*
X181877199Y-107213571D02*
X161395621Y-107213571D01*
X161395621Y-107213571D02*
X160000050Y-105818000D01*
X191579401Y-43979998D02*
X191013716Y-43979998D01*
X160000050Y-74400050D02*
X154100000Y-68500000D01*
X182000000Y-107090770D02*
X181877199Y-107213571D01*
X191013716Y-43979998D02*
X187599980Y-47393734D01*
X187599980Y-47393734D02*
X187599980Y-101400020D01*
X187599980Y-101400020D02*
X182000000Y-107000000D01*
X182000000Y-107000000D02*
X182000000Y-107090770D01*
X159550040Y-77590040D02*
X159550040Y-106004400D01*
X153000000Y-71040000D02*
X159550040Y-77590040D01*
X159550040Y-106004400D02*
X161245600Y-107699960D01*
X161245600Y-107699960D02*
X181913630Y-107699960D01*
X181950009Y-107663581D02*
X182063599Y-107663581D01*
X181913630Y-107699960D02*
X181950009Y-107663581D01*
X188049990Y-55450010D02*
X189750000Y-53750000D01*
X182063599Y-107663581D02*
X188049990Y-101677190D01*
X188049990Y-101677190D02*
X188049990Y-55450010D01*
X189500000Y-65750000D02*
X188500000Y-66750000D01*
X188500000Y-101863590D02*
X182250000Y-108113590D01*
X188500000Y-66750000D02*
X188500000Y-101863590D01*
X182136410Y-108113590D02*
X182100030Y-108149970D01*
X182250000Y-108113590D02*
X182136410Y-108113590D01*
X182100030Y-108149970D02*
X161059200Y-108149970D01*
X153849999Y-74429999D02*
X153000000Y-73580000D01*
X159100030Y-79680030D02*
X153849999Y-74429999D01*
X159100030Y-106190800D02*
X159100030Y-79680030D01*
X161059200Y-108149970D02*
X159100030Y-106190800D01*
X189024999Y-78725001D02*
X189024999Y-101975001D01*
X189750000Y-78000000D02*
X189024999Y-78725001D01*
X185000000Y-106000000D02*
X185000000Y-106290588D01*
X189024999Y-101975001D02*
X185000000Y-106000000D01*
X185000000Y-106290588D02*
X182690608Y-108599980D01*
X182690608Y-108599980D02*
X160872800Y-108599980D01*
X160872800Y-108599980D02*
X158650020Y-106377200D01*
X158650020Y-81770020D02*
X153000000Y-76120000D01*
X158650020Y-106377200D02*
X158650020Y-81770020D01*
X189750000Y-102176998D02*
X182877008Y-109049990D01*
X189750000Y-90750000D02*
X189750000Y-102176998D01*
X182877008Y-109049990D02*
X160686400Y-109049990D01*
X158200010Y-83860010D02*
X153849999Y-79509999D01*
X153849999Y-79509999D02*
X153000000Y-78660000D01*
X158200010Y-106563600D02*
X158200010Y-83860010D01*
X160686400Y-109049990D02*
X158200010Y-106563600D01*
X153000000Y-82402081D02*
X157750000Y-87152081D01*
X153000000Y-81200000D02*
X153000000Y-82402081D01*
X157750000Y-106750000D02*
X160500000Y-109500000D01*
X157750000Y-87152081D02*
X157750000Y-106750000D01*
X160500000Y-109500000D02*
X183500000Y-109500000D01*
X183500000Y-109500000D02*
X189750000Y-103250000D01*
X166169142Y-82580858D02*
X169000000Y-79750000D01*
X169000000Y-79750000D02*
X169000000Y-73500000D01*
D14*
G36*
X192355741Y-35655636D02*
G01*
X192300938Y-35787942D01*
X192273000Y-35928397D01*
X192273000Y-36071603D01*
X192300938Y-36212058D01*
X192355741Y-36344364D01*
X192435302Y-36463436D01*
X192536564Y-36564698D01*
X192548000Y-36572339D01*
X192548001Y-38857045D01*
X192426251Y-38907475D01*
X192307179Y-38987036D01*
X192205917Y-39088298D01*
X192126356Y-39207370D01*
X192071553Y-39339676D01*
X192043615Y-39480131D01*
X192043615Y-39623337D01*
X192071553Y-39763792D01*
X192126356Y-39896098D01*
X192205917Y-40015170D01*
X192307179Y-40116432D01*
X192426251Y-40195993D01*
X192558557Y-40250796D01*
X192699012Y-40278734D01*
X192842218Y-40278734D01*
X192982673Y-40250796D01*
X193114979Y-40195993D01*
X193234051Y-40116432D01*
X193335313Y-40015170D01*
X193414874Y-39896098D01*
X193469677Y-39763792D01*
X193497615Y-39623337D01*
X193497615Y-39480131D01*
X193469677Y-39339676D01*
X193452000Y-39297000D01*
X193452000Y-36572339D01*
X193463436Y-36564698D01*
X193564698Y-36463436D01*
X193644259Y-36344364D01*
X193699062Y-36212058D01*
X193727000Y-36071603D01*
X193727000Y-35928397D01*
X193699062Y-35787942D01*
X193644259Y-35655636D01*
X193625125Y-35627000D01*
X212873000Y-35627000D01*
X212873000Y-110873000D01*
X190627000Y-110873000D01*
X190627000Y-110452000D01*
X192227795Y-110452000D01*
X192250000Y-110454187D01*
X192272205Y-110452000D01*
X192338607Y-110445460D01*
X192423810Y-110419614D01*
X192502333Y-110377643D01*
X192571159Y-110321159D01*
X192585323Y-110303900D01*
X195803915Y-107085310D01*
X195821162Y-107071156D01*
X195877646Y-107002330D01*
X195919617Y-106923807D01*
X195945463Y-106838604D01*
X195945463Y-106838603D01*
X195954190Y-106749998D01*
X195952003Y-106727793D01*
X195952003Y-102072339D01*
X195963439Y-102064698D01*
X196064701Y-101963436D01*
X196144262Y-101844364D01*
X196199065Y-101712058D01*
X196227003Y-101571603D01*
X196227003Y-101428397D01*
X196199065Y-101287942D01*
X196173411Y-101226008D01*
X196178397Y-101227000D01*
X196321603Y-101227000D01*
X196462058Y-101199062D01*
X196594364Y-101144259D01*
X196713436Y-101064698D01*
X196814698Y-100963436D01*
X196894259Y-100844364D01*
X196949062Y-100712058D01*
X196977000Y-100571603D01*
X196977000Y-100428397D01*
X196974317Y-100414906D01*
X204535323Y-92853901D01*
X204535327Y-92853896D01*
X205053910Y-92335315D01*
X205071159Y-92321159D01*
X205127643Y-92252333D01*
X205169614Y-92173810D01*
X205195460Y-92088607D01*
X205204187Y-92000001D01*
X205202000Y-91977796D01*
X205202000Y-39322339D01*
X205213436Y-39314698D01*
X205314698Y-39213436D01*
X205394259Y-39094364D01*
X205449062Y-38962058D01*
X205477000Y-38821603D01*
X205477000Y-38678397D01*
X205449062Y-38537942D01*
X205394259Y-38405636D01*
X205314698Y-38286564D01*
X205213436Y-38185302D01*
X205094364Y-38105741D01*
X204962058Y-38050938D01*
X204821603Y-38023000D01*
X204678397Y-38023000D01*
X204537942Y-38050938D01*
X204405636Y-38105741D01*
X204286564Y-38185302D01*
X204227000Y-38244866D01*
X204227000Y-38178397D01*
X204199062Y-38037942D01*
X204144259Y-37905636D01*
X204064698Y-37786564D01*
X203963436Y-37685302D01*
X203844364Y-37605741D01*
X203712058Y-37550938D01*
X203571603Y-37523000D01*
X203428397Y-37523000D01*
X203287942Y-37550938D01*
X203208216Y-37583962D01*
X203199062Y-37537942D01*
X203144259Y-37405636D01*
X203064698Y-37286564D01*
X202963436Y-37185302D01*
X202844364Y-37105741D01*
X202712058Y-37050938D01*
X202571603Y-37023000D01*
X202428397Y-37023000D01*
X202287942Y-37050938D01*
X202208216Y-37083962D01*
X202199062Y-37037942D01*
X202144259Y-36905636D01*
X202064698Y-36786564D01*
X201963436Y-36685302D01*
X201844364Y-36605741D01*
X201712058Y-36550938D01*
X201571603Y-36523000D01*
X201428397Y-36523000D01*
X201287942Y-36550938D01*
X201226008Y-36576592D01*
X201227000Y-36571603D01*
X201227000Y-36428397D01*
X201199062Y-36287942D01*
X201144259Y-36155636D01*
X201064698Y-36036564D01*
X200963436Y-35935302D01*
X200844364Y-35855741D01*
X200712058Y-35800938D01*
X200571603Y-35773000D01*
X200428397Y-35773000D01*
X200287942Y-35800938D01*
X200155636Y-35855741D01*
X200036564Y-35935302D01*
X199935302Y-36036564D01*
X199855741Y-36155636D01*
X199800938Y-36287942D01*
X199773000Y-36428397D01*
X199773000Y-36571603D01*
X199800938Y-36712058D01*
X199855741Y-36844364D01*
X199935302Y-36963436D01*
X200036564Y-37064698D01*
X200048000Y-37072339D01*
X200048001Y-46812774D01*
X196531199Y-50329577D01*
X196462058Y-50300938D01*
X196321603Y-50273000D01*
X196178397Y-50273000D01*
X196037942Y-50300938D01*
X195952006Y-50336534D01*
X195952006Y-43822339D01*
X195963442Y-43814698D01*
X196064704Y-43713436D01*
X196144265Y-43594364D01*
X196199068Y-43462058D01*
X196227006Y-43321603D01*
X196227006Y-43178397D01*
X196199068Y-43037942D01*
X196144265Y-42905636D01*
X196064704Y-42786564D01*
X195963442Y-42685302D01*
X195844370Y-42605741D01*
X195712064Y-42550938D01*
X195571609Y-42523000D01*
X195428403Y-42523000D01*
X195287948Y-42550938D01*
X195155642Y-42605741D01*
X195036570Y-42685302D01*
X195000005Y-42721868D01*
X194963439Y-42685302D01*
X194953643Y-42678756D01*
X194945463Y-42595707D01*
X194931882Y-42550938D01*
X194919617Y-42510505D01*
X194877646Y-42431982D01*
X194821162Y-42363156D01*
X194803903Y-42348992D01*
X194676010Y-42221099D01*
X194661846Y-42203840D01*
X194593020Y-42147356D01*
X194514497Y-42105385D01*
X194429294Y-42079539D01*
X194362892Y-42072999D01*
X194340687Y-42070812D01*
X194318482Y-42072999D01*
X190627000Y-42072999D01*
X190627000Y-42000000D01*
X190624560Y-41975224D01*
X190617333Y-41951399D01*
X190605597Y-41929443D01*
X190589803Y-41910197D01*
X190570557Y-41894403D01*
X190548601Y-41882667D01*
X190524776Y-41875440D01*
X190500000Y-41873000D01*
X174500000Y-41873000D01*
X174475224Y-41875440D01*
X174451399Y-41882667D01*
X174429443Y-41894403D01*
X174410197Y-41910197D01*
X174394403Y-41929443D01*
X174382667Y-41951399D01*
X174375440Y-41975224D01*
X174373000Y-42000000D01*
X174373000Y-42072999D01*
X157097206Y-42072999D01*
X157075001Y-42070812D01*
X156986393Y-42079539D01*
X156901191Y-42105385D01*
X156822668Y-42147356D01*
X156753842Y-42203840D01*
X156739682Y-42221094D01*
X154178582Y-44782195D01*
X154178582Y-44650000D01*
X154172268Y-44585897D01*
X154153570Y-44524257D01*
X154123206Y-44467450D01*
X154082343Y-44417657D01*
X154032550Y-44376794D01*
X153975743Y-44346430D01*
X153914103Y-44327732D01*
X153850000Y-44321418D01*
X152150000Y-44321418D01*
X152085897Y-44327732D01*
X152024257Y-44346430D01*
X151967450Y-44376794D01*
X151917657Y-44417657D01*
X151876794Y-44467450D01*
X151846430Y-44524257D01*
X151827732Y-44585897D01*
X151821418Y-44650000D01*
X151821418Y-46350000D01*
X151827732Y-46414103D01*
X151846430Y-46475743D01*
X151876794Y-46532550D01*
X151917657Y-46582343D01*
X151967450Y-46623206D01*
X152024257Y-46653570D01*
X152085897Y-46672268D01*
X152150000Y-46678582D01*
X153722195Y-46678582D01*
X153453149Y-46947628D01*
X153452597Y-46947333D01*
X153230732Y-46880031D01*
X153057812Y-46863000D01*
X152942188Y-46863000D01*
X152769268Y-46880031D01*
X152547403Y-46947333D01*
X152342930Y-47056626D01*
X152163709Y-47203709D01*
X152016626Y-47382930D01*
X151907333Y-47587403D01*
X151840031Y-47809268D01*
X151817306Y-48040000D01*
X151840031Y-48270732D01*
X151907333Y-48492597D01*
X152016626Y-48697070D01*
X152163709Y-48876291D01*
X152342930Y-49023374D01*
X152547403Y-49132667D01*
X152769268Y-49199969D01*
X152942188Y-49217000D01*
X153057812Y-49217000D01*
X153230732Y-49199969D01*
X153452597Y-49132667D01*
X153657070Y-49023374D01*
X153836291Y-48876291D01*
X153983374Y-48697070D01*
X154092667Y-48492597D01*
X154159969Y-48270732D01*
X154182694Y-48040000D01*
X154159969Y-47809268D01*
X154092667Y-47587403D01*
X154092372Y-47586851D01*
X157977224Y-43702000D01*
X174373000Y-43702000D01*
X174373000Y-61746885D01*
X174372358Y-61747667D01*
X174330386Y-61826191D01*
X174304540Y-61911393D01*
X174295813Y-62000000D01*
X174298001Y-62022215D01*
X174298000Y-83427661D01*
X174286564Y-83435302D01*
X174185302Y-83536564D01*
X174105741Y-83655636D01*
X174050938Y-83787942D01*
X174023000Y-83928397D01*
X174023000Y-84071603D01*
X174050938Y-84212058D01*
X174105741Y-84344364D01*
X174185302Y-84463436D01*
X174286564Y-84564698D01*
X174373000Y-84622452D01*
X174373000Y-85798000D01*
X168187225Y-85798000D01*
X166724317Y-84335093D01*
X166727000Y-84321603D01*
X166727000Y-84178397D01*
X166699062Y-84037942D01*
X166644259Y-83905636D01*
X166564698Y-83786564D01*
X166463436Y-83685302D01*
X166344364Y-83605741D01*
X166212058Y-83550938D01*
X166071603Y-83523000D01*
X165928397Y-83523000D01*
X165787942Y-83550938D01*
X165655636Y-83605741D01*
X165536564Y-83685302D01*
X165435302Y-83786564D01*
X165355741Y-83905636D01*
X165300938Y-84037942D01*
X165273000Y-84178397D01*
X165273000Y-84321603D01*
X165300938Y-84462058D01*
X165355741Y-84594364D01*
X165435302Y-84713436D01*
X165536564Y-84814698D01*
X165655636Y-84894259D01*
X165787942Y-84949062D01*
X165928397Y-84977000D01*
X166071603Y-84977000D01*
X166085093Y-84974317D01*
X167664686Y-86553911D01*
X167678841Y-86571159D01*
X167747667Y-86627643D01*
X167800039Y-86655636D01*
X167826190Y-86669614D01*
X167911392Y-86695460D01*
X167999999Y-86704187D01*
X168022204Y-86702000D01*
X174373000Y-86702000D01*
X174373000Y-106373000D01*
X161194274Y-106373000D01*
X160452050Y-105630777D01*
X160452050Y-82509255D01*
X165442142Y-82509255D01*
X165442142Y-82652461D01*
X165470080Y-82792916D01*
X165524883Y-82925222D01*
X165604444Y-83044294D01*
X165705706Y-83145556D01*
X165824778Y-83225117D01*
X165957084Y-83279920D01*
X166097539Y-83307858D01*
X166240745Y-83307858D01*
X166381200Y-83279920D01*
X166513506Y-83225117D01*
X166632578Y-83145556D01*
X166733840Y-83044294D01*
X166813401Y-82925222D01*
X166868204Y-82792916D01*
X166896142Y-82652461D01*
X166896142Y-82509255D01*
X166893459Y-82495765D01*
X169298001Y-80091223D01*
X169298000Y-84227795D01*
X169295813Y-84250000D01*
X169304540Y-84338607D01*
X169313963Y-84369670D01*
X169330386Y-84423809D01*
X169372357Y-84502332D01*
X169428841Y-84571159D01*
X169446100Y-84585323D01*
X169775683Y-84914907D01*
X169773000Y-84928397D01*
X169773000Y-85071603D01*
X169800938Y-85212058D01*
X169855741Y-85344364D01*
X169935302Y-85463436D01*
X170036564Y-85564698D01*
X170155636Y-85644259D01*
X170287942Y-85699062D01*
X170428397Y-85727000D01*
X170571603Y-85727000D01*
X170712058Y-85699062D01*
X170844364Y-85644259D01*
X170963436Y-85564698D01*
X171064698Y-85463436D01*
X171144259Y-85344364D01*
X171199062Y-85212058D01*
X171227000Y-85071603D01*
X171227000Y-84928397D01*
X171199062Y-84787942D01*
X171144259Y-84655636D01*
X171064698Y-84536564D01*
X170963436Y-84435302D01*
X170844364Y-84355741D01*
X170712058Y-84300938D01*
X170571603Y-84273000D01*
X170428397Y-84273000D01*
X170414907Y-84275683D01*
X170202000Y-84062777D01*
X170202000Y-83341223D01*
X171525683Y-84664907D01*
X171523000Y-84678397D01*
X171523000Y-84821603D01*
X171550938Y-84962058D01*
X171605741Y-85094364D01*
X171685302Y-85213436D01*
X171786564Y-85314698D01*
X171905636Y-85394259D01*
X172037942Y-85449062D01*
X172178397Y-85477000D01*
X172321603Y-85477000D01*
X172462058Y-85449062D01*
X172594364Y-85394259D01*
X172713436Y-85314698D01*
X172814698Y-85213436D01*
X172894259Y-85094364D01*
X172949062Y-84962058D01*
X172977000Y-84821603D01*
X172977000Y-84678397D01*
X172949062Y-84537942D01*
X172894259Y-84405636D01*
X172814698Y-84286564D01*
X172713436Y-84185302D01*
X172594364Y-84105741D01*
X172462058Y-84050938D01*
X172321603Y-84023000D01*
X172178397Y-84023000D01*
X172164907Y-84025683D01*
X170952000Y-82812777D01*
X170952000Y-76322339D01*
X170963436Y-76314698D01*
X171064698Y-76213436D01*
X171144259Y-76094364D01*
X171199062Y-75962058D01*
X171227000Y-75821603D01*
X171227000Y-75678397D01*
X171199062Y-75537942D01*
X171144259Y-75405636D01*
X171064698Y-75286564D01*
X170963436Y-75185302D01*
X170844364Y-75105741D01*
X170712058Y-75050938D01*
X170571603Y-75023000D01*
X170428397Y-75023000D01*
X170287942Y-75050938D01*
X170155636Y-75105741D01*
X170036564Y-75185302D01*
X169935302Y-75286564D01*
X169855741Y-75405636D01*
X169800938Y-75537942D01*
X169773000Y-75678397D01*
X169773000Y-75773000D01*
X169678397Y-75773000D01*
X169537942Y-75800938D01*
X169452000Y-75836536D01*
X169452000Y-74072339D01*
X169463436Y-74064698D01*
X169564698Y-73963436D01*
X169644259Y-73844364D01*
X169699062Y-73712058D01*
X169727000Y-73571603D01*
X169727000Y-73428397D01*
X169699062Y-73287942D01*
X169644259Y-73155636D01*
X169564698Y-73036564D01*
X169463436Y-72935302D01*
X169344364Y-72855741D01*
X169212058Y-72800938D01*
X169071603Y-72773000D01*
X168928397Y-72773000D01*
X168787942Y-72800938D01*
X168655636Y-72855741D01*
X168536564Y-72935302D01*
X168435302Y-73036564D01*
X168355741Y-73155636D01*
X168300938Y-73287942D01*
X168273000Y-73428397D01*
X168273000Y-73571603D01*
X168300938Y-73712058D01*
X168355741Y-73844364D01*
X168435302Y-73963436D01*
X168536564Y-74064698D01*
X168548001Y-74072340D01*
X168548000Y-79562776D01*
X166254235Y-81856541D01*
X166240745Y-81853858D01*
X166097539Y-81853858D01*
X165957084Y-81881796D01*
X165824778Y-81936599D01*
X165705706Y-82016160D01*
X165604444Y-82117422D01*
X165524883Y-82236494D01*
X165470080Y-82368800D01*
X165442142Y-82509255D01*
X160452050Y-82509255D01*
X160452050Y-77413484D01*
X160537942Y-77449062D01*
X160678397Y-77477000D01*
X160821603Y-77477000D01*
X160962058Y-77449062D01*
X161094364Y-77394259D01*
X161213436Y-77314698D01*
X161314698Y-77213436D01*
X161394259Y-77094364D01*
X161449062Y-76962058D01*
X161477000Y-76821603D01*
X161477000Y-76678397D01*
X161449062Y-76537942D01*
X161394259Y-76405636D01*
X161314698Y-76286564D01*
X161213436Y-76185302D01*
X161094364Y-76105741D01*
X160962058Y-76050938D01*
X160952000Y-76048937D01*
X160952000Y-75687223D01*
X161803905Y-74835319D01*
X161821159Y-74821159D01*
X161877643Y-74752333D01*
X161919614Y-74673810D01*
X161935268Y-74622205D01*
X161945460Y-74588608D01*
X161954187Y-74500000D01*
X161952000Y-74477795D01*
X161952000Y-72822339D01*
X161963436Y-72814698D01*
X162064698Y-72713436D01*
X162144259Y-72594364D01*
X162199062Y-72462058D01*
X162227000Y-72321603D01*
X162227000Y-72178397D01*
X162199062Y-72037942D01*
X162144259Y-71905636D01*
X162064698Y-71786564D01*
X161980134Y-71702000D01*
X164628462Y-71702000D01*
X166449164Y-73522702D01*
X166435302Y-73536564D01*
X166355741Y-73655636D01*
X166300938Y-73787942D01*
X166273000Y-73928397D01*
X166273000Y-74071603D01*
X166300938Y-74212058D01*
X166355741Y-74344364D01*
X166435302Y-74463436D01*
X166536564Y-74564698D01*
X166655636Y-74644259D01*
X166787942Y-74699062D01*
X166928397Y-74727000D01*
X167071603Y-74727000D01*
X167212058Y-74699062D01*
X167344364Y-74644259D01*
X167463436Y-74564698D01*
X167564698Y-74463436D01*
X167644259Y-74344364D01*
X167699062Y-74212058D01*
X167727000Y-74071603D01*
X167727000Y-73928397D01*
X167699062Y-73787942D01*
X167644259Y-73655636D01*
X167564698Y-73536564D01*
X167463436Y-73435302D01*
X167453640Y-73428756D01*
X167445460Y-73345707D01*
X167419614Y-73260505D01*
X167386772Y-73199062D01*
X167377643Y-73181982D01*
X167321159Y-73113156D01*
X167303906Y-73098997D01*
X165151008Y-70946100D01*
X165136844Y-70928841D01*
X165068018Y-70872357D01*
X164989495Y-70830386D01*
X164904292Y-70804540D01*
X164837890Y-70798000D01*
X164815685Y-70795813D01*
X164793480Y-70798000D01*
X161322339Y-70798000D01*
X161314698Y-70786564D01*
X161213436Y-70685302D01*
X161094364Y-70605741D01*
X160962058Y-70550938D01*
X160821603Y-70523000D01*
X160678397Y-70523000D01*
X160537942Y-70550938D01*
X160405636Y-70605741D01*
X160286564Y-70685302D01*
X160185302Y-70786564D01*
X160105741Y-70905636D01*
X160050938Y-71037942D01*
X160023000Y-71178397D01*
X160023000Y-71321603D01*
X160050938Y-71462058D01*
X160105741Y-71594364D01*
X160185302Y-71713436D01*
X160286564Y-71814698D01*
X160405636Y-71894259D01*
X160537942Y-71949062D01*
X160678397Y-71977000D01*
X160821603Y-71977000D01*
X160826592Y-71976008D01*
X160800938Y-72037942D01*
X160773000Y-72178397D01*
X160773000Y-72321603D01*
X160800938Y-72462058D01*
X160855741Y-72594364D01*
X160935302Y-72713436D01*
X161036564Y-72814698D01*
X161048000Y-72822339D01*
X161048001Y-74312775D01*
X160452050Y-74908727D01*
X160452050Y-74422255D01*
X160454237Y-74400050D01*
X160445510Y-74311442D01*
X160419664Y-74226240D01*
X160417590Y-74222359D01*
X160377693Y-74147717D01*
X160321209Y-74078891D01*
X160303955Y-74064731D01*
X154435323Y-68196100D01*
X154421159Y-68178841D01*
X154352333Y-68122357D01*
X154273810Y-68080386D01*
X154188607Y-68054540D01*
X154178582Y-68053553D01*
X154178582Y-67650000D01*
X154172268Y-67585897D01*
X154153570Y-67524257D01*
X154123206Y-67467450D01*
X154082343Y-67417657D01*
X154032550Y-67376794D01*
X153975743Y-67346430D01*
X153914103Y-67327732D01*
X153850000Y-67321418D01*
X152150000Y-67321418D01*
X152085897Y-67327732D01*
X152024257Y-67346430D01*
X151967450Y-67376794D01*
X151917657Y-67417657D01*
X151876794Y-67467450D01*
X151846430Y-67524257D01*
X151827732Y-67585897D01*
X151821418Y-67650000D01*
X151821418Y-69350000D01*
X151827732Y-69414103D01*
X151846430Y-69475743D01*
X151876794Y-69532550D01*
X151917657Y-69582343D01*
X151967450Y-69623206D01*
X152024257Y-69653570D01*
X152085897Y-69672268D01*
X152150000Y-69678582D01*
X153850000Y-69678582D01*
X153914103Y-69672268D01*
X153975743Y-69653570D01*
X154032550Y-69623206D01*
X154082343Y-69582343D01*
X154123206Y-69532550D01*
X154153570Y-69475743D01*
X154172268Y-69414103D01*
X154178582Y-69350000D01*
X154178582Y-69217805D01*
X159548051Y-74587275D01*
X159548051Y-76948826D01*
X154092372Y-71493149D01*
X154092667Y-71492597D01*
X154159969Y-71270732D01*
X154182694Y-71040000D01*
X154159969Y-70809268D01*
X154092667Y-70587403D01*
X153983374Y-70382930D01*
X153836291Y-70203709D01*
X153657070Y-70056626D01*
X153452597Y-69947333D01*
X153230732Y-69880031D01*
X153057812Y-69863000D01*
X152942188Y-69863000D01*
X152769268Y-69880031D01*
X152547403Y-69947333D01*
X152342930Y-70056626D01*
X152163709Y-70203709D01*
X152016626Y-70382930D01*
X151907333Y-70587403D01*
X151840031Y-70809268D01*
X151817306Y-71040000D01*
X151840031Y-71270732D01*
X151907333Y-71492597D01*
X152016626Y-71697070D01*
X152163709Y-71876291D01*
X152342930Y-72023374D01*
X152547403Y-72132667D01*
X152769268Y-72199969D01*
X152942188Y-72217000D01*
X153057812Y-72217000D01*
X153230732Y-72199969D01*
X153452597Y-72132667D01*
X153453149Y-72132372D01*
X159098040Y-77777265D01*
X159098040Y-79038816D01*
X154185321Y-74126098D01*
X154185312Y-74126087D01*
X154092373Y-74033148D01*
X154092667Y-74032597D01*
X154159969Y-73810732D01*
X154182694Y-73580000D01*
X154159969Y-73349268D01*
X154092667Y-73127403D01*
X153983374Y-72922930D01*
X153836291Y-72743709D01*
X153657070Y-72596626D01*
X153452597Y-72487333D01*
X153230732Y-72420031D01*
X153057812Y-72403000D01*
X152942188Y-72403000D01*
X152769268Y-72420031D01*
X152547403Y-72487333D01*
X152342930Y-72596626D01*
X152163709Y-72743709D01*
X152016626Y-72922930D01*
X151907333Y-73127403D01*
X151840031Y-73349268D01*
X151817306Y-73580000D01*
X151840031Y-73810732D01*
X151907333Y-74032597D01*
X152016626Y-74237070D01*
X152163709Y-74416291D01*
X152342930Y-74563374D01*
X152547403Y-74672667D01*
X152769268Y-74739969D01*
X152942188Y-74757000D01*
X153057812Y-74757000D01*
X153230732Y-74739969D01*
X153452597Y-74672667D01*
X153453148Y-74672373D01*
X153546087Y-74765312D01*
X153546098Y-74765321D01*
X158648031Y-79867255D01*
X158648031Y-81128807D01*
X154092372Y-76573149D01*
X154092667Y-76572597D01*
X154159969Y-76350732D01*
X154182694Y-76120000D01*
X154159969Y-75889268D01*
X154092667Y-75667403D01*
X153983374Y-75462930D01*
X153836291Y-75283709D01*
X153657070Y-75136626D01*
X153452597Y-75027333D01*
X153230732Y-74960031D01*
X153057812Y-74943000D01*
X152942188Y-74943000D01*
X152769268Y-74960031D01*
X152547403Y-75027333D01*
X152342930Y-75136626D01*
X152163709Y-75283709D01*
X152016626Y-75462930D01*
X151907333Y-75667403D01*
X151840031Y-75889268D01*
X151817306Y-76120000D01*
X151840031Y-76350732D01*
X151907333Y-76572597D01*
X152016626Y-76777070D01*
X152163709Y-76956291D01*
X152342930Y-77103374D01*
X152547403Y-77212667D01*
X152769268Y-77279969D01*
X152942188Y-77297000D01*
X153057812Y-77297000D01*
X153230732Y-77279969D01*
X153452597Y-77212667D01*
X153453149Y-77212372D01*
X158198021Y-81957245D01*
X158198021Y-83218797D01*
X154185321Y-79206098D01*
X154185312Y-79206087D01*
X154092373Y-79113148D01*
X154092667Y-79112597D01*
X154159969Y-78890732D01*
X154182694Y-78660000D01*
X154159969Y-78429268D01*
X154092667Y-78207403D01*
X153983374Y-78002930D01*
X153836291Y-77823709D01*
X153657070Y-77676626D01*
X153452597Y-77567333D01*
X153230732Y-77500031D01*
X153057812Y-77483000D01*
X152942188Y-77483000D01*
X152769268Y-77500031D01*
X152547403Y-77567333D01*
X152342930Y-77676626D01*
X152163709Y-77823709D01*
X152016626Y-78002930D01*
X151907333Y-78207403D01*
X151840031Y-78429268D01*
X151817306Y-78660000D01*
X151840031Y-78890732D01*
X151907333Y-79112597D01*
X152016626Y-79317070D01*
X152163709Y-79496291D01*
X152342930Y-79643374D01*
X152547403Y-79752667D01*
X152769268Y-79819969D01*
X152942188Y-79837000D01*
X153057812Y-79837000D01*
X153230732Y-79819969D01*
X153452597Y-79752667D01*
X153453148Y-79752373D01*
X153546087Y-79845312D01*
X153546098Y-79845321D01*
X157748011Y-84047235D01*
X157748011Y-86510867D01*
X153502914Y-82265772D01*
X153657070Y-82183374D01*
X153836291Y-82036291D01*
X153983374Y-81857070D01*
X154092667Y-81652597D01*
X154159969Y-81430732D01*
X154182694Y-81200000D01*
X154159969Y-80969268D01*
X154092667Y-80747403D01*
X153983374Y-80542930D01*
X153836291Y-80363709D01*
X153657070Y-80216626D01*
X153452597Y-80107333D01*
X153230732Y-80040031D01*
X153057812Y-80023000D01*
X152942188Y-80023000D01*
X152769268Y-80040031D01*
X152547403Y-80107333D01*
X152342930Y-80216626D01*
X152163709Y-80363709D01*
X152016626Y-80542930D01*
X151907333Y-80747403D01*
X151840031Y-80969268D01*
X151817306Y-81200000D01*
X151840031Y-81430732D01*
X151907333Y-81652597D01*
X152016626Y-81857070D01*
X152163709Y-82036291D01*
X152342930Y-82183374D01*
X152547403Y-82292667D01*
X152548001Y-82292848D01*
X152548001Y-82379866D01*
X152545813Y-82402081D01*
X152554540Y-82490688D01*
X152580386Y-82575890D01*
X152584858Y-82584256D01*
X152622358Y-82654414D01*
X152678842Y-82723240D01*
X152696096Y-82737400D01*
X157298000Y-87339306D01*
X157298000Y-93499774D01*
X153747437Y-89949212D01*
X153836291Y-89876291D01*
X153983374Y-89697070D01*
X154092667Y-89492597D01*
X154159969Y-89270732D01*
X154182694Y-89040000D01*
X154159969Y-88809268D01*
X154092667Y-88587403D01*
X153983374Y-88382930D01*
X153836291Y-88203709D01*
X153657070Y-88056626D01*
X153452597Y-87947333D01*
X153230732Y-87880031D01*
X153057812Y-87863000D01*
X152942188Y-87863000D01*
X152769268Y-87880031D01*
X152547403Y-87947333D01*
X152342930Y-88056626D01*
X152163709Y-88203709D01*
X152016626Y-88382930D01*
X151907333Y-88587403D01*
X151840031Y-88809268D01*
X151817306Y-89040000D01*
X151840031Y-89270732D01*
X151907333Y-89492597D01*
X152016626Y-89697070D01*
X152163709Y-89876291D01*
X152342930Y-90023374D01*
X152547403Y-90132667D01*
X152698185Y-90178406D01*
X152924519Y-90404740D01*
X152769268Y-90420031D01*
X152547403Y-90487333D01*
X152342930Y-90596626D01*
X152163709Y-90743709D01*
X152016626Y-90922930D01*
X151907333Y-91127403D01*
X151840031Y-91349268D01*
X151817306Y-91580000D01*
X151840031Y-91810732D01*
X151907333Y-92032597D01*
X152016626Y-92237070D01*
X152163709Y-92416291D01*
X152342930Y-92563374D01*
X152547403Y-92672667D01*
X152769268Y-92739969D01*
X152942188Y-92757000D01*
X153057812Y-92757000D01*
X153230732Y-92739969D01*
X153452597Y-92672667D01*
X153657070Y-92563374D01*
X153836291Y-92416291D01*
X153983374Y-92237070D01*
X154092667Y-92032597D01*
X154159969Y-91810732D01*
X154175260Y-91655481D01*
X156798000Y-94278222D01*
X156798001Y-106373000D01*
X151127000Y-106373000D01*
X151127000Y-104280000D01*
X151817306Y-104280000D01*
X151840031Y-104510732D01*
X151907333Y-104732597D01*
X152016626Y-104937070D01*
X152163709Y-105116291D01*
X152342930Y-105263374D01*
X152547403Y-105372667D01*
X152769268Y-105439969D01*
X152942188Y-105457000D01*
X153057812Y-105457000D01*
X153230732Y-105439969D01*
X153452597Y-105372667D01*
X153657070Y-105263374D01*
X153836291Y-105116291D01*
X153983374Y-104937070D01*
X154092667Y-104732597D01*
X154159969Y-104510732D01*
X154182694Y-104280000D01*
X154159969Y-104049268D01*
X154092667Y-103827403D01*
X153983374Y-103622930D01*
X153836291Y-103443709D01*
X153657070Y-103296626D01*
X153452597Y-103187333D01*
X153230732Y-103120031D01*
X153057812Y-103103000D01*
X152942188Y-103103000D01*
X152769268Y-103120031D01*
X152547403Y-103187333D01*
X152342930Y-103296626D01*
X152163709Y-103443709D01*
X152016626Y-103622930D01*
X151907333Y-103827403D01*
X151840031Y-104049268D01*
X151817306Y-104280000D01*
X151127000Y-104280000D01*
X151127000Y-101740000D01*
X151817306Y-101740000D01*
X151840031Y-101970732D01*
X151907333Y-102192597D01*
X152016626Y-102397070D01*
X152163709Y-102576291D01*
X152342930Y-102723374D01*
X152547403Y-102832667D01*
X152769268Y-102899969D01*
X152942188Y-102917000D01*
X153057812Y-102917000D01*
X153230732Y-102899969D01*
X153452597Y-102832667D01*
X153657070Y-102723374D01*
X153836291Y-102576291D01*
X153983374Y-102397070D01*
X154092667Y-102192597D01*
X154159969Y-101970732D01*
X154182694Y-101740000D01*
X154159969Y-101509268D01*
X154092667Y-101287403D01*
X153983374Y-101082930D01*
X153836291Y-100903709D01*
X153657070Y-100756626D01*
X153452597Y-100647333D01*
X153230732Y-100580031D01*
X153057812Y-100563000D01*
X152942188Y-100563000D01*
X152769268Y-100580031D01*
X152547403Y-100647333D01*
X152342930Y-100756626D01*
X152163709Y-100903709D01*
X152016626Y-101082930D01*
X151907333Y-101287403D01*
X151840031Y-101509268D01*
X151817306Y-101740000D01*
X151127000Y-101740000D01*
X151127000Y-99200000D01*
X151817306Y-99200000D01*
X151840031Y-99430732D01*
X151907333Y-99652597D01*
X152016626Y-99857070D01*
X152163709Y-100036291D01*
X152342930Y-100183374D01*
X152547403Y-100292667D01*
X152769268Y-100359969D01*
X152942188Y-100377000D01*
X153057812Y-100377000D01*
X153230732Y-100359969D01*
X153452597Y-100292667D01*
X153657070Y-100183374D01*
X153836291Y-100036291D01*
X153983374Y-99857070D01*
X154092667Y-99652597D01*
X154159969Y-99430732D01*
X154182694Y-99200000D01*
X154159969Y-98969268D01*
X154092667Y-98747403D01*
X153983374Y-98542930D01*
X153836291Y-98363709D01*
X153657070Y-98216626D01*
X153452597Y-98107333D01*
X153230732Y-98040031D01*
X153057812Y-98023000D01*
X152942188Y-98023000D01*
X152769268Y-98040031D01*
X152547403Y-98107333D01*
X152342930Y-98216626D01*
X152163709Y-98363709D01*
X152016626Y-98542930D01*
X151907333Y-98747403D01*
X151840031Y-98969268D01*
X151817306Y-99200000D01*
X151127000Y-99200000D01*
X151127000Y-96660000D01*
X151817306Y-96660000D01*
X151840031Y-96890732D01*
X151907333Y-97112597D01*
X152016626Y-97317070D01*
X152163709Y-97496291D01*
X152342930Y-97643374D01*
X152547403Y-97752667D01*
X152769268Y-97819969D01*
X152942188Y-97837000D01*
X153057812Y-97837000D01*
X153230732Y-97819969D01*
X153452597Y-97752667D01*
X153657070Y-97643374D01*
X153836291Y-97496291D01*
X153983374Y-97317070D01*
X154092667Y-97112597D01*
X154159969Y-96890732D01*
X154182694Y-96660000D01*
X154159969Y-96429268D01*
X154092667Y-96207403D01*
X153983374Y-96002930D01*
X153836291Y-95823709D01*
X153657070Y-95676626D01*
X153452597Y-95567333D01*
X153230732Y-95500031D01*
X153057812Y-95483000D01*
X152942188Y-95483000D01*
X152769268Y-95500031D01*
X152547403Y-95567333D01*
X152342930Y-95676626D01*
X152163709Y-95823709D01*
X152016626Y-96002930D01*
X151907333Y-96207403D01*
X151840031Y-96429268D01*
X151817306Y-96660000D01*
X151127000Y-96660000D01*
X151127000Y-94120000D01*
X151817306Y-94120000D01*
X151840031Y-94350732D01*
X151907333Y-94572597D01*
X152016626Y-94777070D01*
X152163709Y-94956291D01*
X152342930Y-95103374D01*
X152547403Y-95212667D01*
X152769268Y-95279969D01*
X152942188Y-95297000D01*
X153057812Y-95297000D01*
X153230732Y-95279969D01*
X153452597Y-95212667D01*
X153657070Y-95103374D01*
X153836291Y-94956291D01*
X153983374Y-94777070D01*
X154092667Y-94572597D01*
X154159969Y-94350732D01*
X154182694Y-94120000D01*
X154159969Y-93889268D01*
X154092667Y-93667403D01*
X153983374Y-93462930D01*
X153836291Y-93283709D01*
X153657070Y-93136626D01*
X153452597Y-93027333D01*
X153230732Y-92960031D01*
X153057812Y-92943000D01*
X152942188Y-92943000D01*
X152769268Y-92960031D01*
X152547403Y-93027333D01*
X152342930Y-93136626D01*
X152163709Y-93283709D01*
X152016626Y-93462930D01*
X151907333Y-93667403D01*
X151840031Y-93889268D01*
X151817306Y-94120000D01*
X151127000Y-94120000D01*
X151127000Y-63280000D01*
X151817306Y-63280000D01*
X151840031Y-63510732D01*
X151907333Y-63732597D01*
X152016626Y-63937070D01*
X152163709Y-64116291D01*
X152342930Y-64263374D01*
X152547403Y-64372667D01*
X152769268Y-64439969D01*
X152942188Y-64457000D01*
X153057812Y-64457000D01*
X153230732Y-64439969D01*
X153452597Y-64372667D01*
X153657070Y-64263374D01*
X153836291Y-64116291D01*
X153983374Y-63937070D01*
X154092667Y-63732597D01*
X154159969Y-63510732D01*
X154182694Y-63280000D01*
X154159969Y-63049268D01*
X154092667Y-62827403D01*
X153983374Y-62622930D01*
X153836291Y-62443709D01*
X153657070Y-62296626D01*
X153452597Y-62187333D01*
X153230732Y-62120031D01*
X153057812Y-62103000D01*
X152942188Y-62103000D01*
X152769268Y-62120031D01*
X152547403Y-62187333D01*
X152342930Y-62296626D01*
X152163709Y-62443709D01*
X152016626Y-62622930D01*
X151907333Y-62827403D01*
X151840031Y-63049268D01*
X151817306Y-63280000D01*
X151127000Y-63280000D01*
X151127000Y-60740000D01*
X151817306Y-60740000D01*
X151840031Y-60970732D01*
X151907333Y-61192597D01*
X152016626Y-61397070D01*
X152163709Y-61576291D01*
X152342930Y-61723374D01*
X152547403Y-61832667D01*
X152769268Y-61899969D01*
X152942188Y-61917000D01*
X153057812Y-61917000D01*
X153230732Y-61899969D01*
X153452597Y-61832667D01*
X153657070Y-61723374D01*
X153836291Y-61576291D01*
X153983374Y-61397070D01*
X154092667Y-61192597D01*
X154159969Y-60970732D01*
X154182694Y-60740000D01*
X154159969Y-60509268D01*
X154092667Y-60287403D01*
X153983374Y-60082930D01*
X153836291Y-59903709D01*
X153657070Y-59756626D01*
X153452597Y-59647333D01*
X153230732Y-59580031D01*
X153057812Y-59563000D01*
X152942188Y-59563000D01*
X152769268Y-59580031D01*
X152547403Y-59647333D01*
X152342930Y-59756626D01*
X152163709Y-59903709D01*
X152016626Y-60082930D01*
X151907333Y-60287403D01*
X151840031Y-60509268D01*
X151817306Y-60740000D01*
X151127000Y-60740000D01*
X151127000Y-58200000D01*
X151817306Y-58200000D01*
X151840031Y-58430732D01*
X151907333Y-58652597D01*
X152016626Y-58857070D01*
X152163709Y-59036291D01*
X152342930Y-59183374D01*
X152547403Y-59292667D01*
X152769268Y-59359969D01*
X152942188Y-59377000D01*
X153057812Y-59377000D01*
X153230732Y-59359969D01*
X153452597Y-59292667D01*
X153657070Y-59183374D01*
X153836291Y-59036291D01*
X153983374Y-58857070D01*
X154092667Y-58652597D01*
X154159969Y-58430732D01*
X154182694Y-58200000D01*
X154159969Y-57969268D01*
X154092667Y-57747403D01*
X153983374Y-57542930D01*
X153836291Y-57363709D01*
X153657070Y-57216626D01*
X153452597Y-57107333D01*
X153230732Y-57040031D01*
X153057812Y-57023000D01*
X152942188Y-57023000D01*
X152769268Y-57040031D01*
X152547403Y-57107333D01*
X152342930Y-57216626D01*
X152163709Y-57363709D01*
X152016626Y-57542930D01*
X151907333Y-57747403D01*
X151840031Y-57969268D01*
X151817306Y-58200000D01*
X151127000Y-58200000D01*
X151127000Y-55660000D01*
X151817306Y-55660000D01*
X151840031Y-55890732D01*
X151907333Y-56112597D01*
X152016626Y-56317070D01*
X152163709Y-56496291D01*
X152342930Y-56643374D01*
X152547403Y-56752667D01*
X152769268Y-56819969D01*
X152942188Y-56837000D01*
X153057812Y-56837000D01*
X153230732Y-56819969D01*
X153452597Y-56752667D01*
X153657070Y-56643374D01*
X153836291Y-56496291D01*
X153983374Y-56317070D01*
X154092667Y-56112597D01*
X154159969Y-55890732D01*
X154182694Y-55660000D01*
X154159969Y-55429268D01*
X154092667Y-55207403D01*
X153983374Y-55002930D01*
X153836291Y-54823709D01*
X153657070Y-54676626D01*
X153452597Y-54567333D01*
X153230732Y-54500031D01*
X153057812Y-54483000D01*
X152942188Y-54483000D01*
X152769268Y-54500031D01*
X152547403Y-54567333D01*
X152342930Y-54676626D01*
X152163709Y-54823709D01*
X152016626Y-55002930D01*
X151907333Y-55207403D01*
X151840031Y-55429268D01*
X151817306Y-55660000D01*
X151127000Y-55660000D01*
X151127000Y-53120000D01*
X151817306Y-53120000D01*
X151840031Y-53350732D01*
X151907333Y-53572597D01*
X152016626Y-53777070D01*
X152163709Y-53956291D01*
X152342930Y-54103374D01*
X152547403Y-54212667D01*
X152769268Y-54279969D01*
X152942188Y-54297000D01*
X153057812Y-54297000D01*
X153230732Y-54279969D01*
X153452597Y-54212667D01*
X153657070Y-54103374D01*
X153836291Y-53956291D01*
X153983374Y-53777070D01*
X154092667Y-53572597D01*
X154159969Y-53350732D01*
X154182694Y-53120000D01*
X154159969Y-52889268D01*
X154092667Y-52667403D01*
X153983374Y-52462930D01*
X153836291Y-52283709D01*
X153657070Y-52136626D01*
X153452597Y-52027333D01*
X153230732Y-51960031D01*
X153057812Y-51943000D01*
X152942188Y-51943000D01*
X152769268Y-51960031D01*
X152547403Y-52027333D01*
X152342930Y-52136626D01*
X152163709Y-52283709D01*
X152016626Y-52462930D01*
X151907333Y-52667403D01*
X151840031Y-52889268D01*
X151817306Y-53120000D01*
X151127000Y-53120000D01*
X151127000Y-50580000D01*
X151817306Y-50580000D01*
X151840031Y-50810732D01*
X151907333Y-51032597D01*
X152016626Y-51237070D01*
X152163709Y-51416291D01*
X152342930Y-51563374D01*
X152547403Y-51672667D01*
X152769268Y-51739969D01*
X152942188Y-51757000D01*
X153057812Y-51757000D01*
X153230732Y-51739969D01*
X153452597Y-51672667D01*
X153657070Y-51563374D01*
X153836291Y-51416291D01*
X153983374Y-51237070D01*
X154092667Y-51032597D01*
X154159969Y-50810732D01*
X154182694Y-50580000D01*
X154159969Y-50349268D01*
X154092667Y-50127403D01*
X153983374Y-49922930D01*
X153836291Y-49743709D01*
X153657070Y-49596626D01*
X153452597Y-49487333D01*
X153230732Y-49420031D01*
X153057812Y-49403000D01*
X152942188Y-49403000D01*
X152769268Y-49420031D01*
X152547403Y-49487333D01*
X152342930Y-49596626D01*
X152163709Y-49743709D01*
X152016626Y-49922930D01*
X151907333Y-50127403D01*
X151840031Y-50349268D01*
X151817306Y-50580000D01*
X151127000Y-50580000D01*
X151127000Y-35627000D01*
X192374875Y-35627000D01*
X192355741Y-35655636D01*
X192355741Y-35655636D01*
G37*
X192355741Y-35655636D02*
X192300938Y-35787942D01*
X192273000Y-35928397D01*
X192273000Y-36071603D01*
X192300938Y-36212058D01*
X192355741Y-36344364D01*
X192435302Y-36463436D01*
X192536564Y-36564698D01*
X192548000Y-36572339D01*
X192548001Y-38857045D01*
X192426251Y-38907475D01*
X192307179Y-38987036D01*
X192205917Y-39088298D01*
X192126356Y-39207370D01*
X192071553Y-39339676D01*
X192043615Y-39480131D01*
X192043615Y-39623337D01*
X192071553Y-39763792D01*
X192126356Y-39896098D01*
X192205917Y-40015170D01*
X192307179Y-40116432D01*
X192426251Y-40195993D01*
X192558557Y-40250796D01*
X192699012Y-40278734D01*
X192842218Y-40278734D01*
X192982673Y-40250796D01*
X193114979Y-40195993D01*
X193234051Y-40116432D01*
X193335313Y-40015170D01*
X193414874Y-39896098D01*
X193469677Y-39763792D01*
X193497615Y-39623337D01*
X193497615Y-39480131D01*
X193469677Y-39339676D01*
X193452000Y-39297000D01*
X193452000Y-36572339D01*
X193463436Y-36564698D01*
X193564698Y-36463436D01*
X193644259Y-36344364D01*
X193699062Y-36212058D01*
X193727000Y-36071603D01*
X193727000Y-35928397D01*
X193699062Y-35787942D01*
X193644259Y-35655636D01*
X193625125Y-35627000D01*
X212873000Y-35627000D01*
X212873000Y-110873000D01*
X190627000Y-110873000D01*
X190627000Y-110452000D01*
X192227795Y-110452000D01*
X192250000Y-110454187D01*
X192272205Y-110452000D01*
X192338607Y-110445460D01*
X192423810Y-110419614D01*
X192502333Y-110377643D01*
X192571159Y-110321159D01*
X192585323Y-110303900D01*
X195803915Y-107085310D01*
X195821162Y-107071156D01*
X195877646Y-107002330D01*
X195919617Y-106923807D01*
X195945463Y-106838604D01*
X195945463Y-106838603D01*
X195954190Y-106749998D01*
X195952003Y-106727793D01*
X195952003Y-102072339D01*
X195963439Y-102064698D01*
X196064701Y-101963436D01*
X196144262Y-101844364D01*
X196199065Y-101712058D01*
X196227003Y-101571603D01*
X196227003Y-101428397D01*
X196199065Y-101287942D01*
X196173411Y-101226008D01*
X196178397Y-101227000D01*
X196321603Y-101227000D01*
X196462058Y-101199062D01*
X196594364Y-101144259D01*
X196713436Y-101064698D01*
X196814698Y-100963436D01*
X196894259Y-100844364D01*
X196949062Y-100712058D01*
X196977000Y-100571603D01*
X196977000Y-100428397D01*
X196974317Y-100414906D01*
X204535323Y-92853901D01*
X204535327Y-92853896D01*
X205053910Y-92335315D01*
X205071159Y-92321159D01*
X205127643Y-92252333D01*
X205169614Y-92173810D01*
X205195460Y-92088607D01*
X205204187Y-92000001D01*
X205202000Y-91977796D01*
X205202000Y-39322339D01*
X205213436Y-39314698D01*
X205314698Y-39213436D01*
X205394259Y-39094364D01*
X205449062Y-38962058D01*
X205477000Y-38821603D01*
X205477000Y-38678397D01*
X205449062Y-38537942D01*
X205394259Y-38405636D01*
X205314698Y-38286564D01*
X205213436Y-38185302D01*
X205094364Y-38105741D01*
X204962058Y-38050938D01*
X204821603Y-38023000D01*
X204678397Y-38023000D01*
X204537942Y-38050938D01*
X204405636Y-38105741D01*
X204286564Y-38185302D01*
X204227000Y-38244866D01*
X204227000Y-38178397D01*
X204199062Y-38037942D01*
X204144259Y-37905636D01*
X204064698Y-37786564D01*
X203963436Y-37685302D01*
X203844364Y-37605741D01*
X203712058Y-37550938D01*
X203571603Y-37523000D01*
X203428397Y-37523000D01*
X203287942Y-37550938D01*
X203208216Y-37583962D01*
X203199062Y-37537942D01*
X203144259Y-37405636D01*
X203064698Y-37286564D01*
X202963436Y-37185302D01*
X202844364Y-37105741D01*
X202712058Y-37050938D01*
X202571603Y-37023000D01*
X202428397Y-37023000D01*
X202287942Y-37050938D01*
X202208216Y-37083962D01*
X202199062Y-37037942D01*
X202144259Y-36905636D01*
X202064698Y-36786564D01*
X201963436Y-36685302D01*
X201844364Y-36605741D01*
X201712058Y-36550938D01*
X201571603Y-36523000D01*
X201428397Y-36523000D01*
X201287942Y-36550938D01*
X201226008Y-36576592D01*
X201227000Y-36571603D01*
X201227000Y-36428397D01*
X201199062Y-36287942D01*
X201144259Y-36155636D01*
X201064698Y-36036564D01*
X200963436Y-35935302D01*
X200844364Y-35855741D01*
X200712058Y-35800938D01*
X200571603Y-35773000D01*
X200428397Y-35773000D01*
X200287942Y-35800938D01*
X200155636Y-35855741D01*
X200036564Y-35935302D01*
X199935302Y-36036564D01*
X199855741Y-36155636D01*
X199800938Y-36287942D01*
X199773000Y-36428397D01*
X199773000Y-36571603D01*
X199800938Y-36712058D01*
X199855741Y-36844364D01*
X199935302Y-36963436D01*
X200036564Y-37064698D01*
X200048000Y-37072339D01*
X200048001Y-46812774D01*
X196531199Y-50329577D01*
X196462058Y-50300938D01*
X196321603Y-50273000D01*
X196178397Y-50273000D01*
X196037942Y-50300938D01*
X195952006Y-50336534D01*
X195952006Y-43822339D01*
X195963442Y-43814698D01*
X196064704Y-43713436D01*
X196144265Y-43594364D01*
X196199068Y-43462058D01*
X196227006Y-43321603D01*
X196227006Y-43178397D01*
X196199068Y-43037942D01*
X196144265Y-42905636D01*
X196064704Y-42786564D01*
X195963442Y-42685302D01*
X195844370Y-42605741D01*
X195712064Y-42550938D01*
X195571609Y-42523000D01*
X195428403Y-42523000D01*
X195287948Y-42550938D01*
X195155642Y-42605741D01*
X195036570Y-42685302D01*
X195000005Y-42721868D01*
X194963439Y-42685302D01*
X194953643Y-42678756D01*
X194945463Y-42595707D01*
X194931882Y-42550938D01*
X194919617Y-42510505D01*
X194877646Y-42431982D01*
X194821162Y-42363156D01*
X194803903Y-42348992D01*
X194676010Y-42221099D01*
X194661846Y-42203840D01*
X194593020Y-42147356D01*
X194514497Y-42105385D01*
X194429294Y-42079539D01*
X194362892Y-42072999D01*
X194340687Y-42070812D01*
X194318482Y-42072999D01*
X190627000Y-42072999D01*
X190627000Y-42000000D01*
X190624560Y-41975224D01*
X190617333Y-41951399D01*
X190605597Y-41929443D01*
X190589803Y-41910197D01*
X190570557Y-41894403D01*
X190548601Y-41882667D01*
X190524776Y-41875440D01*
X190500000Y-41873000D01*
X174500000Y-41873000D01*
X174475224Y-41875440D01*
X174451399Y-41882667D01*
X174429443Y-41894403D01*
X174410197Y-41910197D01*
X174394403Y-41929443D01*
X174382667Y-41951399D01*
X174375440Y-41975224D01*
X174373000Y-42000000D01*
X174373000Y-42072999D01*
X157097206Y-42072999D01*
X157075001Y-42070812D01*
X156986393Y-42079539D01*
X156901191Y-42105385D01*
X156822668Y-42147356D01*
X156753842Y-42203840D01*
X156739682Y-42221094D01*
X154178582Y-44782195D01*
X154178582Y-44650000D01*
X154172268Y-44585897D01*
X154153570Y-44524257D01*
X154123206Y-44467450D01*
X154082343Y-44417657D01*
X154032550Y-44376794D01*
X153975743Y-44346430D01*
X153914103Y-44327732D01*
X153850000Y-44321418D01*
X152150000Y-44321418D01*
X152085897Y-44327732D01*
X152024257Y-44346430D01*
X151967450Y-44376794D01*
X151917657Y-44417657D01*
X151876794Y-44467450D01*
X151846430Y-44524257D01*
X151827732Y-44585897D01*
X151821418Y-44650000D01*
X151821418Y-46350000D01*
X151827732Y-46414103D01*
X151846430Y-46475743D01*
X151876794Y-46532550D01*
X151917657Y-46582343D01*
X151967450Y-46623206D01*
X152024257Y-46653570D01*
X152085897Y-46672268D01*
X152150000Y-46678582D01*
X153722195Y-46678582D01*
X153453149Y-46947628D01*
X153452597Y-46947333D01*
X153230732Y-46880031D01*
X153057812Y-46863000D01*
X152942188Y-46863000D01*
X152769268Y-46880031D01*
X152547403Y-46947333D01*
X152342930Y-47056626D01*
X152163709Y-47203709D01*
X152016626Y-47382930D01*
X151907333Y-47587403D01*
X151840031Y-47809268D01*
X151817306Y-48040000D01*
X151840031Y-48270732D01*
X151907333Y-48492597D01*
X152016626Y-48697070D01*
X152163709Y-48876291D01*
X152342930Y-49023374D01*
X152547403Y-49132667D01*
X152769268Y-49199969D01*
X152942188Y-49217000D01*
X153057812Y-49217000D01*
X153230732Y-49199969D01*
X153452597Y-49132667D01*
X153657070Y-49023374D01*
X153836291Y-48876291D01*
X153983374Y-48697070D01*
X154092667Y-48492597D01*
X154159969Y-48270732D01*
X154182694Y-48040000D01*
X154159969Y-47809268D01*
X154092667Y-47587403D01*
X154092372Y-47586851D01*
X157977224Y-43702000D01*
X174373000Y-43702000D01*
X174373000Y-61746885D01*
X174372358Y-61747667D01*
X174330386Y-61826191D01*
X174304540Y-61911393D01*
X174295813Y-62000000D01*
X174298001Y-62022215D01*
X174298000Y-83427661D01*
X174286564Y-83435302D01*
X174185302Y-83536564D01*
X174105741Y-83655636D01*
X174050938Y-83787942D01*
X174023000Y-83928397D01*
X174023000Y-84071603D01*
X174050938Y-84212058D01*
X174105741Y-84344364D01*
X174185302Y-84463436D01*
X174286564Y-84564698D01*
X174373000Y-84622452D01*
X174373000Y-85798000D01*
X168187225Y-85798000D01*
X166724317Y-84335093D01*
X166727000Y-84321603D01*
X166727000Y-84178397D01*
X166699062Y-84037942D01*
X166644259Y-83905636D01*
X166564698Y-83786564D01*
X166463436Y-83685302D01*
X166344364Y-83605741D01*
X166212058Y-83550938D01*
X166071603Y-83523000D01*
X165928397Y-83523000D01*
X165787942Y-83550938D01*
X165655636Y-83605741D01*
X165536564Y-83685302D01*
X165435302Y-83786564D01*
X165355741Y-83905636D01*
X165300938Y-84037942D01*
X165273000Y-84178397D01*
X165273000Y-84321603D01*
X165300938Y-84462058D01*
X165355741Y-84594364D01*
X165435302Y-84713436D01*
X165536564Y-84814698D01*
X165655636Y-84894259D01*
X165787942Y-84949062D01*
X165928397Y-84977000D01*
X166071603Y-84977000D01*
X166085093Y-84974317D01*
X167664686Y-86553911D01*
X167678841Y-86571159D01*
X167747667Y-86627643D01*
X167800039Y-86655636D01*
X167826190Y-86669614D01*
X167911392Y-86695460D01*
X167999999Y-86704187D01*
X168022204Y-86702000D01*
X174373000Y-86702000D01*
X174373000Y-106373000D01*
X161194274Y-106373000D01*
X160452050Y-105630777D01*
X160452050Y-82509255D01*
X165442142Y-82509255D01*
X165442142Y-82652461D01*
X165470080Y-82792916D01*
X165524883Y-82925222D01*
X165604444Y-83044294D01*
X165705706Y-83145556D01*
X165824778Y-83225117D01*
X165957084Y-83279920D01*
X166097539Y-83307858D01*
X166240745Y-83307858D01*
X166381200Y-83279920D01*
X166513506Y-83225117D01*
X166632578Y-83145556D01*
X166733840Y-83044294D01*
X166813401Y-82925222D01*
X166868204Y-82792916D01*
X166896142Y-82652461D01*
X166896142Y-82509255D01*
X166893459Y-82495765D01*
X169298001Y-80091223D01*
X169298000Y-84227795D01*
X169295813Y-84250000D01*
X169304540Y-84338607D01*
X169313963Y-84369670D01*
X169330386Y-84423809D01*
X169372357Y-84502332D01*
X169428841Y-84571159D01*
X169446100Y-84585323D01*
X169775683Y-84914907D01*
X169773000Y-84928397D01*
X169773000Y-85071603D01*
X169800938Y-85212058D01*
X169855741Y-85344364D01*
X169935302Y-85463436D01*
X170036564Y-85564698D01*
X170155636Y-85644259D01*
X170287942Y-85699062D01*
X170428397Y-85727000D01*
X170571603Y-85727000D01*
X170712058Y-85699062D01*
X170844364Y-85644259D01*
X170963436Y-85564698D01*
X171064698Y-85463436D01*
X171144259Y-85344364D01*
X171199062Y-85212058D01*
X171227000Y-85071603D01*
X171227000Y-84928397D01*
X171199062Y-84787942D01*
X171144259Y-84655636D01*
X171064698Y-84536564D01*
X170963436Y-84435302D01*
X170844364Y-84355741D01*
X170712058Y-84300938D01*
X170571603Y-84273000D01*
X170428397Y-84273000D01*
X170414907Y-84275683D01*
X170202000Y-84062777D01*
X170202000Y-83341223D01*
X171525683Y-84664907D01*
X171523000Y-84678397D01*
X171523000Y-84821603D01*
X171550938Y-84962058D01*
X171605741Y-85094364D01*
X171685302Y-85213436D01*
X171786564Y-85314698D01*
X171905636Y-85394259D01*
X172037942Y-85449062D01*
X172178397Y-85477000D01*
X172321603Y-85477000D01*
X172462058Y-85449062D01*
X172594364Y-85394259D01*
X172713436Y-85314698D01*
X172814698Y-85213436D01*
X172894259Y-85094364D01*
X172949062Y-84962058D01*
X172977000Y-84821603D01*
X172977000Y-84678397D01*
X172949062Y-84537942D01*
X172894259Y-84405636D01*
X172814698Y-84286564D01*
X172713436Y-84185302D01*
X172594364Y-84105741D01*
X172462058Y-84050938D01*
X172321603Y-84023000D01*
X172178397Y-84023000D01*
X172164907Y-84025683D01*
X170952000Y-82812777D01*
X170952000Y-76322339D01*
X170963436Y-76314698D01*
X171064698Y-76213436D01*
X171144259Y-76094364D01*
X171199062Y-75962058D01*
X171227000Y-75821603D01*
X171227000Y-75678397D01*
X171199062Y-75537942D01*
X171144259Y-75405636D01*
X171064698Y-75286564D01*
X170963436Y-75185302D01*
X170844364Y-75105741D01*
X170712058Y-75050938D01*
X170571603Y-75023000D01*
X170428397Y-75023000D01*
X170287942Y-75050938D01*
X170155636Y-75105741D01*
X170036564Y-75185302D01*
X169935302Y-75286564D01*
X169855741Y-75405636D01*
X169800938Y-75537942D01*
X169773000Y-75678397D01*
X169773000Y-75773000D01*
X169678397Y-75773000D01*
X169537942Y-75800938D01*
X169452000Y-75836536D01*
X169452000Y-74072339D01*
X169463436Y-74064698D01*
X169564698Y-73963436D01*
X169644259Y-73844364D01*
X169699062Y-73712058D01*
X169727000Y-73571603D01*
X169727000Y-73428397D01*
X169699062Y-73287942D01*
X169644259Y-73155636D01*
X169564698Y-73036564D01*
X169463436Y-72935302D01*
X169344364Y-72855741D01*
X169212058Y-72800938D01*
X169071603Y-72773000D01*
X168928397Y-72773000D01*
X168787942Y-72800938D01*
X168655636Y-72855741D01*
X168536564Y-72935302D01*
X168435302Y-73036564D01*
X168355741Y-73155636D01*
X168300938Y-73287942D01*
X168273000Y-73428397D01*
X168273000Y-73571603D01*
X168300938Y-73712058D01*
X168355741Y-73844364D01*
X168435302Y-73963436D01*
X168536564Y-74064698D01*
X168548001Y-74072340D01*
X168548000Y-79562776D01*
X166254235Y-81856541D01*
X166240745Y-81853858D01*
X166097539Y-81853858D01*
X165957084Y-81881796D01*
X165824778Y-81936599D01*
X165705706Y-82016160D01*
X165604444Y-82117422D01*
X165524883Y-82236494D01*
X165470080Y-82368800D01*
X165442142Y-82509255D01*
X160452050Y-82509255D01*
X160452050Y-77413484D01*
X160537942Y-77449062D01*
X160678397Y-77477000D01*
X160821603Y-77477000D01*
X160962058Y-77449062D01*
X161094364Y-77394259D01*
X161213436Y-77314698D01*
X161314698Y-77213436D01*
X161394259Y-77094364D01*
X161449062Y-76962058D01*
X161477000Y-76821603D01*
X161477000Y-76678397D01*
X161449062Y-76537942D01*
X161394259Y-76405636D01*
X161314698Y-76286564D01*
X161213436Y-76185302D01*
X161094364Y-76105741D01*
X160962058Y-76050938D01*
X160952000Y-76048937D01*
X160952000Y-75687223D01*
X161803905Y-74835319D01*
X161821159Y-74821159D01*
X161877643Y-74752333D01*
X161919614Y-74673810D01*
X161935268Y-74622205D01*
X161945460Y-74588608D01*
X161954187Y-74500000D01*
X161952000Y-74477795D01*
X161952000Y-72822339D01*
X161963436Y-72814698D01*
X162064698Y-72713436D01*
X162144259Y-72594364D01*
X162199062Y-72462058D01*
X162227000Y-72321603D01*
X162227000Y-72178397D01*
X162199062Y-72037942D01*
X162144259Y-71905636D01*
X162064698Y-71786564D01*
X161980134Y-71702000D01*
X164628462Y-71702000D01*
X166449164Y-73522702D01*
X166435302Y-73536564D01*
X166355741Y-73655636D01*
X166300938Y-73787942D01*
X166273000Y-73928397D01*
X166273000Y-74071603D01*
X166300938Y-74212058D01*
X166355741Y-74344364D01*
X166435302Y-74463436D01*
X166536564Y-74564698D01*
X166655636Y-74644259D01*
X166787942Y-74699062D01*
X166928397Y-74727000D01*
X167071603Y-74727000D01*
X167212058Y-74699062D01*
X167344364Y-74644259D01*
X167463436Y-74564698D01*
X167564698Y-74463436D01*
X167644259Y-74344364D01*
X167699062Y-74212058D01*
X167727000Y-74071603D01*
X167727000Y-73928397D01*
X167699062Y-73787942D01*
X167644259Y-73655636D01*
X167564698Y-73536564D01*
X167463436Y-73435302D01*
X167453640Y-73428756D01*
X167445460Y-73345707D01*
X167419614Y-73260505D01*
X167386772Y-73199062D01*
X167377643Y-73181982D01*
X167321159Y-73113156D01*
X167303906Y-73098997D01*
X165151008Y-70946100D01*
X165136844Y-70928841D01*
X165068018Y-70872357D01*
X164989495Y-70830386D01*
X164904292Y-70804540D01*
X164837890Y-70798000D01*
X164815685Y-70795813D01*
X164793480Y-70798000D01*
X161322339Y-70798000D01*
X161314698Y-70786564D01*
X161213436Y-70685302D01*
X161094364Y-70605741D01*
X160962058Y-70550938D01*
X160821603Y-70523000D01*
X160678397Y-70523000D01*
X160537942Y-70550938D01*
X160405636Y-70605741D01*
X160286564Y-70685302D01*
X160185302Y-70786564D01*
X160105741Y-70905636D01*
X160050938Y-71037942D01*
X160023000Y-71178397D01*
X160023000Y-71321603D01*
X160050938Y-71462058D01*
X160105741Y-71594364D01*
X160185302Y-71713436D01*
X160286564Y-71814698D01*
X160405636Y-71894259D01*
X160537942Y-71949062D01*
X160678397Y-71977000D01*
X160821603Y-71977000D01*
X160826592Y-71976008D01*
X160800938Y-72037942D01*
X160773000Y-72178397D01*
X160773000Y-72321603D01*
X160800938Y-72462058D01*
X160855741Y-72594364D01*
X160935302Y-72713436D01*
X161036564Y-72814698D01*
X161048000Y-72822339D01*
X161048001Y-74312775D01*
X160452050Y-74908727D01*
X160452050Y-74422255D01*
X160454237Y-74400050D01*
X160445510Y-74311442D01*
X160419664Y-74226240D01*
X160417590Y-74222359D01*
X160377693Y-74147717D01*
X160321209Y-74078891D01*
X160303955Y-74064731D01*
X154435323Y-68196100D01*
X154421159Y-68178841D01*
X154352333Y-68122357D01*
X154273810Y-68080386D01*
X154188607Y-68054540D01*
X154178582Y-68053553D01*
X154178582Y-67650000D01*
X154172268Y-67585897D01*
X154153570Y-67524257D01*
X154123206Y-67467450D01*
X154082343Y-67417657D01*
X154032550Y-67376794D01*
X153975743Y-67346430D01*
X153914103Y-67327732D01*
X153850000Y-67321418D01*
X152150000Y-67321418D01*
X152085897Y-67327732D01*
X152024257Y-67346430D01*
X151967450Y-67376794D01*
X151917657Y-67417657D01*
X151876794Y-67467450D01*
X151846430Y-67524257D01*
X151827732Y-67585897D01*
X151821418Y-67650000D01*
X151821418Y-69350000D01*
X151827732Y-69414103D01*
X151846430Y-69475743D01*
X151876794Y-69532550D01*
X151917657Y-69582343D01*
X151967450Y-69623206D01*
X152024257Y-69653570D01*
X152085897Y-69672268D01*
X152150000Y-69678582D01*
X153850000Y-69678582D01*
X153914103Y-69672268D01*
X153975743Y-69653570D01*
X154032550Y-69623206D01*
X154082343Y-69582343D01*
X154123206Y-69532550D01*
X154153570Y-69475743D01*
X154172268Y-69414103D01*
X154178582Y-69350000D01*
X154178582Y-69217805D01*
X159548051Y-74587275D01*
X159548051Y-76948826D01*
X154092372Y-71493149D01*
X154092667Y-71492597D01*
X154159969Y-71270732D01*
X154182694Y-71040000D01*
X154159969Y-70809268D01*
X154092667Y-70587403D01*
X153983374Y-70382930D01*
X153836291Y-70203709D01*
X153657070Y-70056626D01*
X153452597Y-69947333D01*
X153230732Y-69880031D01*
X153057812Y-69863000D01*
X152942188Y-69863000D01*
X152769268Y-69880031D01*
X152547403Y-69947333D01*
X152342930Y-70056626D01*
X152163709Y-70203709D01*
X152016626Y-70382930D01*
X151907333Y-70587403D01*
X151840031Y-70809268D01*
X151817306Y-71040000D01*
X151840031Y-71270732D01*
X151907333Y-71492597D01*
X152016626Y-71697070D01*
X152163709Y-71876291D01*
X152342930Y-72023374D01*
X152547403Y-72132667D01*
X152769268Y-72199969D01*
X152942188Y-72217000D01*
X153057812Y-72217000D01*
X153230732Y-72199969D01*
X153452597Y-72132667D01*
X153453149Y-72132372D01*
X159098040Y-77777265D01*
X159098040Y-79038816D01*
X154185321Y-74126098D01*
X154185312Y-74126087D01*
X154092373Y-74033148D01*
X154092667Y-74032597D01*
X154159969Y-73810732D01*
X154182694Y-73580000D01*
X154159969Y-73349268D01*
X154092667Y-73127403D01*
X153983374Y-72922930D01*
X153836291Y-72743709D01*
X153657070Y-72596626D01*
X153452597Y-72487333D01*
X153230732Y-72420031D01*
X153057812Y-72403000D01*
X152942188Y-72403000D01*
X152769268Y-72420031D01*
X152547403Y-72487333D01*
X152342930Y-72596626D01*
X152163709Y-72743709D01*
X152016626Y-72922930D01*
X151907333Y-73127403D01*
X151840031Y-73349268D01*
X151817306Y-73580000D01*
X151840031Y-73810732D01*
X151907333Y-74032597D01*
X152016626Y-74237070D01*
X152163709Y-74416291D01*
X152342930Y-74563374D01*
X152547403Y-74672667D01*
X152769268Y-74739969D01*
X152942188Y-74757000D01*
X153057812Y-74757000D01*
X153230732Y-74739969D01*
X153452597Y-74672667D01*
X153453148Y-74672373D01*
X153546087Y-74765312D01*
X153546098Y-74765321D01*
X158648031Y-79867255D01*
X158648031Y-81128807D01*
X154092372Y-76573149D01*
X154092667Y-76572597D01*
X154159969Y-76350732D01*
X154182694Y-76120000D01*
X154159969Y-75889268D01*
X154092667Y-75667403D01*
X153983374Y-75462930D01*
X153836291Y-75283709D01*
X153657070Y-75136626D01*
X153452597Y-75027333D01*
X153230732Y-74960031D01*
X153057812Y-74943000D01*
X152942188Y-74943000D01*
X152769268Y-74960031D01*
X152547403Y-75027333D01*
X152342930Y-75136626D01*
X152163709Y-75283709D01*
X152016626Y-75462930D01*
X151907333Y-75667403D01*
X151840031Y-75889268D01*
X151817306Y-76120000D01*
X151840031Y-76350732D01*
X151907333Y-76572597D01*
X152016626Y-76777070D01*
X152163709Y-76956291D01*
X152342930Y-77103374D01*
X152547403Y-77212667D01*
X152769268Y-77279969D01*
X152942188Y-77297000D01*
X153057812Y-77297000D01*
X153230732Y-77279969D01*
X153452597Y-77212667D01*
X153453149Y-77212372D01*
X158198021Y-81957245D01*
X158198021Y-83218797D01*
X154185321Y-79206098D01*
X154185312Y-79206087D01*
X154092373Y-79113148D01*
X154092667Y-79112597D01*
X154159969Y-78890732D01*
X154182694Y-78660000D01*
X154159969Y-78429268D01*
X154092667Y-78207403D01*
X153983374Y-78002930D01*
X153836291Y-77823709D01*
X153657070Y-77676626D01*
X153452597Y-77567333D01*
X153230732Y-77500031D01*
X153057812Y-77483000D01*
X152942188Y-77483000D01*
X152769268Y-77500031D01*
X152547403Y-77567333D01*
X152342930Y-77676626D01*
X152163709Y-77823709D01*
X152016626Y-78002930D01*
X151907333Y-78207403D01*
X151840031Y-78429268D01*
X151817306Y-78660000D01*
X151840031Y-78890732D01*
X151907333Y-79112597D01*
X152016626Y-79317070D01*
X152163709Y-79496291D01*
X152342930Y-79643374D01*
X152547403Y-79752667D01*
X152769268Y-79819969D01*
X152942188Y-79837000D01*
X153057812Y-79837000D01*
X153230732Y-79819969D01*
X153452597Y-79752667D01*
X153453148Y-79752373D01*
X153546087Y-79845312D01*
X153546098Y-79845321D01*
X157748011Y-84047235D01*
X157748011Y-86510867D01*
X153502914Y-82265772D01*
X153657070Y-82183374D01*
X153836291Y-82036291D01*
X153983374Y-81857070D01*
X154092667Y-81652597D01*
X154159969Y-81430732D01*
X154182694Y-81200000D01*
X154159969Y-80969268D01*
X154092667Y-80747403D01*
X153983374Y-80542930D01*
X153836291Y-80363709D01*
X153657070Y-80216626D01*
X153452597Y-80107333D01*
X153230732Y-80040031D01*
X153057812Y-80023000D01*
X152942188Y-80023000D01*
X152769268Y-80040031D01*
X152547403Y-80107333D01*
X152342930Y-80216626D01*
X152163709Y-80363709D01*
X152016626Y-80542930D01*
X151907333Y-80747403D01*
X151840031Y-80969268D01*
X151817306Y-81200000D01*
X151840031Y-81430732D01*
X151907333Y-81652597D01*
X152016626Y-81857070D01*
X152163709Y-82036291D01*
X152342930Y-82183374D01*
X152547403Y-82292667D01*
X152548001Y-82292848D01*
X152548001Y-82379866D01*
X152545813Y-82402081D01*
X152554540Y-82490688D01*
X152580386Y-82575890D01*
X152584858Y-82584256D01*
X152622358Y-82654414D01*
X152678842Y-82723240D01*
X152696096Y-82737400D01*
X157298000Y-87339306D01*
X157298000Y-93499774D01*
X153747437Y-89949212D01*
X153836291Y-89876291D01*
X153983374Y-89697070D01*
X154092667Y-89492597D01*
X154159969Y-89270732D01*
X154182694Y-89040000D01*
X154159969Y-88809268D01*
X154092667Y-88587403D01*
X153983374Y-88382930D01*
X153836291Y-88203709D01*
X153657070Y-88056626D01*
X153452597Y-87947333D01*
X153230732Y-87880031D01*
X153057812Y-87863000D01*
X152942188Y-87863000D01*
X152769268Y-87880031D01*
X152547403Y-87947333D01*
X152342930Y-88056626D01*
X152163709Y-88203709D01*
X152016626Y-88382930D01*
X151907333Y-88587403D01*
X151840031Y-88809268D01*
X151817306Y-89040000D01*
X151840031Y-89270732D01*
X151907333Y-89492597D01*
X152016626Y-89697070D01*
X152163709Y-89876291D01*
X152342930Y-90023374D01*
X152547403Y-90132667D01*
X152698185Y-90178406D01*
X152924519Y-90404740D01*
X152769268Y-90420031D01*
X152547403Y-90487333D01*
X152342930Y-90596626D01*
X152163709Y-90743709D01*
X152016626Y-90922930D01*
X151907333Y-91127403D01*
X151840031Y-91349268D01*
X151817306Y-91580000D01*
X151840031Y-91810732D01*
X151907333Y-92032597D01*
X152016626Y-92237070D01*
X152163709Y-92416291D01*
X152342930Y-92563374D01*
X152547403Y-92672667D01*
X152769268Y-92739969D01*
X152942188Y-92757000D01*
X153057812Y-92757000D01*
X153230732Y-92739969D01*
X153452597Y-92672667D01*
X153657070Y-92563374D01*
X153836291Y-92416291D01*
X153983374Y-92237070D01*
X154092667Y-92032597D01*
X154159969Y-91810732D01*
X154175260Y-91655481D01*
X156798000Y-94278222D01*
X156798001Y-106373000D01*
X151127000Y-106373000D01*
X151127000Y-104280000D01*
X151817306Y-104280000D01*
X151840031Y-104510732D01*
X151907333Y-104732597D01*
X152016626Y-104937070D01*
X152163709Y-105116291D01*
X152342930Y-105263374D01*
X152547403Y-105372667D01*
X152769268Y-105439969D01*
X152942188Y-105457000D01*
X153057812Y-105457000D01*
X153230732Y-105439969D01*
X153452597Y-105372667D01*
X153657070Y-105263374D01*
X153836291Y-105116291D01*
X153983374Y-104937070D01*
X154092667Y-104732597D01*
X154159969Y-104510732D01*
X154182694Y-104280000D01*
X154159969Y-104049268D01*
X154092667Y-103827403D01*
X153983374Y-103622930D01*
X153836291Y-103443709D01*
X153657070Y-103296626D01*
X153452597Y-103187333D01*
X153230732Y-103120031D01*
X153057812Y-103103000D01*
X152942188Y-103103000D01*
X152769268Y-103120031D01*
X152547403Y-103187333D01*
X152342930Y-103296626D01*
X152163709Y-103443709D01*
X152016626Y-103622930D01*
X151907333Y-103827403D01*
X151840031Y-104049268D01*
X151817306Y-104280000D01*
X151127000Y-104280000D01*
X151127000Y-101740000D01*
X151817306Y-101740000D01*
X151840031Y-101970732D01*
X151907333Y-102192597D01*
X152016626Y-102397070D01*
X152163709Y-102576291D01*
X152342930Y-102723374D01*
X152547403Y-102832667D01*
X152769268Y-102899969D01*
X152942188Y-102917000D01*
X153057812Y-102917000D01*
X153230732Y-102899969D01*
X153452597Y-102832667D01*
X153657070Y-102723374D01*
X153836291Y-102576291D01*
X153983374Y-102397070D01*
X154092667Y-102192597D01*
X154159969Y-101970732D01*
X154182694Y-101740000D01*
X154159969Y-101509268D01*
X154092667Y-101287403D01*
X153983374Y-101082930D01*
X153836291Y-100903709D01*
X153657070Y-100756626D01*
X153452597Y-100647333D01*
X153230732Y-100580031D01*
X153057812Y-100563000D01*
X152942188Y-100563000D01*
X152769268Y-100580031D01*
X152547403Y-100647333D01*
X152342930Y-100756626D01*
X152163709Y-100903709D01*
X152016626Y-101082930D01*
X151907333Y-101287403D01*
X151840031Y-101509268D01*
X151817306Y-101740000D01*
X151127000Y-101740000D01*
X151127000Y-99200000D01*
X151817306Y-99200000D01*
X151840031Y-99430732D01*
X151907333Y-99652597D01*
X152016626Y-99857070D01*
X152163709Y-100036291D01*
X152342930Y-100183374D01*
X152547403Y-100292667D01*
X152769268Y-100359969D01*
X152942188Y-100377000D01*
X153057812Y-100377000D01*
X153230732Y-100359969D01*
X153452597Y-100292667D01*
X153657070Y-100183374D01*
X153836291Y-100036291D01*
X153983374Y-99857070D01*
X154092667Y-99652597D01*
X154159969Y-99430732D01*
X154182694Y-99200000D01*
X154159969Y-98969268D01*
X154092667Y-98747403D01*
X153983374Y-98542930D01*
X153836291Y-98363709D01*
X153657070Y-98216626D01*
X153452597Y-98107333D01*
X153230732Y-98040031D01*
X153057812Y-98023000D01*
X152942188Y-98023000D01*
X152769268Y-98040031D01*
X152547403Y-98107333D01*
X152342930Y-98216626D01*
X152163709Y-98363709D01*
X152016626Y-98542930D01*
X151907333Y-98747403D01*
X151840031Y-98969268D01*
X151817306Y-99200000D01*
X151127000Y-99200000D01*
X151127000Y-96660000D01*
X151817306Y-96660000D01*
X151840031Y-96890732D01*
X151907333Y-97112597D01*
X152016626Y-97317070D01*
X152163709Y-97496291D01*
X152342930Y-97643374D01*
X152547403Y-97752667D01*
X152769268Y-97819969D01*
X152942188Y-97837000D01*
X153057812Y-97837000D01*
X153230732Y-97819969D01*
X153452597Y-97752667D01*
X153657070Y-97643374D01*
X153836291Y-97496291D01*
X153983374Y-97317070D01*
X154092667Y-97112597D01*
X154159969Y-96890732D01*
X154182694Y-96660000D01*
X154159969Y-96429268D01*
X154092667Y-96207403D01*
X153983374Y-96002930D01*
X153836291Y-95823709D01*
X153657070Y-95676626D01*
X153452597Y-95567333D01*
X153230732Y-95500031D01*
X153057812Y-95483000D01*
X152942188Y-95483000D01*
X152769268Y-95500031D01*
X152547403Y-95567333D01*
X152342930Y-95676626D01*
X152163709Y-95823709D01*
X152016626Y-96002930D01*
X151907333Y-96207403D01*
X151840031Y-96429268D01*
X151817306Y-96660000D01*
X151127000Y-96660000D01*
X151127000Y-94120000D01*
X151817306Y-94120000D01*
X151840031Y-94350732D01*
X151907333Y-94572597D01*
X152016626Y-94777070D01*
X152163709Y-94956291D01*
X152342930Y-95103374D01*
X152547403Y-95212667D01*
X152769268Y-95279969D01*
X152942188Y-95297000D01*
X153057812Y-95297000D01*
X153230732Y-95279969D01*
X153452597Y-95212667D01*
X153657070Y-95103374D01*
X153836291Y-94956291D01*
X153983374Y-94777070D01*
X154092667Y-94572597D01*
X154159969Y-94350732D01*
X154182694Y-94120000D01*
X154159969Y-93889268D01*
X154092667Y-93667403D01*
X153983374Y-93462930D01*
X153836291Y-93283709D01*
X153657070Y-93136626D01*
X153452597Y-93027333D01*
X153230732Y-92960031D01*
X153057812Y-92943000D01*
X152942188Y-92943000D01*
X152769268Y-92960031D01*
X152547403Y-93027333D01*
X152342930Y-93136626D01*
X152163709Y-93283709D01*
X152016626Y-93462930D01*
X151907333Y-93667403D01*
X151840031Y-93889268D01*
X151817306Y-94120000D01*
X151127000Y-94120000D01*
X151127000Y-63280000D01*
X151817306Y-63280000D01*
X151840031Y-63510732D01*
X151907333Y-63732597D01*
X152016626Y-63937070D01*
X152163709Y-64116291D01*
X152342930Y-64263374D01*
X152547403Y-64372667D01*
X152769268Y-64439969D01*
X152942188Y-64457000D01*
X153057812Y-64457000D01*
X153230732Y-64439969D01*
X153452597Y-64372667D01*
X153657070Y-64263374D01*
X153836291Y-64116291D01*
X153983374Y-63937070D01*
X154092667Y-63732597D01*
X154159969Y-63510732D01*
X154182694Y-63280000D01*
X154159969Y-63049268D01*
X154092667Y-62827403D01*
X153983374Y-62622930D01*
X153836291Y-62443709D01*
X153657070Y-62296626D01*
X153452597Y-62187333D01*
X153230732Y-62120031D01*
X153057812Y-62103000D01*
X152942188Y-62103000D01*
X152769268Y-62120031D01*
X152547403Y-62187333D01*
X152342930Y-62296626D01*
X152163709Y-62443709D01*
X152016626Y-62622930D01*
X151907333Y-62827403D01*
X151840031Y-63049268D01*
X151817306Y-63280000D01*
X151127000Y-63280000D01*
X151127000Y-60740000D01*
X151817306Y-60740000D01*
X151840031Y-60970732D01*
X151907333Y-61192597D01*
X152016626Y-61397070D01*
X152163709Y-61576291D01*
X152342930Y-61723374D01*
X152547403Y-61832667D01*
X152769268Y-61899969D01*
X152942188Y-61917000D01*
X153057812Y-61917000D01*
X153230732Y-61899969D01*
X153452597Y-61832667D01*
X153657070Y-61723374D01*
X153836291Y-61576291D01*
X153983374Y-61397070D01*
X154092667Y-61192597D01*
X154159969Y-60970732D01*
X154182694Y-60740000D01*
X154159969Y-60509268D01*
X154092667Y-60287403D01*
X153983374Y-60082930D01*
X153836291Y-59903709D01*
X153657070Y-59756626D01*
X153452597Y-59647333D01*
X153230732Y-59580031D01*
X153057812Y-59563000D01*
X152942188Y-59563000D01*
X152769268Y-59580031D01*
X152547403Y-59647333D01*
X152342930Y-59756626D01*
X152163709Y-59903709D01*
X152016626Y-60082930D01*
X151907333Y-60287403D01*
X151840031Y-60509268D01*
X151817306Y-60740000D01*
X151127000Y-60740000D01*
X151127000Y-58200000D01*
X151817306Y-58200000D01*
X151840031Y-58430732D01*
X151907333Y-58652597D01*
X152016626Y-58857070D01*
X152163709Y-59036291D01*
X152342930Y-59183374D01*
X152547403Y-59292667D01*
X152769268Y-59359969D01*
X152942188Y-59377000D01*
X153057812Y-59377000D01*
X153230732Y-59359969D01*
X153452597Y-59292667D01*
X153657070Y-59183374D01*
X153836291Y-59036291D01*
X153983374Y-58857070D01*
X154092667Y-58652597D01*
X154159969Y-58430732D01*
X154182694Y-58200000D01*
X154159969Y-57969268D01*
X154092667Y-57747403D01*
X153983374Y-57542930D01*
X153836291Y-57363709D01*
X153657070Y-57216626D01*
X153452597Y-57107333D01*
X153230732Y-57040031D01*
X153057812Y-57023000D01*
X152942188Y-57023000D01*
X152769268Y-57040031D01*
X152547403Y-57107333D01*
X152342930Y-57216626D01*
X152163709Y-57363709D01*
X152016626Y-57542930D01*
X151907333Y-57747403D01*
X151840031Y-57969268D01*
X151817306Y-58200000D01*
X151127000Y-58200000D01*
X151127000Y-55660000D01*
X151817306Y-55660000D01*
X151840031Y-55890732D01*
X151907333Y-56112597D01*
X152016626Y-56317070D01*
X152163709Y-56496291D01*
X152342930Y-56643374D01*
X152547403Y-56752667D01*
X152769268Y-56819969D01*
X152942188Y-56837000D01*
X153057812Y-56837000D01*
X153230732Y-56819969D01*
X153452597Y-56752667D01*
X153657070Y-56643374D01*
X153836291Y-56496291D01*
X153983374Y-56317070D01*
X154092667Y-56112597D01*
X154159969Y-55890732D01*
X154182694Y-55660000D01*
X154159969Y-55429268D01*
X154092667Y-55207403D01*
X153983374Y-55002930D01*
X153836291Y-54823709D01*
X153657070Y-54676626D01*
X153452597Y-54567333D01*
X153230732Y-54500031D01*
X153057812Y-54483000D01*
X152942188Y-54483000D01*
X152769268Y-54500031D01*
X152547403Y-54567333D01*
X152342930Y-54676626D01*
X152163709Y-54823709D01*
X152016626Y-55002930D01*
X151907333Y-55207403D01*
X151840031Y-55429268D01*
X151817306Y-55660000D01*
X151127000Y-55660000D01*
X151127000Y-53120000D01*
X151817306Y-53120000D01*
X151840031Y-53350732D01*
X151907333Y-53572597D01*
X152016626Y-53777070D01*
X152163709Y-53956291D01*
X152342930Y-54103374D01*
X152547403Y-54212667D01*
X152769268Y-54279969D01*
X152942188Y-54297000D01*
X153057812Y-54297000D01*
X153230732Y-54279969D01*
X153452597Y-54212667D01*
X153657070Y-54103374D01*
X153836291Y-53956291D01*
X153983374Y-53777070D01*
X154092667Y-53572597D01*
X154159969Y-53350732D01*
X154182694Y-53120000D01*
X154159969Y-52889268D01*
X154092667Y-52667403D01*
X153983374Y-52462930D01*
X153836291Y-52283709D01*
X153657070Y-52136626D01*
X153452597Y-52027333D01*
X153230732Y-51960031D01*
X153057812Y-51943000D01*
X152942188Y-51943000D01*
X152769268Y-51960031D01*
X152547403Y-52027333D01*
X152342930Y-52136626D01*
X152163709Y-52283709D01*
X152016626Y-52462930D01*
X151907333Y-52667403D01*
X151840031Y-52889268D01*
X151817306Y-53120000D01*
X151127000Y-53120000D01*
X151127000Y-50580000D01*
X151817306Y-50580000D01*
X151840031Y-50810732D01*
X151907333Y-51032597D01*
X152016626Y-51237070D01*
X152163709Y-51416291D01*
X152342930Y-51563374D01*
X152547403Y-51672667D01*
X152769268Y-51739969D01*
X152942188Y-51757000D01*
X153057812Y-51757000D01*
X153230732Y-51739969D01*
X153452597Y-51672667D01*
X153657070Y-51563374D01*
X153836291Y-51416291D01*
X153983374Y-51237070D01*
X154092667Y-51032597D01*
X154159969Y-50810732D01*
X154182694Y-50580000D01*
X154159969Y-50349268D01*
X154092667Y-50127403D01*
X153983374Y-49922930D01*
X153836291Y-49743709D01*
X153657070Y-49596626D01*
X153452597Y-49487333D01*
X153230732Y-49420031D01*
X153057812Y-49403000D01*
X152942188Y-49403000D01*
X152769268Y-49420031D01*
X152547403Y-49487333D01*
X152342930Y-49596626D01*
X152163709Y-49743709D01*
X152016626Y-49922930D01*
X151907333Y-50127403D01*
X151840031Y-50349268D01*
X151817306Y-50580000D01*
X151127000Y-50580000D01*
X151127000Y-35627000D01*
X192374875Y-35627000D01*
X192355741Y-35655636D01*
G36*
X187873000Y-46481491D02*
G01*
X187296080Y-47058411D01*
X187278821Y-47072575D01*
X187222338Y-47141401D01*
X187180366Y-47219925D01*
X187154520Y-47305127D01*
X187145793Y-47393734D01*
X187147980Y-47415939D01*
X187147981Y-101212795D01*
X181696100Y-106664677D01*
X181678841Y-106678841D01*
X181624731Y-106744775D01*
X181622358Y-106747667D01*
X181614926Y-106761571D01*
X175127000Y-106761571D01*
X175127000Y-84622452D01*
X175213436Y-84564698D01*
X175314698Y-84463436D01*
X175394259Y-84344364D01*
X175449062Y-84212058D01*
X175477000Y-84071603D01*
X175477000Y-83928397D01*
X175449062Y-83787942D01*
X175394259Y-83655636D01*
X175314698Y-83536564D01*
X175213436Y-83435302D01*
X175202000Y-83427661D01*
X175202000Y-81428397D01*
X177273000Y-81428397D01*
X177273000Y-81571603D01*
X177300938Y-81712058D01*
X177355741Y-81844364D01*
X177435302Y-81963436D01*
X177536564Y-82064698D01*
X177655636Y-82144259D01*
X177787942Y-82199062D01*
X177928397Y-82227000D01*
X178071603Y-82227000D01*
X178085093Y-82224317D01*
X179800989Y-83940213D01*
X179798306Y-83953703D01*
X179798306Y-84096909D01*
X179826244Y-84237364D01*
X179881047Y-84369670D01*
X179960608Y-84488742D01*
X180061870Y-84590004D01*
X180180942Y-84669565D01*
X180313248Y-84724368D01*
X180453703Y-84752306D01*
X180596909Y-84752306D01*
X180737364Y-84724368D01*
X180869670Y-84669565D01*
X180988742Y-84590004D01*
X181090004Y-84488742D01*
X181169565Y-84369670D01*
X181224368Y-84237364D01*
X181252306Y-84096909D01*
X181252306Y-83953703D01*
X181224368Y-83813248D01*
X181169565Y-83680942D01*
X181090004Y-83561870D01*
X180988742Y-83460608D01*
X180869670Y-83381047D01*
X180737364Y-83326244D01*
X180596909Y-83298306D01*
X180453703Y-83298306D01*
X180440213Y-83300989D01*
X178724317Y-81585093D01*
X178727000Y-81571603D01*
X178727000Y-81428397D01*
X178699062Y-81287942D01*
X178653687Y-81178397D01*
X178773000Y-81178397D01*
X178773000Y-81321603D01*
X178800938Y-81462058D01*
X178855741Y-81594364D01*
X178935302Y-81713436D01*
X179036564Y-81814698D01*
X179155636Y-81894259D01*
X179287942Y-81949062D01*
X179428397Y-81977000D01*
X179571603Y-81977000D01*
X179585093Y-81974317D01*
X180308154Y-82697378D01*
X180313591Y-82724711D01*
X180368394Y-82857017D01*
X180447955Y-82976089D01*
X180549217Y-83077351D01*
X180668289Y-83156912D01*
X180800595Y-83211715D01*
X180941050Y-83239653D01*
X181084256Y-83239653D01*
X181224711Y-83211715D01*
X181357017Y-83156912D01*
X181476089Y-83077351D01*
X181577351Y-82976089D01*
X181656912Y-82857017D01*
X181711715Y-82724711D01*
X181739653Y-82584256D01*
X181739653Y-82441050D01*
X181711715Y-82300595D01*
X181656912Y-82168289D01*
X181577351Y-82049217D01*
X181476089Y-81947955D01*
X181357017Y-81868394D01*
X181224711Y-81813591D01*
X181084256Y-81785653D01*
X180941050Y-81785653D01*
X180800595Y-81813591D01*
X180731454Y-81842230D01*
X180224317Y-81335093D01*
X180227000Y-81321603D01*
X180227000Y-81178397D01*
X180199062Y-81037942D01*
X180144259Y-80905636D01*
X180064698Y-80786564D01*
X179963436Y-80685302D01*
X179844364Y-80605741D01*
X179712058Y-80550938D01*
X179571603Y-80523000D01*
X179428397Y-80523000D01*
X179287942Y-80550938D01*
X179155636Y-80605741D01*
X179036564Y-80685302D01*
X178935302Y-80786564D01*
X178855741Y-80905636D01*
X178800938Y-81037942D01*
X178773000Y-81178397D01*
X178653687Y-81178397D01*
X178644259Y-81155636D01*
X178564698Y-81036564D01*
X178463436Y-80935302D01*
X178344364Y-80855741D01*
X178212058Y-80800938D01*
X178071603Y-80773000D01*
X177928397Y-80773000D01*
X177787942Y-80800938D01*
X177655636Y-80855741D01*
X177536564Y-80935302D01*
X177435302Y-81036564D01*
X177355741Y-81155636D01*
X177300938Y-81287942D01*
X177273000Y-81428397D01*
X175202000Y-81428397D01*
X175202000Y-75663464D01*
X175287942Y-75699062D01*
X175428397Y-75727000D01*
X175571603Y-75727000D01*
X175712058Y-75699062D01*
X175844364Y-75644259D01*
X175963436Y-75564698D01*
X176064698Y-75463436D01*
X176125000Y-75373187D01*
X176185302Y-75463436D01*
X176286564Y-75564698D01*
X176405636Y-75644259D01*
X176537942Y-75699062D01*
X176678397Y-75727000D01*
X176821603Y-75727000D01*
X176962058Y-75699062D01*
X177094364Y-75644259D01*
X177213436Y-75564698D01*
X177305372Y-75472762D01*
X177355741Y-75594364D01*
X177435302Y-75713436D01*
X177536564Y-75814698D01*
X177655636Y-75894259D01*
X177787942Y-75949062D01*
X177928397Y-75977000D01*
X178071603Y-75977000D01*
X178212058Y-75949062D01*
X178344364Y-75894259D01*
X178463436Y-75814698D01*
X178564698Y-75713436D01*
X178644259Y-75594364D01*
X178699062Y-75462058D01*
X178727000Y-75321603D01*
X178727000Y-75178397D01*
X178699062Y-75037942D01*
X178644259Y-74905636D01*
X178564698Y-74786564D01*
X178463436Y-74685302D01*
X178452000Y-74677661D01*
X178452000Y-70822339D01*
X178463436Y-70814698D01*
X178564698Y-70713436D01*
X178644259Y-70594364D01*
X178699062Y-70462058D01*
X178727000Y-70321603D01*
X178727000Y-70178397D01*
X178699062Y-70037942D01*
X178644259Y-69905636D01*
X178564698Y-69786564D01*
X178463436Y-69685302D01*
X178344364Y-69605741D01*
X178212058Y-69550938D01*
X178071603Y-69523000D01*
X177928397Y-69523000D01*
X177787942Y-69550938D01*
X177655636Y-69605741D01*
X177536564Y-69685302D01*
X177435302Y-69786564D01*
X177355741Y-69905636D01*
X177300938Y-70037942D01*
X177273000Y-70178397D01*
X177273000Y-70321603D01*
X177300938Y-70462058D01*
X177355741Y-70594364D01*
X177435302Y-70713436D01*
X177536564Y-70814698D01*
X177548001Y-70822340D01*
X177548001Y-71269867D01*
X177450783Y-71172649D01*
X177331711Y-71093088D01*
X177199405Y-71038285D01*
X177058950Y-71010347D01*
X176915744Y-71010347D01*
X176775289Y-71038285D01*
X176642983Y-71093088D01*
X176523911Y-71172649D01*
X176422649Y-71273911D01*
X176343088Y-71392983D01*
X176288285Y-71525289D01*
X176260347Y-71665744D01*
X176260347Y-71808950D01*
X176288285Y-71949405D01*
X176343088Y-72081711D01*
X176422649Y-72200783D01*
X176523911Y-72302045D01*
X176642983Y-72381606D01*
X176698000Y-72404395D01*
X176698000Y-72924988D01*
X176594364Y-72855741D01*
X176462058Y-72800938D01*
X176321603Y-72773000D01*
X176178397Y-72773000D01*
X176037942Y-72800938D01*
X175905636Y-72855741D01*
X175786564Y-72935302D01*
X175685302Y-73036564D01*
X175605741Y-73155636D01*
X175550938Y-73287942D01*
X175523000Y-73428397D01*
X175523000Y-73571603D01*
X175525683Y-73585093D01*
X175202000Y-73908777D01*
X175202000Y-62187223D01*
X178664908Y-58724317D01*
X178678397Y-58727000D01*
X178821603Y-58727000D01*
X178962058Y-58699062D01*
X179094364Y-58644259D01*
X179213436Y-58564698D01*
X179314698Y-58463436D01*
X179394259Y-58344364D01*
X179449062Y-58212058D01*
X179477000Y-58071603D01*
X179477000Y-57928397D01*
X179449062Y-57787942D01*
X179394259Y-57655636D01*
X179314698Y-57536564D01*
X179213436Y-57435302D01*
X179094364Y-57355741D01*
X178962058Y-57300938D01*
X178821603Y-57273000D01*
X178678397Y-57273000D01*
X178537942Y-57300938D01*
X178405636Y-57355741D01*
X178286564Y-57435302D01*
X178185302Y-57536564D01*
X178105741Y-57655636D01*
X178050938Y-57787942D01*
X178023000Y-57928397D01*
X178023000Y-58071603D01*
X178025683Y-58085092D01*
X175127000Y-60983777D01*
X175127000Y-43702000D01*
X187873000Y-43702000D01*
X187873000Y-46481491D01*
X187873000Y-46481491D01*
G37*
X187873000Y-46481491D02*
X187296080Y-47058411D01*
X187278821Y-47072575D01*
X187222338Y-47141401D01*
X187180366Y-47219925D01*
X187154520Y-47305127D01*
X187145793Y-47393734D01*
X187147980Y-47415939D01*
X187147981Y-101212795D01*
X181696100Y-106664677D01*
X181678841Y-106678841D01*
X181624731Y-106744775D01*
X181622358Y-106747667D01*
X181614926Y-106761571D01*
X175127000Y-106761571D01*
X175127000Y-84622452D01*
X175213436Y-84564698D01*
X175314698Y-84463436D01*
X175394259Y-84344364D01*
X175449062Y-84212058D01*
X175477000Y-84071603D01*
X175477000Y-83928397D01*
X175449062Y-83787942D01*
X175394259Y-83655636D01*
X175314698Y-83536564D01*
X175213436Y-83435302D01*
X175202000Y-83427661D01*
X175202000Y-81428397D01*
X177273000Y-81428397D01*
X177273000Y-81571603D01*
X177300938Y-81712058D01*
X177355741Y-81844364D01*
X177435302Y-81963436D01*
X177536564Y-82064698D01*
X177655636Y-82144259D01*
X177787942Y-82199062D01*
X177928397Y-82227000D01*
X178071603Y-82227000D01*
X178085093Y-82224317D01*
X179800989Y-83940213D01*
X179798306Y-83953703D01*
X179798306Y-84096909D01*
X179826244Y-84237364D01*
X179881047Y-84369670D01*
X179960608Y-84488742D01*
X180061870Y-84590004D01*
X180180942Y-84669565D01*
X180313248Y-84724368D01*
X180453703Y-84752306D01*
X180596909Y-84752306D01*
X180737364Y-84724368D01*
X180869670Y-84669565D01*
X180988742Y-84590004D01*
X181090004Y-84488742D01*
X181169565Y-84369670D01*
X181224368Y-84237364D01*
X181252306Y-84096909D01*
X181252306Y-83953703D01*
X181224368Y-83813248D01*
X181169565Y-83680942D01*
X181090004Y-83561870D01*
X180988742Y-83460608D01*
X180869670Y-83381047D01*
X180737364Y-83326244D01*
X180596909Y-83298306D01*
X180453703Y-83298306D01*
X180440213Y-83300989D01*
X178724317Y-81585093D01*
X178727000Y-81571603D01*
X178727000Y-81428397D01*
X178699062Y-81287942D01*
X178653687Y-81178397D01*
X178773000Y-81178397D01*
X178773000Y-81321603D01*
X178800938Y-81462058D01*
X178855741Y-81594364D01*
X178935302Y-81713436D01*
X179036564Y-81814698D01*
X179155636Y-81894259D01*
X179287942Y-81949062D01*
X179428397Y-81977000D01*
X179571603Y-81977000D01*
X179585093Y-81974317D01*
X180308154Y-82697378D01*
X180313591Y-82724711D01*
X180368394Y-82857017D01*
X180447955Y-82976089D01*
X180549217Y-83077351D01*
X180668289Y-83156912D01*
X180800595Y-83211715D01*
X180941050Y-83239653D01*
X181084256Y-83239653D01*
X181224711Y-83211715D01*
X181357017Y-83156912D01*
X181476089Y-83077351D01*
X181577351Y-82976089D01*
X181656912Y-82857017D01*
X181711715Y-82724711D01*
X181739653Y-82584256D01*
X181739653Y-82441050D01*
X181711715Y-82300595D01*
X181656912Y-82168289D01*
X181577351Y-82049217D01*
X181476089Y-81947955D01*
X181357017Y-81868394D01*
X181224711Y-81813591D01*
X181084256Y-81785653D01*
X180941050Y-81785653D01*
X180800595Y-81813591D01*
X180731454Y-81842230D01*
X180224317Y-81335093D01*
X180227000Y-81321603D01*
X180227000Y-81178397D01*
X180199062Y-81037942D01*
X180144259Y-80905636D01*
X180064698Y-80786564D01*
X179963436Y-80685302D01*
X179844364Y-80605741D01*
X179712058Y-80550938D01*
X179571603Y-80523000D01*
X179428397Y-80523000D01*
X179287942Y-80550938D01*
X179155636Y-80605741D01*
X179036564Y-80685302D01*
X178935302Y-80786564D01*
X178855741Y-80905636D01*
X178800938Y-81037942D01*
X178773000Y-81178397D01*
X178653687Y-81178397D01*
X178644259Y-81155636D01*
X178564698Y-81036564D01*
X178463436Y-80935302D01*
X178344364Y-80855741D01*
X178212058Y-80800938D01*
X178071603Y-80773000D01*
X177928397Y-80773000D01*
X177787942Y-80800938D01*
X177655636Y-80855741D01*
X177536564Y-80935302D01*
X177435302Y-81036564D01*
X177355741Y-81155636D01*
X177300938Y-81287942D01*
X177273000Y-81428397D01*
X175202000Y-81428397D01*
X175202000Y-75663464D01*
X175287942Y-75699062D01*
X175428397Y-75727000D01*
X175571603Y-75727000D01*
X175712058Y-75699062D01*
X175844364Y-75644259D01*
X175963436Y-75564698D01*
X176064698Y-75463436D01*
X176125000Y-75373187D01*
X176185302Y-75463436D01*
X176286564Y-75564698D01*
X176405636Y-75644259D01*
X176537942Y-75699062D01*
X176678397Y-75727000D01*
X176821603Y-75727000D01*
X176962058Y-75699062D01*
X177094364Y-75644259D01*
X177213436Y-75564698D01*
X177305372Y-75472762D01*
X177355741Y-75594364D01*
X177435302Y-75713436D01*
X177536564Y-75814698D01*
X177655636Y-75894259D01*
X177787942Y-75949062D01*
X177928397Y-75977000D01*
X178071603Y-75977000D01*
X178212058Y-75949062D01*
X178344364Y-75894259D01*
X178463436Y-75814698D01*
X178564698Y-75713436D01*
X178644259Y-75594364D01*
X178699062Y-75462058D01*
X178727000Y-75321603D01*
X178727000Y-75178397D01*
X178699062Y-75037942D01*
X178644259Y-74905636D01*
X178564698Y-74786564D01*
X178463436Y-74685302D01*
X178452000Y-74677661D01*
X178452000Y-70822339D01*
X178463436Y-70814698D01*
X178564698Y-70713436D01*
X178644259Y-70594364D01*
X178699062Y-70462058D01*
X178727000Y-70321603D01*
X178727000Y-70178397D01*
X178699062Y-70037942D01*
X178644259Y-69905636D01*
X178564698Y-69786564D01*
X178463436Y-69685302D01*
X178344364Y-69605741D01*
X178212058Y-69550938D01*
X178071603Y-69523000D01*
X177928397Y-69523000D01*
X177787942Y-69550938D01*
X177655636Y-69605741D01*
X177536564Y-69685302D01*
X177435302Y-69786564D01*
X177355741Y-69905636D01*
X177300938Y-70037942D01*
X177273000Y-70178397D01*
X177273000Y-70321603D01*
X177300938Y-70462058D01*
X177355741Y-70594364D01*
X177435302Y-70713436D01*
X177536564Y-70814698D01*
X177548001Y-70822340D01*
X177548001Y-71269867D01*
X177450783Y-71172649D01*
X177331711Y-71093088D01*
X177199405Y-71038285D01*
X177058950Y-71010347D01*
X176915744Y-71010347D01*
X176775289Y-71038285D01*
X176642983Y-71093088D01*
X176523911Y-71172649D01*
X176422649Y-71273911D01*
X176343088Y-71392983D01*
X176288285Y-71525289D01*
X176260347Y-71665744D01*
X176260347Y-71808950D01*
X176288285Y-71949405D01*
X176343088Y-72081711D01*
X176422649Y-72200783D01*
X176523911Y-72302045D01*
X176642983Y-72381606D01*
X176698000Y-72404395D01*
X176698000Y-72924988D01*
X176594364Y-72855741D01*
X176462058Y-72800938D01*
X176321603Y-72773000D01*
X176178397Y-72773000D01*
X176037942Y-72800938D01*
X175905636Y-72855741D01*
X175786564Y-72935302D01*
X175685302Y-73036564D01*
X175605741Y-73155636D01*
X175550938Y-73287942D01*
X175523000Y-73428397D01*
X175523000Y-73571603D01*
X175525683Y-73585093D01*
X175202000Y-73908777D01*
X175202000Y-62187223D01*
X178664908Y-58724317D01*
X178678397Y-58727000D01*
X178821603Y-58727000D01*
X178962058Y-58699062D01*
X179094364Y-58644259D01*
X179213436Y-58564698D01*
X179314698Y-58463436D01*
X179394259Y-58344364D01*
X179449062Y-58212058D01*
X179477000Y-58071603D01*
X179477000Y-57928397D01*
X179449062Y-57787942D01*
X179394259Y-57655636D01*
X179314698Y-57536564D01*
X179213436Y-57435302D01*
X179094364Y-57355741D01*
X178962058Y-57300938D01*
X178821603Y-57273000D01*
X178678397Y-57273000D01*
X178537942Y-57300938D01*
X178405636Y-57355741D01*
X178286564Y-57435302D01*
X178185302Y-57536564D01*
X178105741Y-57655636D01*
X178050938Y-57787942D01*
X178023000Y-57928397D01*
X178023000Y-58071603D01*
X178025683Y-58085092D01*
X175127000Y-60983777D01*
X175127000Y-43702000D01*
X187873000Y-43702000D01*
X187873000Y-46481491D01*
M02*
