G04 #@! TF.GenerationSoftware,KiCad,Pcbnew,5.1.3-ffb9f22~84~ubuntu18.04.1*
G04 #@! TF.CreationDate,2019-08-04T06:46:36-07:00*
G04 #@! TF.ProjectId,body_part_power,626f6479-5f70-4617-9274-5f706f776572,rev?*
G04 #@! TF.SameCoordinates,Original*
G04 #@! TF.FileFunction,Paste,Top*
G04 #@! TF.FilePolarity,Positive*
%FSLAX46Y46*%
G04 Gerber Fmt 4.6, Leading zero omitted, Abs format (unit mm)*
G04 Created by KiCad (PCBNEW 5.1.3-ffb9f22~84~ubuntu18.04.1) date 2019-08-04 06:46:36*
%MOMM*%
%LPD*%
G04 APERTURE LIST*
%ADD10C,0.100000*%
%ADD11C,0.590000*%
%ADD12R,0.300000X0.500000*%
%ADD13R,0.500000X0.300000*%
%ADD14R,0.690000X0.690000*%
%ADD15R,3.500000X2.000000*%
%ADD16R,6.000000X2.000000*%
%ADD17R,0.800000X0.700000*%
%ADD18R,4.290000X4.500000*%
%ADD19R,1.600000X1.550000*%
%ADD20R,1.200000X1.550000*%
%ADD21R,2.400000X3.480000*%
%ADD22R,1.500000X1.600000*%
%ADD23R,0.500000X1.600000*%
G04 APERTURE END LIST*
D10*
G36*
X162676958Y-69430710D02*
G01*
X162691276Y-69432834D01*
X162705317Y-69436351D01*
X162718946Y-69441228D01*
X162732031Y-69447417D01*
X162744447Y-69454858D01*
X162756073Y-69463481D01*
X162766798Y-69473202D01*
X162776519Y-69483927D01*
X162785142Y-69495553D01*
X162792583Y-69507969D01*
X162798772Y-69521054D01*
X162803649Y-69534683D01*
X162807166Y-69548724D01*
X162809290Y-69563042D01*
X162810000Y-69577500D01*
X162810000Y-69922500D01*
X162809290Y-69936958D01*
X162807166Y-69951276D01*
X162803649Y-69965317D01*
X162798772Y-69978946D01*
X162792583Y-69992031D01*
X162785142Y-70004447D01*
X162776519Y-70016073D01*
X162766798Y-70026798D01*
X162756073Y-70036519D01*
X162744447Y-70045142D01*
X162732031Y-70052583D01*
X162718946Y-70058772D01*
X162705317Y-70063649D01*
X162691276Y-70067166D01*
X162676958Y-70069290D01*
X162662500Y-70070000D01*
X162367500Y-70070000D01*
X162353042Y-70069290D01*
X162338724Y-70067166D01*
X162324683Y-70063649D01*
X162311054Y-70058772D01*
X162297969Y-70052583D01*
X162285553Y-70045142D01*
X162273927Y-70036519D01*
X162263202Y-70026798D01*
X162253481Y-70016073D01*
X162244858Y-70004447D01*
X162237417Y-69992031D01*
X162231228Y-69978946D01*
X162226351Y-69965317D01*
X162222834Y-69951276D01*
X162220710Y-69936958D01*
X162220000Y-69922500D01*
X162220000Y-69577500D01*
X162220710Y-69563042D01*
X162222834Y-69548724D01*
X162226351Y-69534683D01*
X162231228Y-69521054D01*
X162237417Y-69507969D01*
X162244858Y-69495553D01*
X162253481Y-69483927D01*
X162263202Y-69473202D01*
X162273927Y-69463481D01*
X162285553Y-69454858D01*
X162297969Y-69447417D01*
X162311054Y-69441228D01*
X162324683Y-69436351D01*
X162338724Y-69432834D01*
X162353042Y-69430710D01*
X162367500Y-69430000D01*
X162662500Y-69430000D01*
X162676958Y-69430710D01*
X162676958Y-69430710D01*
G37*
D11*
X162515000Y-69750000D03*
D10*
G36*
X163646958Y-69430710D02*
G01*
X163661276Y-69432834D01*
X163675317Y-69436351D01*
X163688946Y-69441228D01*
X163702031Y-69447417D01*
X163714447Y-69454858D01*
X163726073Y-69463481D01*
X163736798Y-69473202D01*
X163746519Y-69483927D01*
X163755142Y-69495553D01*
X163762583Y-69507969D01*
X163768772Y-69521054D01*
X163773649Y-69534683D01*
X163777166Y-69548724D01*
X163779290Y-69563042D01*
X163780000Y-69577500D01*
X163780000Y-69922500D01*
X163779290Y-69936958D01*
X163777166Y-69951276D01*
X163773649Y-69965317D01*
X163768772Y-69978946D01*
X163762583Y-69992031D01*
X163755142Y-70004447D01*
X163746519Y-70016073D01*
X163736798Y-70026798D01*
X163726073Y-70036519D01*
X163714447Y-70045142D01*
X163702031Y-70052583D01*
X163688946Y-70058772D01*
X163675317Y-70063649D01*
X163661276Y-70067166D01*
X163646958Y-70069290D01*
X163632500Y-70070000D01*
X163337500Y-70070000D01*
X163323042Y-70069290D01*
X163308724Y-70067166D01*
X163294683Y-70063649D01*
X163281054Y-70058772D01*
X163267969Y-70052583D01*
X163255553Y-70045142D01*
X163243927Y-70036519D01*
X163233202Y-70026798D01*
X163223481Y-70016073D01*
X163214858Y-70004447D01*
X163207417Y-69992031D01*
X163201228Y-69978946D01*
X163196351Y-69965317D01*
X163192834Y-69951276D01*
X163190710Y-69936958D01*
X163190000Y-69922500D01*
X163190000Y-69577500D01*
X163190710Y-69563042D01*
X163192834Y-69548724D01*
X163196351Y-69534683D01*
X163201228Y-69521054D01*
X163207417Y-69507969D01*
X163214858Y-69495553D01*
X163223481Y-69483927D01*
X163233202Y-69473202D01*
X163243927Y-69463481D01*
X163255553Y-69454858D01*
X163267969Y-69447417D01*
X163281054Y-69441228D01*
X163294683Y-69436351D01*
X163308724Y-69432834D01*
X163323042Y-69430710D01*
X163337500Y-69430000D01*
X163632500Y-69430000D01*
X163646958Y-69430710D01*
X163646958Y-69430710D01*
G37*
D11*
X163485000Y-69750000D03*
D10*
G36*
X165676958Y-70930710D02*
G01*
X165691276Y-70932834D01*
X165705317Y-70936351D01*
X165718946Y-70941228D01*
X165732031Y-70947417D01*
X165744447Y-70954858D01*
X165756073Y-70963481D01*
X165766798Y-70973202D01*
X165776519Y-70983927D01*
X165785142Y-70995553D01*
X165792583Y-71007969D01*
X165798772Y-71021054D01*
X165803649Y-71034683D01*
X165807166Y-71048724D01*
X165809290Y-71063042D01*
X165810000Y-71077500D01*
X165810000Y-71422500D01*
X165809290Y-71436958D01*
X165807166Y-71451276D01*
X165803649Y-71465317D01*
X165798772Y-71478946D01*
X165792583Y-71492031D01*
X165785142Y-71504447D01*
X165776519Y-71516073D01*
X165766798Y-71526798D01*
X165756073Y-71536519D01*
X165744447Y-71545142D01*
X165732031Y-71552583D01*
X165718946Y-71558772D01*
X165705317Y-71563649D01*
X165691276Y-71567166D01*
X165676958Y-71569290D01*
X165662500Y-71570000D01*
X165367500Y-71570000D01*
X165353042Y-71569290D01*
X165338724Y-71567166D01*
X165324683Y-71563649D01*
X165311054Y-71558772D01*
X165297969Y-71552583D01*
X165285553Y-71545142D01*
X165273927Y-71536519D01*
X165263202Y-71526798D01*
X165253481Y-71516073D01*
X165244858Y-71504447D01*
X165237417Y-71492031D01*
X165231228Y-71478946D01*
X165226351Y-71465317D01*
X165222834Y-71451276D01*
X165220710Y-71436958D01*
X165220000Y-71422500D01*
X165220000Y-71077500D01*
X165220710Y-71063042D01*
X165222834Y-71048724D01*
X165226351Y-71034683D01*
X165231228Y-71021054D01*
X165237417Y-71007969D01*
X165244858Y-70995553D01*
X165253481Y-70983927D01*
X165263202Y-70973202D01*
X165273927Y-70963481D01*
X165285553Y-70954858D01*
X165297969Y-70947417D01*
X165311054Y-70941228D01*
X165324683Y-70936351D01*
X165338724Y-70932834D01*
X165353042Y-70930710D01*
X165367500Y-70930000D01*
X165662500Y-70930000D01*
X165676958Y-70930710D01*
X165676958Y-70930710D01*
G37*
D11*
X165515000Y-71250000D03*
D10*
G36*
X166646958Y-70930710D02*
G01*
X166661276Y-70932834D01*
X166675317Y-70936351D01*
X166688946Y-70941228D01*
X166702031Y-70947417D01*
X166714447Y-70954858D01*
X166726073Y-70963481D01*
X166736798Y-70973202D01*
X166746519Y-70983927D01*
X166755142Y-70995553D01*
X166762583Y-71007969D01*
X166768772Y-71021054D01*
X166773649Y-71034683D01*
X166777166Y-71048724D01*
X166779290Y-71063042D01*
X166780000Y-71077500D01*
X166780000Y-71422500D01*
X166779290Y-71436958D01*
X166777166Y-71451276D01*
X166773649Y-71465317D01*
X166768772Y-71478946D01*
X166762583Y-71492031D01*
X166755142Y-71504447D01*
X166746519Y-71516073D01*
X166736798Y-71526798D01*
X166726073Y-71536519D01*
X166714447Y-71545142D01*
X166702031Y-71552583D01*
X166688946Y-71558772D01*
X166675317Y-71563649D01*
X166661276Y-71567166D01*
X166646958Y-71569290D01*
X166632500Y-71570000D01*
X166337500Y-71570000D01*
X166323042Y-71569290D01*
X166308724Y-71567166D01*
X166294683Y-71563649D01*
X166281054Y-71558772D01*
X166267969Y-71552583D01*
X166255553Y-71545142D01*
X166243927Y-71536519D01*
X166233202Y-71526798D01*
X166223481Y-71516073D01*
X166214858Y-71504447D01*
X166207417Y-71492031D01*
X166201228Y-71478946D01*
X166196351Y-71465317D01*
X166192834Y-71451276D01*
X166190710Y-71436958D01*
X166190000Y-71422500D01*
X166190000Y-71077500D01*
X166190710Y-71063042D01*
X166192834Y-71048724D01*
X166196351Y-71034683D01*
X166201228Y-71021054D01*
X166207417Y-71007969D01*
X166214858Y-70995553D01*
X166223481Y-70983927D01*
X166233202Y-70973202D01*
X166243927Y-70963481D01*
X166255553Y-70954858D01*
X166267969Y-70947417D01*
X166281054Y-70941228D01*
X166294683Y-70936351D01*
X166308724Y-70932834D01*
X166323042Y-70930710D01*
X166337500Y-70930000D01*
X166632500Y-70930000D01*
X166646958Y-70930710D01*
X166646958Y-70930710D01*
G37*
D11*
X166485000Y-71250000D03*
D10*
G36*
X162176958Y-83180710D02*
G01*
X162191276Y-83182834D01*
X162205317Y-83186351D01*
X162218946Y-83191228D01*
X162232031Y-83197417D01*
X162244447Y-83204858D01*
X162256073Y-83213481D01*
X162266798Y-83223202D01*
X162276519Y-83233927D01*
X162285142Y-83245553D01*
X162292583Y-83257969D01*
X162298772Y-83271054D01*
X162303649Y-83284683D01*
X162307166Y-83298724D01*
X162309290Y-83313042D01*
X162310000Y-83327500D01*
X162310000Y-83672500D01*
X162309290Y-83686958D01*
X162307166Y-83701276D01*
X162303649Y-83715317D01*
X162298772Y-83728946D01*
X162292583Y-83742031D01*
X162285142Y-83754447D01*
X162276519Y-83766073D01*
X162266798Y-83776798D01*
X162256073Y-83786519D01*
X162244447Y-83795142D01*
X162232031Y-83802583D01*
X162218946Y-83808772D01*
X162205317Y-83813649D01*
X162191276Y-83817166D01*
X162176958Y-83819290D01*
X162162500Y-83820000D01*
X161867500Y-83820000D01*
X161853042Y-83819290D01*
X161838724Y-83817166D01*
X161824683Y-83813649D01*
X161811054Y-83808772D01*
X161797969Y-83802583D01*
X161785553Y-83795142D01*
X161773927Y-83786519D01*
X161763202Y-83776798D01*
X161753481Y-83766073D01*
X161744858Y-83754447D01*
X161737417Y-83742031D01*
X161731228Y-83728946D01*
X161726351Y-83715317D01*
X161722834Y-83701276D01*
X161720710Y-83686958D01*
X161720000Y-83672500D01*
X161720000Y-83327500D01*
X161720710Y-83313042D01*
X161722834Y-83298724D01*
X161726351Y-83284683D01*
X161731228Y-83271054D01*
X161737417Y-83257969D01*
X161744858Y-83245553D01*
X161753481Y-83233927D01*
X161763202Y-83223202D01*
X161773927Y-83213481D01*
X161785553Y-83204858D01*
X161797969Y-83197417D01*
X161811054Y-83191228D01*
X161824683Y-83186351D01*
X161838724Y-83182834D01*
X161853042Y-83180710D01*
X161867500Y-83180000D01*
X162162500Y-83180000D01*
X162176958Y-83180710D01*
X162176958Y-83180710D01*
G37*
D11*
X162015000Y-83500000D03*
D10*
G36*
X163146958Y-83180710D02*
G01*
X163161276Y-83182834D01*
X163175317Y-83186351D01*
X163188946Y-83191228D01*
X163202031Y-83197417D01*
X163214447Y-83204858D01*
X163226073Y-83213481D01*
X163236798Y-83223202D01*
X163246519Y-83233927D01*
X163255142Y-83245553D01*
X163262583Y-83257969D01*
X163268772Y-83271054D01*
X163273649Y-83284683D01*
X163277166Y-83298724D01*
X163279290Y-83313042D01*
X163280000Y-83327500D01*
X163280000Y-83672500D01*
X163279290Y-83686958D01*
X163277166Y-83701276D01*
X163273649Y-83715317D01*
X163268772Y-83728946D01*
X163262583Y-83742031D01*
X163255142Y-83754447D01*
X163246519Y-83766073D01*
X163236798Y-83776798D01*
X163226073Y-83786519D01*
X163214447Y-83795142D01*
X163202031Y-83802583D01*
X163188946Y-83808772D01*
X163175317Y-83813649D01*
X163161276Y-83817166D01*
X163146958Y-83819290D01*
X163132500Y-83820000D01*
X162837500Y-83820000D01*
X162823042Y-83819290D01*
X162808724Y-83817166D01*
X162794683Y-83813649D01*
X162781054Y-83808772D01*
X162767969Y-83802583D01*
X162755553Y-83795142D01*
X162743927Y-83786519D01*
X162733202Y-83776798D01*
X162723481Y-83766073D01*
X162714858Y-83754447D01*
X162707417Y-83742031D01*
X162701228Y-83728946D01*
X162696351Y-83715317D01*
X162692834Y-83701276D01*
X162690710Y-83686958D01*
X162690000Y-83672500D01*
X162690000Y-83327500D01*
X162690710Y-83313042D01*
X162692834Y-83298724D01*
X162696351Y-83284683D01*
X162701228Y-83271054D01*
X162707417Y-83257969D01*
X162714858Y-83245553D01*
X162723481Y-83233927D01*
X162733202Y-83223202D01*
X162743927Y-83213481D01*
X162755553Y-83204858D01*
X162767969Y-83197417D01*
X162781054Y-83191228D01*
X162794683Y-83186351D01*
X162808724Y-83182834D01*
X162823042Y-83180710D01*
X162837500Y-83180000D01*
X163132500Y-83180000D01*
X163146958Y-83180710D01*
X163146958Y-83180710D01*
G37*
D11*
X162985000Y-83500000D03*
D10*
G36*
X175396958Y-91180710D02*
G01*
X175411276Y-91182834D01*
X175425317Y-91186351D01*
X175438946Y-91191228D01*
X175452031Y-91197417D01*
X175464447Y-91204858D01*
X175476073Y-91213481D01*
X175486798Y-91223202D01*
X175496519Y-91233927D01*
X175505142Y-91245553D01*
X175512583Y-91257969D01*
X175518772Y-91271054D01*
X175523649Y-91284683D01*
X175527166Y-91298724D01*
X175529290Y-91313042D01*
X175530000Y-91327500D01*
X175530000Y-91672500D01*
X175529290Y-91686958D01*
X175527166Y-91701276D01*
X175523649Y-91715317D01*
X175518772Y-91728946D01*
X175512583Y-91742031D01*
X175505142Y-91754447D01*
X175496519Y-91766073D01*
X175486798Y-91776798D01*
X175476073Y-91786519D01*
X175464447Y-91795142D01*
X175452031Y-91802583D01*
X175438946Y-91808772D01*
X175425317Y-91813649D01*
X175411276Y-91817166D01*
X175396958Y-91819290D01*
X175382500Y-91820000D01*
X175087500Y-91820000D01*
X175073042Y-91819290D01*
X175058724Y-91817166D01*
X175044683Y-91813649D01*
X175031054Y-91808772D01*
X175017969Y-91802583D01*
X175005553Y-91795142D01*
X174993927Y-91786519D01*
X174983202Y-91776798D01*
X174973481Y-91766073D01*
X174964858Y-91754447D01*
X174957417Y-91742031D01*
X174951228Y-91728946D01*
X174946351Y-91715317D01*
X174942834Y-91701276D01*
X174940710Y-91686958D01*
X174940000Y-91672500D01*
X174940000Y-91327500D01*
X174940710Y-91313042D01*
X174942834Y-91298724D01*
X174946351Y-91284683D01*
X174951228Y-91271054D01*
X174957417Y-91257969D01*
X174964858Y-91245553D01*
X174973481Y-91233927D01*
X174983202Y-91223202D01*
X174993927Y-91213481D01*
X175005553Y-91204858D01*
X175017969Y-91197417D01*
X175031054Y-91191228D01*
X175044683Y-91186351D01*
X175058724Y-91182834D01*
X175073042Y-91180710D01*
X175087500Y-91180000D01*
X175382500Y-91180000D01*
X175396958Y-91180710D01*
X175396958Y-91180710D01*
G37*
D11*
X175235000Y-91500000D03*
D10*
G36*
X174426958Y-91180710D02*
G01*
X174441276Y-91182834D01*
X174455317Y-91186351D01*
X174468946Y-91191228D01*
X174482031Y-91197417D01*
X174494447Y-91204858D01*
X174506073Y-91213481D01*
X174516798Y-91223202D01*
X174526519Y-91233927D01*
X174535142Y-91245553D01*
X174542583Y-91257969D01*
X174548772Y-91271054D01*
X174553649Y-91284683D01*
X174557166Y-91298724D01*
X174559290Y-91313042D01*
X174560000Y-91327500D01*
X174560000Y-91672500D01*
X174559290Y-91686958D01*
X174557166Y-91701276D01*
X174553649Y-91715317D01*
X174548772Y-91728946D01*
X174542583Y-91742031D01*
X174535142Y-91754447D01*
X174526519Y-91766073D01*
X174516798Y-91776798D01*
X174506073Y-91786519D01*
X174494447Y-91795142D01*
X174482031Y-91802583D01*
X174468946Y-91808772D01*
X174455317Y-91813649D01*
X174441276Y-91817166D01*
X174426958Y-91819290D01*
X174412500Y-91820000D01*
X174117500Y-91820000D01*
X174103042Y-91819290D01*
X174088724Y-91817166D01*
X174074683Y-91813649D01*
X174061054Y-91808772D01*
X174047969Y-91802583D01*
X174035553Y-91795142D01*
X174023927Y-91786519D01*
X174013202Y-91776798D01*
X174003481Y-91766073D01*
X173994858Y-91754447D01*
X173987417Y-91742031D01*
X173981228Y-91728946D01*
X173976351Y-91715317D01*
X173972834Y-91701276D01*
X173970710Y-91686958D01*
X173970000Y-91672500D01*
X173970000Y-91327500D01*
X173970710Y-91313042D01*
X173972834Y-91298724D01*
X173976351Y-91284683D01*
X173981228Y-91271054D01*
X173987417Y-91257969D01*
X173994858Y-91245553D01*
X174003481Y-91233927D01*
X174013202Y-91223202D01*
X174023927Y-91213481D01*
X174035553Y-91204858D01*
X174047969Y-91197417D01*
X174061054Y-91191228D01*
X174074683Y-91186351D01*
X174088724Y-91182834D01*
X174103042Y-91180710D01*
X174117500Y-91180000D01*
X174412500Y-91180000D01*
X174426958Y-91180710D01*
X174426958Y-91180710D01*
G37*
D11*
X174265000Y-91500000D03*
D10*
G36*
X174426958Y-92680710D02*
G01*
X174441276Y-92682834D01*
X174455317Y-92686351D01*
X174468946Y-92691228D01*
X174482031Y-92697417D01*
X174494447Y-92704858D01*
X174506073Y-92713481D01*
X174516798Y-92723202D01*
X174526519Y-92733927D01*
X174535142Y-92745553D01*
X174542583Y-92757969D01*
X174548772Y-92771054D01*
X174553649Y-92784683D01*
X174557166Y-92798724D01*
X174559290Y-92813042D01*
X174560000Y-92827500D01*
X174560000Y-93172500D01*
X174559290Y-93186958D01*
X174557166Y-93201276D01*
X174553649Y-93215317D01*
X174548772Y-93228946D01*
X174542583Y-93242031D01*
X174535142Y-93254447D01*
X174526519Y-93266073D01*
X174516798Y-93276798D01*
X174506073Y-93286519D01*
X174494447Y-93295142D01*
X174482031Y-93302583D01*
X174468946Y-93308772D01*
X174455317Y-93313649D01*
X174441276Y-93317166D01*
X174426958Y-93319290D01*
X174412500Y-93320000D01*
X174117500Y-93320000D01*
X174103042Y-93319290D01*
X174088724Y-93317166D01*
X174074683Y-93313649D01*
X174061054Y-93308772D01*
X174047969Y-93302583D01*
X174035553Y-93295142D01*
X174023927Y-93286519D01*
X174013202Y-93276798D01*
X174003481Y-93266073D01*
X173994858Y-93254447D01*
X173987417Y-93242031D01*
X173981228Y-93228946D01*
X173976351Y-93215317D01*
X173972834Y-93201276D01*
X173970710Y-93186958D01*
X173970000Y-93172500D01*
X173970000Y-92827500D01*
X173970710Y-92813042D01*
X173972834Y-92798724D01*
X173976351Y-92784683D01*
X173981228Y-92771054D01*
X173987417Y-92757969D01*
X173994858Y-92745553D01*
X174003481Y-92733927D01*
X174013202Y-92723202D01*
X174023927Y-92713481D01*
X174035553Y-92704858D01*
X174047969Y-92697417D01*
X174061054Y-92691228D01*
X174074683Y-92686351D01*
X174088724Y-92682834D01*
X174103042Y-92680710D01*
X174117500Y-92680000D01*
X174412500Y-92680000D01*
X174426958Y-92680710D01*
X174426958Y-92680710D01*
G37*
D11*
X174265000Y-93000000D03*
D10*
G36*
X175396958Y-92680710D02*
G01*
X175411276Y-92682834D01*
X175425317Y-92686351D01*
X175438946Y-92691228D01*
X175452031Y-92697417D01*
X175464447Y-92704858D01*
X175476073Y-92713481D01*
X175486798Y-92723202D01*
X175496519Y-92733927D01*
X175505142Y-92745553D01*
X175512583Y-92757969D01*
X175518772Y-92771054D01*
X175523649Y-92784683D01*
X175527166Y-92798724D01*
X175529290Y-92813042D01*
X175530000Y-92827500D01*
X175530000Y-93172500D01*
X175529290Y-93186958D01*
X175527166Y-93201276D01*
X175523649Y-93215317D01*
X175518772Y-93228946D01*
X175512583Y-93242031D01*
X175505142Y-93254447D01*
X175496519Y-93266073D01*
X175486798Y-93276798D01*
X175476073Y-93286519D01*
X175464447Y-93295142D01*
X175452031Y-93302583D01*
X175438946Y-93308772D01*
X175425317Y-93313649D01*
X175411276Y-93317166D01*
X175396958Y-93319290D01*
X175382500Y-93320000D01*
X175087500Y-93320000D01*
X175073042Y-93319290D01*
X175058724Y-93317166D01*
X175044683Y-93313649D01*
X175031054Y-93308772D01*
X175017969Y-93302583D01*
X175005553Y-93295142D01*
X174993927Y-93286519D01*
X174983202Y-93276798D01*
X174973481Y-93266073D01*
X174964858Y-93254447D01*
X174957417Y-93242031D01*
X174951228Y-93228946D01*
X174946351Y-93215317D01*
X174942834Y-93201276D01*
X174940710Y-93186958D01*
X174940000Y-93172500D01*
X174940000Y-92827500D01*
X174940710Y-92813042D01*
X174942834Y-92798724D01*
X174946351Y-92784683D01*
X174951228Y-92771054D01*
X174957417Y-92757969D01*
X174964858Y-92745553D01*
X174973481Y-92733927D01*
X174983202Y-92723202D01*
X174993927Y-92713481D01*
X175005553Y-92704858D01*
X175017969Y-92697417D01*
X175031054Y-92691228D01*
X175044683Y-92686351D01*
X175058724Y-92682834D01*
X175073042Y-92680710D01*
X175087500Y-92680000D01*
X175382500Y-92680000D01*
X175396958Y-92680710D01*
X175396958Y-92680710D01*
G37*
D11*
X175235000Y-93000000D03*
D10*
G36*
X165396958Y-83180710D02*
G01*
X165411276Y-83182834D01*
X165425317Y-83186351D01*
X165438946Y-83191228D01*
X165452031Y-83197417D01*
X165464447Y-83204858D01*
X165476073Y-83213481D01*
X165486798Y-83223202D01*
X165496519Y-83233927D01*
X165505142Y-83245553D01*
X165512583Y-83257969D01*
X165518772Y-83271054D01*
X165523649Y-83284683D01*
X165527166Y-83298724D01*
X165529290Y-83313042D01*
X165530000Y-83327500D01*
X165530000Y-83672500D01*
X165529290Y-83686958D01*
X165527166Y-83701276D01*
X165523649Y-83715317D01*
X165518772Y-83728946D01*
X165512583Y-83742031D01*
X165505142Y-83754447D01*
X165496519Y-83766073D01*
X165486798Y-83776798D01*
X165476073Y-83786519D01*
X165464447Y-83795142D01*
X165452031Y-83802583D01*
X165438946Y-83808772D01*
X165425317Y-83813649D01*
X165411276Y-83817166D01*
X165396958Y-83819290D01*
X165382500Y-83820000D01*
X165087500Y-83820000D01*
X165073042Y-83819290D01*
X165058724Y-83817166D01*
X165044683Y-83813649D01*
X165031054Y-83808772D01*
X165017969Y-83802583D01*
X165005553Y-83795142D01*
X164993927Y-83786519D01*
X164983202Y-83776798D01*
X164973481Y-83766073D01*
X164964858Y-83754447D01*
X164957417Y-83742031D01*
X164951228Y-83728946D01*
X164946351Y-83715317D01*
X164942834Y-83701276D01*
X164940710Y-83686958D01*
X164940000Y-83672500D01*
X164940000Y-83327500D01*
X164940710Y-83313042D01*
X164942834Y-83298724D01*
X164946351Y-83284683D01*
X164951228Y-83271054D01*
X164957417Y-83257969D01*
X164964858Y-83245553D01*
X164973481Y-83233927D01*
X164983202Y-83223202D01*
X164993927Y-83213481D01*
X165005553Y-83204858D01*
X165017969Y-83197417D01*
X165031054Y-83191228D01*
X165044683Y-83186351D01*
X165058724Y-83182834D01*
X165073042Y-83180710D01*
X165087500Y-83180000D01*
X165382500Y-83180000D01*
X165396958Y-83180710D01*
X165396958Y-83180710D01*
G37*
D11*
X165235000Y-83500000D03*
D10*
G36*
X164426958Y-83180710D02*
G01*
X164441276Y-83182834D01*
X164455317Y-83186351D01*
X164468946Y-83191228D01*
X164482031Y-83197417D01*
X164494447Y-83204858D01*
X164506073Y-83213481D01*
X164516798Y-83223202D01*
X164526519Y-83233927D01*
X164535142Y-83245553D01*
X164542583Y-83257969D01*
X164548772Y-83271054D01*
X164553649Y-83284683D01*
X164557166Y-83298724D01*
X164559290Y-83313042D01*
X164560000Y-83327500D01*
X164560000Y-83672500D01*
X164559290Y-83686958D01*
X164557166Y-83701276D01*
X164553649Y-83715317D01*
X164548772Y-83728946D01*
X164542583Y-83742031D01*
X164535142Y-83754447D01*
X164526519Y-83766073D01*
X164516798Y-83776798D01*
X164506073Y-83786519D01*
X164494447Y-83795142D01*
X164482031Y-83802583D01*
X164468946Y-83808772D01*
X164455317Y-83813649D01*
X164441276Y-83817166D01*
X164426958Y-83819290D01*
X164412500Y-83820000D01*
X164117500Y-83820000D01*
X164103042Y-83819290D01*
X164088724Y-83817166D01*
X164074683Y-83813649D01*
X164061054Y-83808772D01*
X164047969Y-83802583D01*
X164035553Y-83795142D01*
X164023927Y-83786519D01*
X164013202Y-83776798D01*
X164003481Y-83766073D01*
X163994858Y-83754447D01*
X163987417Y-83742031D01*
X163981228Y-83728946D01*
X163976351Y-83715317D01*
X163972834Y-83701276D01*
X163970710Y-83686958D01*
X163970000Y-83672500D01*
X163970000Y-83327500D01*
X163970710Y-83313042D01*
X163972834Y-83298724D01*
X163976351Y-83284683D01*
X163981228Y-83271054D01*
X163987417Y-83257969D01*
X163994858Y-83245553D01*
X164003481Y-83233927D01*
X164013202Y-83223202D01*
X164023927Y-83213481D01*
X164035553Y-83204858D01*
X164047969Y-83197417D01*
X164061054Y-83191228D01*
X164074683Y-83186351D01*
X164088724Y-83182834D01*
X164103042Y-83180710D01*
X164117500Y-83180000D01*
X164412500Y-83180000D01*
X164426958Y-83180710D01*
X164426958Y-83180710D01*
G37*
D11*
X164265000Y-83500000D03*
D12*
X163250000Y-81000000D03*
X163750000Y-81000000D03*
X164250000Y-81000000D03*
X164750000Y-81000000D03*
X165250000Y-81000000D03*
X165750000Y-81000000D03*
X166250000Y-81000000D03*
X166750000Y-81000000D03*
X167250000Y-81000000D03*
X167750000Y-81000000D03*
D13*
X168500000Y-80250000D03*
X168500000Y-79750000D03*
X168500000Y-79250000D03*
X168500000Y-78750000D03*
X168500000Y-78250000D03*
X168500000Y-77750000D03*
X168500000Y-77250000D03*
X168500000Y-76750000D03*
X168500000Y-76250000D03*
X168500000Y-75750000D03*
D12*
X167750000Y-75000000D03*
X167250000Y-75000000D03*
X166750000Y-75000000D03*
X166250000Y-75000000D03*
X165750000Y-75000000D03*
X165250000Y-75000000D03*
X164750000Y-75000000D03*
X164250000Y-75000000D03*
X163750000Y-75000000D03*
X163250000Y-75000000D03*
D13*
X162500000Y-75750000D03*
X162500000Y-76250000D03*
X162500000Y-76750000D03*
X162500000Y-77250000D03*
X162500000Y-77750000D03*
X162500000Y-78250000D03*
X162500000Y-78750000D03*
X162500000Y-79250000D03*
X162500000Y-79750000D03*
X162500000Y-80250000D03*
D14*
X167225000Y-76275000D03*
X166075000Y-76275000D03*
X164925000Y-76275000D03*
X163775000Y-76275000D03*
X167225000Y-77425000D03*
X166075000Y-77425000D03*
X164925000Y-77425000D03*
X163775000Y-77425000D03*
X167225000Y-78575000D03*
X166075000Y-78575000D03*
X164925000Y-78575000D03*
X163775000Y-78575000D03*
X167225000Y-79725000D03*
X166075000Y-79725000D03*
X164925000Y-79725000D03*
X163775000Y-79725000D03*
D15*
X172250000Y-105000000D03*
D16*
X163000000Y-105000000D03*
X163000000Y-109000000D03*
D15*
X172250000Y-109000000D03*
X210750000Y-42000000D03*
D16*
X201500000Y-42000000D03*
X201500000Y-46000000D03*
D15*
X210750000Y-46000000D03*
X210750000Y-83500000D03*
D16*
X201500000Y-83500000D03*
X201500000Y-79500000D03*
D15*
X210750000Y-79500000D03*
X210750000Y-58500000D03*
D16*
X201500000Y-58500000D03*
X201500000Y-54500000D03*
D15*
X210750000Y-54500000D03*
X210750000Y-92000000D03*
D16*
X201500000Y-92000000D03*
X201500000Y-96000000D03*
D15*
X210750000Y-96000000D03*
X210750000Y-67000000D03*
D16*
X201500000Y-67000000D03*
X201500000Y-71000000D03*
D15*
X210750000Y-71000000D03*
X210750000Y-108500000D03*
D16*
X201500000Y-108500000D03*
X201500000Y-104500000D03*
D15*
X210750000Y-104500000D03*
D17*
X188750000Y-47410000D03*
X188750000Y-46140000D03*
X188750000Y-44860000D03*
X188750000Y-43590000D03*
X183250000Y-43590000D03*
X183250000Y-44860000D03*
X183250000Y-46140000D03*
X183250000Y-47410000D03*
D18*
X185500000Y-45500000D03*
D19*
X184750000Y-46590000D03*
X184750000Y-44410000D03*
D20*
X186750000Y-46590000D03*
X186750000Y-44410000D03*
X186750000Y-81910000D03*
X186750000Y-84090000D03*
D19*
X184750000Y-81910000D03*
X184750000Y-84090000D03*
D18*
X185500000Y-83000000D03*
D17*
X183250000Y-84910000D03*
X183250000Y-83640000D03*
X183250000Y-82360000D03*
X183250000Y-81090000D03*
X188750000Y-81090000D03*
X188750000Y-82360000D03*
X188750000Y-83640000D03*
X188750000Y-84910000D03*
D20*
X186750000Y-57410000D03*
X186750000Y-59590000D03*
D19*
X184750000Y-57410000D03*
X184750000Y-59590000D03*
D18*
X185500000Y-58500000D03*
D17*
X183250000Y-60410000D03*
X183250000Y-59140000D03*
X183250000Y-57860000D03*
X183250000Y-56590000D03*
X188750000Y-56590000D03*
X188750000Y-57860000D03*
X188750000Y-59140000D03*
X188750000Y-60410000D03*
D20*
X186750000Y-94410000D03*
X186750000Y-96590000D03*
D19*
X184750000Y-94410000D03*
X184750000Y-96590000D03*
D18*
X185500000Y-95500000D03*
D17*
X183250000Y-97410000D03*
X183250000Y-96140000D03*
X183250000Y-94860000D03*
X183250000Y-93590000D03*
X188750000Y-93590000D03*
X188750000Y-94860000D03*
X188750000Y-96140000D03*
X188750000Y-97410000D03*
X188750000Y-72410000D03*
X188750000Y-71140000D03*
X188750000Y-69860000D03*
X188750000Y-68590000D03*
X183250000Y-68590000D03*
X183250000Y-69860000D03*
X183250000Y-71140000D03*
X183250000Y-72410000D03*
D18*
X185500000Y-70500000D03*
D19*
X184750000Y-71590000D03*
X184750000Y-69410000D03*
D20*
X186750000Y-71590000D03*
X186750000Y-69410000D03*
D17*
X188750000Y-109910000D03*
X188750000Y-108640000D03*
X188750000Y-107360000D03*
X188750000Y-106090000D03*
X183250000Y-106090000D03*
X183250000Y-107360000D03*
X183250000Y-108640000D03*
X183250000Y-109910000D03*
D18*
X185500000Y-108000000D03*
D19*
X184750000Y-109090000D03*
X184750000Y-106910000D03*
D20*
X186750000Y-109090000D03*
X186750000Y-106910000D03*
D10*
G36*
X163646958Y-71930710D02*
G01*
X163661276Y-71932834D01*
X163675317Y-71936351D01*
X163688946Y-71941228D01*
X163702031Y-71947417D01*
X163714447Y-71954858D01*
X163726073Y-71963481D01*
X163736798Y-71973202D01*
X163746519Y-71983927D01*
X163755142Y-71995553D01*
X163762583Y-72007969D01*
X163768772Y-72021054D01*
X163773649Y-72034683D01*
X163777166Y-72048724D01*
X163779290Y-72063042D01*
X163780000Y-72077500D01*
X163780000Y-72422500D01*
X163779290Y-72436958D01*
X163777166Y-72451276D01*
X163773649Y-72465317D01*
X163768772Y-72478946D01*
X163762583Y-72492031D01*
X163755142Y-72504447D01*
X163746519Y-72516073D01*
X163736798Y-72526798D01*
X163726073Y-72536519D01*
X163714447Y-72545142D01*
X163702031Y-72552583D01*
X163688946Y-72558772D01*
X163675317Y-72563649D01*
X163661276Y-72567166D01*
X163646958Y-72569290D01*
X163632500Y-72570000D01*
X163337500Y-72570000D01*
X163323042Y-72569290D01*
X163308724Y-72567166D01*
X163294683Y-72563649D01*
X163281054Y-72558772D01*
X163267969Y-72552583D01*
X163255553Y-72545142D01*
X163243927Y-72536519D01*
X163233202Y-72526798D01*
X163223481Y-72516073D01*
X163214858Y-72504447D01*
X163207417Y-72492031D01*
X163201228Y-72478946D01*
X163196351Y-72465317D01*
X163192834Y-72451276D01*
X163190710Y-72436958D01*
X163190000Y-72422500D01*
X163190000Y-72077500D01*
X163190710Y-72063042D01*
X163192834Y-72048724D01*
X163196351Y-72034683D01*
X163201228Y-72021054D01*
X163207417Y-72007969D01*
X163214858Y-71995553D01*
X163223481Y-71983927D01*
X163233202Y-71973202D01*
X163243927Y-71963481D01*
X163255553Y-71954858D01*
X163267969Y-71947417D01*
X163281054Y-71941228D01*
X163294683Y-71936351D01*
X163308724Y-71932834D01*
X163323042Y-71930710D01*
X163337500Y-71930000D01*
X163632500Y-71930000D01*
X163646958Y-71930710D01*
X163646958Y-71930710D01*
G37*
D11*
X163485000Y-72250000D03*
D10*
G36*
X162676958Y-71930710D02*
G01*
X162691276Y-71932834D01*
X162705317Y-71936351D01*
X162718946Y-71941228D01*
X162732031Y-71947417D01*
X162744447Y-71954858D01*
X162756073Y-71963481D01*
X162766798Y-71973202D01*
X162776519Y-71983927D01*
X162785142Y-71995553D01*
X162792583Y-72007969D01*
X162798772Y-72021054D01*
X162803649Y-72034683D01*
X162807166Y-72048724D01*
X162809290Y-72063042D01*
X162810000Y-72077500D01*
X162810000Y-72422500D01*
X162809290Y-72436958D01*
X162807166Y-72451276D01*
X162803649Y-72465317D01*
X162798772Y-72478946D01*
X162792583Y-72492031D01*
X162785142Y-72504447D01*
X162776519Y-72516073D01*
X162766798Y-72526798D01*
X162756073Y-72536519D01*
X162744447Y-72545142D01*
X162732031Y-72552583D01*
X162718946Y-72558772D01*
X162705317Y-72563649D01*
X162691276Y-72567166D01*
X162676958Y-72569290D01*
X162662500Y-72570000D01*
X162367500Y-72570000D01*
X162353042Y-72569290D01*
X162338724Y-72567166D01*
X162324683Y-72563649D01*
X162311054Y-72558772D01*
X162297969Y-72552583D01*
X162285553Y-72545142D01*
X162273927Y-72536519D01*
X162263202Y-72526798D01*
X162253481Y-72516073D01*
X162244858Y-72504447D01*
X162237417Y-72492031D01*
X162231228Y-72478946D01*
X162226351Y-72465317D01*
X162222834Y-72451276D01*
X162220710Y-72436958D01*
X162220000Y-72422500D01*
X162220000Y-72077500D01*
X162220710Y-72063042D01*
X162222834Y-72048724D01*
X162226351Y-72034683D01*
X162231228Y-72021054D01*
X162237417Y-72007969D01*
X162244858Y-71995553D01*
X162253481Y-71983927D01*
X162263202Y-71973202D01*
X162273927Y-71963481D01*
X162285553Y-71954858D01*
X162297969Y-71947417D01*
X162311054Y-71941228D01*
X162324683Y-71936351D01*
X162338724Y-71932834D01*
X162353042Y-71930710D01*
X162367500Y-71930000D01*
X162662500Y-71930000D01*
X162676958Y-71930710D01*
X162676958Y-71930710D01*
G37*
D11*
X162515000Y-72250000D03*
D10*
G36*
X160686958Y-73220710D02*
G01*
X160701276Y-73222834D01*
X160715317Y-73226351D01*
X160728946Y-73231228D01*
X160742031Y-73237417D01*
X160754447Y-73244858D01*
X160766073Y-73253481D01*
X160776798Y-73263202D01*
X160786519Y-73273927D01*
X160795142Y-73285553D01*
X160802583Y-73297969D01*
X160808772Y-73311054D01*
X160813649Y-73324683D01*
X160817166Y-73338724D01*
X160819290Y-73353042D01*
X160820000Y-73367500D01*
X160820000Y-73662500D01*
X160819290Y-73676958D01*
X160817166Y-73691276D01*
X160813649Y-73705317D01*
X160808772Y-73718946D01*
X160802583Y-73732031D01*
X160795142Y-73744447D01*
X160786519Y-73756073D01*
X160776798Y-73766798D01*
X160766073Y-73776519D01*
X160754447Y-73785142D01*
X160742031Y-73792583D01*
X160728946Y-73798772D01*
X160715317Y-73803649D01*
X160701276Y-73807166D01*
X160686958Y-73809290D01*
X160672500Y-73810000D01*
X160327500Y-73810000D01*
X160313042Y-73809290D01*
X160298724Y-73807166D01*
X160284683Y-73803649D01*
X160271054Y-73798772D01*
X160257969Y-73792583D01*
X160245553Y-73785142D01*
X160233927Y-73776519D01*
X160223202Y-73766798D01*
X160213481Y-73756073D01*
X160204858Y-73744447D01*
X160197417Y-73732031D01*
X160191228Y-73718946D01*
X160186351Y-73705317D01*
X160182834Y-73691276D01*
X160180710Y-73676958D01*
X160180000Y-73662500D01*
X160180000Y-73367500D01*
X160180710Y-73353042D01*
X160182834Y-73338724D01*
X160186351Y-73324683D01*
X160191228Y-73311054D01*
X160197417Y-73297969D01*
X160204858Y-73285553D01*
X160213481Y-73273927D01*
X160223202Y-73263202D01*
X160233927Y-73253481D01*
X160245553Y-73244858D01*
X160257969Y-73237417D01*
X160271054Y-73231228D01*
X160284683Y-73226351D01*
X160298724Y-73222834D01*
X160313042Y-73220710D01*
X160327500Y-73220000D01*
X160672500Y-73220000D01*
X160686958Y-73220710D01*
X160686958Y-73220710D01*
G37*
D11*
X160500000Y-73515000D03*
D10*
G36*
X160686958Y-74190710D02*
G01*
X160701276Y-74192834D01*
X160715317Y-74196351D01*
X160728946Y-74201228D01*
X160742031Y-74207417D01*
X160754447Y-74214858D01*
X160766073Y-74223481D01*
X160776798Y-74233202D01*
X160786519Y-74243927D01*
X160795142Y-74255553D01*
X160802583Y-74267969D01*
X160808772Y-74281054D01*
X160813649Y-74294683D01*
X160817166Y-74308724D01*
X160819290Y-74323042D01*
X160820000Y-74337500D01*
X160820000Y-74632500D01*
X160819290Y-74646958D01*
X160817166Y-74661276D01*
X160813649Y-74675317D01*
X160808772Y-74688946D01*
X160802583Y-74702031D01*
X160795142Y-74714447D01*
X160786519Y-74726073D01*
X160776798Y-74736798D01*
X160766073Y-74746519D01*
X160754447Y-74755142D01*
X160742031Y-74762583D01*
X160728946Y-74768772D01*
X160715317Y-74773649D01*
X160701276Y-74777166D01*
X160686958Y-74779290D01*
X160672500Y-74780000D01*
X160327500Y-74780000D01*
X160313042Y-74779290D01*
X160298724Y-74777166D01*
X160284683Y-74773649D01*
X160271054Y-74768772D01*
X160257969Y-74762583D01*
X160245553Y-74755142D01*
X160233927Y-74746519D01*
X160223202Y-74736798D01*
X160213481Y-74726073D01*
X160204858Y-74714447D01*
X160197417Y-74702031D01*
X160191228Y-74688946D01*
X160186351Y-74675317D01*
X160182834Y-74661276D01*
X160180710Y-74646958D01*
X160180000Y-74632500D01*
X160180000Y-74337500D01*
X160180710Y-74323042D01*
X160182834Y-74308724D01*
X160186351Y-74294683D01*
X160191228Y-74281054D01*
X160197417Y-74267969D01*
X160204858Y-74255553D01*
X160213481Y-74243927D01*
X160223202Y-74233202D01*
X160233927Y-74223481D01*
X160245553Y-74214858D01*
X160257969Y-74207417D01*
X160271054Y-74201228D01*
X160284683Y-74196351D01*
X160298724Y-74192834D01*
X160313042Y-74190710D01*
X160327500Y-74190000D01*
X160672500Y-74190000D01*
X160686958Y-74190710D01*
X160686958Y-74190710D01*
G37*
D11*
X160500000Y-74485000D03*
D10*
G36*
X165676958Y-71930710D02*
G01*
X165691276Y-71932834D01*
X165705317Y-71936351D01*
X165718946Y-71941228D01*
X165732031Y-71947417D01*
X165744447Y-71954858D01*
X165756073Y-71963481D01*
X165766798Y-71973202D01*
X165776519Y-71983927D01*
X165785142Y-71995553D01*
X165792583Y-72007969D01*
X165798772Y-72021054D01*
X165803649Y-72034683D01*
X165807166Y-72048724D01*
X165809290Y-72063042D01*
X165810000Y-72077500D01*
X165810000Y-72422500D01*
X165809290Y-72436958D01*
X165807166Y-72451276D01*
X165803649Y-72465317D01*
X165798772Y-72478946D01*
X165792583Y-72492031D01*
X165785142Y-72504447D01*
X165776519Y-72516073D01*
X165766798Y-72526798D01*
X165756073Y-72536519D01*
X165744447Y-72545142D01*
X165732031Y-72552583D01*
X165718946Y-72558772D01*
X165705317Y-72563649D01*
X165691276Y-72567166D01*
X165676958Y-72569290D01*
X165662500Y-72570000D01*
X165367500Y-72570000D01*
X165353042Y-72569290D01*
X165338724Y-72567166D01*
X165324683Y-72563649D01*
X165311054Y-72558772D01*
X165297969Y-72552583D01*
X165285553Y-72545142D01*
X165273927Y-72536519D01*
X165263202Y-72526798D01*
X165253481Y-72516073D01*
X165244858Y-72504447D01*
X165237417Y-72492031D01*
X165231228Y-72478946D01*
X165226351Y-72465317D01*
X165222834Y-72451276D01*
X165220710Y-72436958D01*
X165220000Y-72422500D01*
X165220000Y-72077500D01*
X165220710Y-72063042D01*
X165222834Y-72048724D01*
X165226351Y-72034683D01*
X165231228Y-72021054D01*
X165237417Y-72007969D01*
X165244858Y-71995553D01*
X165253481Y-71983927D01*
X165263202Y-71973202D01*
X165273927Y-71963481D01*
X165285553Y-71954858D01*
X165297969Y-71947417D01*
X165311054Y-71941228D01*
X165324683Y-71936351D01*
X165338724Y-71932834D01*
X165353042Y-71930710D01*
X165367500Y-71930000D01*
X165662500Y-71930000D01*
X165676958Y-71930710D01*
X165676958Y-71930710D01*
G37*
D11*
X165515000Y-72250000D03*
D10*
G36*
X166646958Y-71930710D02*
G01*
X166661276Y-71932834D01*
X166675317Y-71936351D01*
X166688946Y-71941228D01*
X166702031Y-71947417D01*
X166714447Y-71954858D01*
X166726073Y-71963481D01*
X166736798Y-71973202D01*
X166746519Y-71983927D01*
X166755142Y-71995553D01*
X166762583Y-72007969D01*
X166768772Y-72021054D01*
X166773649Y-72034683D01*
X166777166Y-72048724D01*
X166779290Y-72063042D01*
X166780000Y-72077500D01*
X166780000Y-72422500D01*
X166779290Y-72436958D01*
X166777166Y-72451276D01*
X166773649Y-72465317D01*
X166768772Y-72478946D01*
X166762583Y-72492031D01*
X166755142Y-72504447D01*
X166746519Y-72516073D01*
X166736798Y-72526798D01*
X166726073Y-72536519D01*
X166714447Y-72545142D01*
X166702031Y-72552583D01*
X166688946Y-72558772D01*
X166675317Y-72563649D01*
X166661276Y-72567166D01*
X166646958Y-72569290D01*
X166632500Y-72570000D01*
X166337500Y-72570000D01*
X166323042Y-72569290D01*
X166308724Y-72567166D01*
X166294683Y-72563649D01*
X166281054Y-72558772D01*
X166267969Y-72552583D01*
X166255553Y-72545142D01*
X166243927Y-72536519D01*
X166233202Y-72526798D01*
X166223481Y-72516073D01*
X166214858Y-72504447D01*
X166207417Y-72492031D01*
X166201228Y-72478946D01*
X166196351Y-72465317D01*
X166192834Y-72451276D01*
X166190710Y-72436958D01*
X166190000Y-72422500D01*
X166190000Y-72077500D01*
X166190710Y-72063042D01*
X166192834Y-72048724D01*
X166196351Y-72034683D01*
X166201228Y-72021054D01*
X166207417Y-72007969D01*
X166214858Y-71995553D01*
X166223481Y-71983927D01*
X166233202Y-71973202D01*
X166243927Y-71963481D01*
X166255553Y-71954858D01*
X166267969Y-71947417D01*
X166281054Y-71941228D01*
X166294683Y-71936351D01*
X166308724Y-71932834D01*
X166323042Y-71930710D01*
X166337500Y-71930000D01*
X166632500Y-71930000D01*
X166646958Y-71930710D01*
X166646958Y-71930710D01*
G37*
D11*
X166485000Y-72250000D03*
D21*
X192225000Y-46320000D03*
X195775000Y-46320000D03*
D22*
X191500000Y-40650000D03*
D23*
X192800000Y-40650000D03*
X193600000Y-40650000D03*
X194400000Y-40650000D03*
X195200000Y-40650000D03*
D22*
X196500000Y-40650000D03*
X196500000Y-78150000D03*
D23*
X195200000Y-78150000D03*
X194400000Y-78150000D03*
X193600000Y-78150000D03*
X192800000Y-78150000D03*
D22*
X191500000Y-78150000D03*
D21*
X195775000Y-83820000D03*
X192225000Y-83820000D03*
D22*
X196500000Y-53650000D03*
D23*
X195200000Y-53650000D03*
X194400000Y-53650000D03*
X193600000Y-53650000D03*
X192800000Y-53650000D03*
D22*
X191500000Y-53650000D03*
D21*
X195775000Y-59320000D03*
X192225000Y-59320000D03*
X192225000Y-96320000D03*
X195775000Y-96320000D03*
D22*
X191500000Y-90650000D03*
D23*
X192800000Y-90650000D03*
X193600000Y-90650000D03*
X194400000Y-90650000D03*
X195200000Y-90650000D03*
D22*
X196500000Y-90650000D03*
D21*
X192225000Y-71320000D03*
X195775000Y-71320000D03*
D22*
X191500000Y-65650000D03*
D23*
X192800000Y-65650000D03*
X193600000Y-65650000D03*
X194400000Y-65650000D03*
X195200000Y-65650000D03*
D22*
X196500000Y-65650000D03*
X196500000Y-103150000D03*
D23*
X195200000Y-103150000D03*
X194400000Y-103150000D03*
X193600000Y-103150000D03*
X192800000Y-103150000D03*
D22*
X191500000Y-103150000D03*
D21*
X195775000Y-108820000D03*
X192225000Y-108820000D03*
M02*
