G04 #@! TF.GenerationSoftware,KiCad,Pcbnew,5.1.3-ffb9f22~84~ubuntu18.04.1*
G04 #@! TF.CreationDate,2019-08-04T06:46:36-07:00*
G04 #@! TF.ProjectId,body_part_power,626f6479-5f70-4617-9274-5f706f776572,rev?*
G04 #@! TF.SameCoordinates,Original*
G04 #@! TF.FileFunction,Legend,Bot*
G04 #@! TF.FilePolarity,Positive*
%FSLAX46Y46*%
G04 Gerber Fmt 4.6, Leading zero omitted, Abs format (unit mm)*
G04 Created by KiCad (PCBNEW 5.1.3-ffb9f22~84~ubuntu18.04.1) date 2019-08-04 06:46:36*
%MOMM*%
%LPD*%
G04 APERTURE LIST*
%ADD10C,0.150000*%
G04 APERTURE END LIST*
D10*
X156761904Y-86500000D02*
X156857142Y-86452380D01*
X157000000Y-86452380D01*
X157142857Y-86500000D01*
X157238095Y-86595238D01*
X157285714Y-86690476D01*
X157333333Y-86880952D01*
X157333333Y-87023809D01*
X157285714Y-87214285D01*
X157238095Y-87309523D01*
X157142857Y-87404761D01*
X157000000Y-87452380D01*
X156904761Y-87452380D01*
X156761904Y-87404761D01*
X156714285Y-87357142D01*
X156714285Y-87023809D01*
X156904761Y-87023809D01*
X156285714Y-87452380D02*
X156285714Y-86452380D01*
X155714285Y-87452380D01*
X155714285Y-86452380D01*
X155238095Y-87452380D02*
X155238095Y-86452380D01*
X155000000Y-86452380D01*
X154857142Y-86500000D01*
X154761904Y-86595238D01*
X154714285Y-86690476D01*
X154666666Y-86880952D01*
X154666666Y-87023809D01*
X154714285Y-87214285D01*
X154761904Y-87309523D01*
X154857142Y-87404761D01*
X155000000Y-87452380D01*
X155238095Y-87452380D01*
X157976190Y-88952380D02*
X157357142Y-88952380D01*
X157690476Y-89333333D01*
X157547619Y-89333333D01*
X157452380Y-89380952D01*
X157404761Y-89428571D01*
X157357142Y-89523809D01*
X157357142Y-89761904D01*
X157404761Y-89857142D01*
X157452380Y-89904761D01*
X157547619Y-89952380D01*
X157833333Y-89952380D01*
X157928571Y-89904761D01*
X157976190Y-89857142D01*
X156928571Y-89857142D02*
X156880952Y-89904761D01*
X156928571Y-89952380D01*
X156976190Y-89904761D01*
X156928571Y-89857142D01*
X156928571Y-89952380D01*
X156547619Y-88952380D02*
X155928571Y-88952380D01*
X156261904Y-89333333D01*
X156119047Y-89333333D01*
X156023809Y-89380952D01*
X155976190Y-89428571D01*
X155928571Y-89523809D01*
X155928571Y-89761904D01*
X155976190Y-89857142D01*
X156023809Y-89904761D01*
X156119047Y-89952380D01*
X156404761Y-89952380D01*
X156500000Y-89904761D01*
X156547619Y-89857142D01*
X155642857Y-88952380D02*
X155309523Y-89952380D01*
X154976190Y-88952380D01*
X164880952Y-99428571D02*
X164547619Y-99428571D01*
X164404761Y-99952380D02*
X164880952Y-99952380D01*
X164880952Y-98952380D01*
X164404761Y-98952380D01*
X163976190Y-99952380D02*
X163976190Y-98952380D01*
X163404761Y-99952380D01*
X163404761Y-98952380D01*
X162976190Y-99666666D02*
X162500000Y-99666666D01*
X163071428Y-99952380D02*
X162738095Y-98952380D01*
X162404761Y-99952380D01*
X161738095Y-99428571D02*
X161595238Y-99476190D01*
X161547619Y-99523809D01*
X161500000Y-99619047D01*
X161500000Y-99761904D01*
X161547619Y-99857142D01*
X161595238Y-99904761D01*
X161690476Y-99952380D01*
X162071428Y-99952380D01*
X162071428Y-98952380D01*
X161738095Y-98952380D01*
X161642857Y-99000000D01*
X161595238Y-99047619D01*
X161547619Y-99142857D01*
X161547619Y-99238095D01*
X161595238Y-99333333D01*
X161642857Y-99380952D01*
X161738095Y-99428571D01*
X162071428Y-99428571D01*
X160595238Y-99952380D02*
X161071428Y-99952380D01*
X161071428Y-98952380D01*
X160261904Y-99428571D02*
X159928571Y-99428571D01*
X159785714Y-99952380D02*
X160261904Y-99952380D01*
X160261904Y-98952380D01*
X159785714Y-98952380D01*
X159595238Y-100047619D02*
X158833333Y-100047619D01*
X158642857Y-99904761D02*
X158547619Y-99952380D01*
X158357142Y-99952380D01*
X158261904Y-99904761D01*
X158214285Y-99809523D01*
X158214285Y-99761904D01*
X158261904Y-99666666D01*
X158357142Y-99619047D01*
X158500000Y-99619047D01*
X158595238Y-99571428D01*
X158642857Y-99476190D01*
X158642857Y-99428571D01*
X158595238Y-99333333D01*
X158500000Y-99285714D01*
X158357142Y-99285714D01*
X158261904Y-99333333D01*
X157785714Y-99285714D02*
X157785714Y-100285714D01*
X157785714Y-99333333D02*
X157690476Y-99285714D01*
X157500000Y-99285714D01*
X157404761Y-99333333D01*
X157357142Y-99380952D01*
X157309523Y-99476190D01*
X157309523Y-99761904D01*
X157357142Y-99857142D01*
X157404761Y-99904761D01*
X157500000Y-99952380D01*
X157690476Y-99952380D01*
X157785714Y-99904761D01*
X156880952Y-99952380D02*
X156880952Y-99285714D01*
X156880952Y-98952380D02*
X156928571Y-99000000D01*
X156880952Y-99047619D01*
X156833333Y-99000000D01*
X156880952Y-98952380D01*
X156880952Y-99047619D01*
X156404761Y-99285714D02*
X156404761Y-99952380D01*
X156404761Y-99380952D02*
X156357142Y-99333333D01*
X156261904Y-99285714D01*
X156119047Y-99285714D01*
X156023809Y-99333333D01*
X155976190Y-99428571D01*
X155976190Y-99952380D01*
X155119047Y-99904761D02*
X155214285Y-99952380D01*
X155404761Y-99952380D01*
X155500000Y-99904761D01*
X155547619Y-99809523D01*
X155547619Y-99428571D01*
X155500000Y-99333333D01*
X155404761Y-99285714D01*
X155214285Y-99285714D01*
X155119047Y-99333333D01*
X155071428Y-99428571D01*
X155071428Y-99523809D01*
X155547619Y-99619047D01*
X166690476Y-101928571D02*
X166357142Y-101928571D01*
X166214285Y-102452380D02*
X166690476Y-102452380D01*
X166690476Y-101452380D01*
X166214285Y-101452380D01*
X165785714Y-102452380D02*
X165785714Y-101452380D01*
X165214285Y-102452380D01*
X165214285Y-101452380D01*
X164785714Y-102166666D02*
X164309523Y-102166666D01*
X164880952Y-102452380D02*
X164547619Y-101452380D01*
X164214285Y-102452380D01*
X163547619Y-101928571D02*
X163404761Y-101976190D01*
X163357142Y-102023809D01*
X163309523Y-102119047D01*
X163309523Y-102261904D01*
X163357142Y-102357142D01*
X163404761Y-102404761D01*
X163500000Y-102452380D01*
X163880952Y-102452380D01*
X163880952Y-101452380D01*
X163547619Y-101452380D01*
X163452380Y-101500000D01*
X163404761Y-101547619D01*
X163357142Y-101642857D01*
X163357142Y-101738095D01*
X163404761Y-101833333D01*
X163452380Y-101880952D01*
X163547619Y-101928571D01*
X163880952Y-101928571D01*
X162404761Y-102452380D02*
X162880952Y-102452380D01*
X162880952Y-101452380D01*
X162071428Y-101928571D02*
X161738095Y-101928571D01*
X161595238Y-102452380D02*
X162071428Y-102452380D01*
X162071428Y-101452380D01*
X161595238Y-101452380D01*
X161404761Y-102547619D02*
X160642857Y-102547619D01*
X160261904Y-102452380D02*
X160357142Y-102404761D01*
X160404761Y-102309523D01*
X160404761Y-101452380D01*
X159500000Y-102404761D02*
X159595238Y-102452380D01*
X159785714Y-102452380D01*
X159880952Y-102404761D01*
X159928571Y-102309523D01*
X159928571Y-101928571D01*
X159880952Y-101833333D01*
X159785714Y-101785714D01*
X159595238Y-101785714D01*
X159500000Y-101833333D01*
X159452380Y-101928571D01*
X159452380Y-102023809D01*
X159928571Y-102119047D01*
X158595238Y-101785714D02*
X158595238Y-102595238D01*
X158642857Y-102690476D01*
X158690476Y-102738095D01*
X158785714Y-102785714D01*
X158928571Y-102785714D01*
X159023809Y-102738095D01*
X158595238Y-102404761D02*
X158690476Y-102452380D01*
X158880952Y-102452380D01*
X158976190Y-102404761D01*
X159023809Y-102357142D01*
X159071428Y-102261904D01*
X159071428Y-101976190D01*
X159023809Y-101880952D01*
X158976190Y-101833333D01*
X158880952Y-101785714D01*
X158690476Y-101785714D01*
X158595238Y-101833333D01*
X158357142Y-102547619D02*
X157595238Y-102547619D01*
X157214285Y-102452380D02*
X157309523Y-102404761D01*
X157357142Y-102309523D01*
X157357142Y-101452380D01*
X156452380Y-102404761D02*
X156547619Y-102452380D01*
X156738095Y-102452380D01*
X156833333Y-102404761D01*
X156880952Y-102309523D01*
X156880952Y-101928571D01*
X156833333Y-101833333D01*
X156738095Y-101785714D01*
X156547619Y-101785714D01*
X156452380Y-101833333D01*
X156404761Y-101928571D01*
X156404761Y-102023809D01*
X156880952Y-102119047D01*
X156119047Y-101785714D02*
X155738095Y-101785714D01*
X155976190Y-102452380D02*
X155976190Y-101595238D01*
X155928571Y-101500000D01*
X155833333Y-101452380D01*
X155738095Y-101452380D01*
X155547619Y-101785714D02*
X155166666Y-101785714D01*
X155404761Y-101452380D02*
X155404761Y-102309523D01*
X155357142Y-102404761D01*
X155261904Y-102452380D01*
X155166666Y-102452380D01*
X167952380Y-94428571D02*
X167619047Y-94428571D01*
X167476190Y-94952380D02*
X167952380Y-94952380D01*
X167952380Y-93952380D01*
X167476190Y-93952380D01*
X167047619Y-94952380D02*
X167047619Y-93952380D01*
X166476190Y-94952380D01*
X166476190Y-93952380D01*
X166047619Y-94666666D02*
X165571428Y-94666666D01*
X166142857Y-94952380D02*
X165809523Y-93952380D01*
X165476190Y-94952380D01*
X164809523Y-94428571D02*
X164666666Y-94476190D01*
X164619047Y-94523809D01*
X164571428Y-94619047D01*
X164571428Y-94761904D01*
X164619047Y-94857142D01*
X164666666Y-94904761D01*
X164761904Y-94952380D01*
X165142857Y-94952380D01*
X165142857Y-93952380D01*
X164809523Y-93952380D01*
X164714285Y-94000000D01*
X164666666Y-94047619D01*
X164619047Y-94142857D01*
X164619047Y-94238095D01*
X164666666Y-94333333D01*
X164714285Y-94380952D01*
X164809523Y-94428571D01*
X165142857Y-94428571D01*
X163666666Y-94952380D02*
X164142857Y-94952380D01*
X164142857Y-93952380D01*
X163333333Y-94428571D02*
X163000000Y-94428571D01*
X162857142Y-94952380D02*
X163333333Y-94952380D01*
X163333333Y-93952380D01*
X162857142Y-93952380D01*
X162666666Y-95047619D02*
X161904761Y-95047619D01*
X161238095Y-94952380D02*
X161238095Y-94428571D01*
X161285714Y-94333333D01*
X161380952Y-94285714D01*
X161571428Y-94285714D01*
X161666666Y-94333333D01*
X161238095Y-94904761D02*
X161333333Y-94952380D01*
X161571428Y-94952380D01*
X161666666Y-94904761D01*
X161714285Y-94809523D01*
X161714285Y-94714285D01*
X161666666Y-94619047D01*
X161571428Y-94571428D01*
X161333333Y-94571428D01*
X161238095Y-94523809D01*
X160761904Y-94952380D02*
X160761904Y-94285714D01*
X160761904Y-94476190D02*
X160714285Y-94380952D01*
X160666666Y-94333333D01*
X160571428Y-94285714D01*
X160476190Y-94285714D01*
X160142857Y-94952380D02*
X160142857Y-94285714D01*
X160142857Y-94380952D02*
X160095238Y-94333333D01*
X160000000Y-94285714D01*
X159857142Y-94285714D01*
X159761904Y-94333333D01*
X159714285Y-94428571D01*
X159714285Y-94952380D01*
X159714285Y-94428571D02*
X159666666Y-94333333D01*
X159571428Y-94285714D01*
X159428571Y-94285714D01*
X159333333Y-94333333D01*
X159285714Y-94428571D01*
X159285714Y-94952380D01*
X159047619Y-95047619D02*
X158285714Y-95047619D01*
X158047619Y-94952380D02*
X158047619Y-94285714D01*
X158047619Y-94476190D02*
X158000000Y-94380952D01*
X157952380Y-94333333D01*
X157857142Y-94285714D01*
X157761904Y-94285714D01*
X157428571Y-94952380D02*
X157428571Y-94285714D01*
X157428571Y-93952380D02*
X157476190Y-94000000D01*
X157428571Y-94047619D01*
X157380952Y-94000000D01*
X157428571Y-93952380D01*
X157428571Y-94047619D01*
X156523809Y-94285714D02*
X156523809Y-95095238D01*
X156571428Y-95190476D01*
X156619047Y-95238095D01*
X156714285Y-95285714D01*
X156857142Y-95285714D01*
X156952380Y-95238095D01*
X156523809Y-94904761D02*
X156619047Y-94952380D01*
X156809523Y-94952380D01*
X156904761Y-94904761D01*
X156952380Y-94857142D01*
X157000000Y-94761904D01*
X157000000Y-94476190D01*
X156952380Y-94380952D01*
X156904761Y-94333333D01*
X156809523Y-94285714D01*
X156619047Y-94285714D01*
X156523809Y-94333333D01*
X156047619Y-94952380D02*
X156047619Y-93952380D01*
X155619047Y-94952380D02*
X155619047Y-94428571D01*
X155666666Y-94333333D01*
X155761904Y-94285714D01*
X155904761Y-94285714D01*
X156000000Y-94333333D01*
X156047619Y-94380952D01*
X155285714Y-94285714D02*
X154904761Y-94285714D01*
X155142857Y-93952380D02*
X155142857Y-94809523D01*
X155095238Y-94904761D01*
X155000000Y-94952380D01*
X154904761Y-94952380D01*
X164119047Y-96928571D02*
X163785714Y-96928571D01*
X163642857Y-97452380D02*
X164119047Y-97452380D01*
X164119047Y-96452380D01*
X163642857Y-96452380D01*
X163214285Y-97452380D02*
X163214285Y-96452380D01*
X162642857Y-97452380D01*
X162642857Y-96452380D01*
X162214285Y-97166666D02*
X161738095Y-97166666D01*
X162309523Y-97452380D02*
X161976190Y-96452380D01*
X161642857Y-97452380D01*
X160976190Y-96928571D02*
X160833333Y-96976190D01*
X160785714Y-97023809D01*
X160738095Y-97119047D01*
X160738095Y-97261904D01*
X160785714Y-97357142D01*
X160833333Y-97404761D01*
X160928571Y-97452380D01*
X161309523Y-97452380D01*
X161309523Y-96452380D01*
X160976190Y-96452380D01*
X160880952Y-96500000D01*
X160833333Y-96547619D01*
X160785714Y-96642857D01*
X160785714Y-96738095D01*
X160833333Y-96833333D01*
X160880952Y-96880952D01*
X160976190Y-96928571D01*
X161309523Y-96928571D01*
X159833333Y-97452380D02*
X160309523Y-97452380D01*
X160309523Y-96452380D01*
X159500000Y-96928571D02*
X159166666Y-96928571D01*
X159023809Y-97452380D02*
X159500000Y-97452380D01*
X159500000Y-96452380D01*
X159023809Y-96452380D01*
X158833333Y-97547619D02*
X158071428Y-97547619D01*
X157833333Y-96785714D02*
X157833333Y-97452380D01*
X157833333Y-96880952D02*
X157785714Y-96833333D01*
X157690476Y-96785714D01*
X157547619Y-96785714D01*
X157452380Y-96833333D01*
X157404761Y-96928571D01*
X157404761Y-97452380D01*
X156547619Y-97404761D02*
X156642857Y-97452380D01*
X156833333Y-97452380D01*
X156928571Y-97404761D01*
X156976190Y-97309523D01*
X156976190Y-96928571D01*
X156928571Y-96833333D01*
X156833333Y-96785714D01*
X156642857Y-96785714D01*
X156547619Y-96833333D01*
X156500000Y-96928571D01*
X156500000Y-97023809D01*
X156976190Y-97119047D01*
X155642857Y-97404761D02*
X155738095Y-97452380D01*
X155928571Y-97452380D01*
X156023809Y-97404761D01*
X156071428Y-97357142D01*
X156119047Y-97261904D01*
X156119047Y-96976190D01*
X156071428Y-96880952D01*
X156023809Y-96833333D01*
X155928571Y-96785714D01*
X155738095Y-96785714D01*
X155642857Y-96833333D01*
X155214285Y-97452380D02*
X155214285Y-96452380D01*
X155119047Y-97071428D02*
X154833333Y-97452380D01*
X154833333Y-96785714D02*
X155214285Y-97166666D01*
X166976190Y-91928571D02*
X166642857Y-91928571D01*
X166500000Y-92452380D02*
X166976190Y-92452380D01*
X166976190Y-91452380D01*
X166500000Y-91452380D01*
X166071428Y-92452380D02*
X166071428Y-91452380D01*
X165500000Y-92452380D01*
X165500000Y-91452380D01*
X165071428Y-92166666D02*
X164595238Y-92166666D01*
X165166666Y-92452380D02*
X164833333Y-91452380D01*
X164500000Y-92452380D01*
X163833333Y-91928571D02*
X163690476Y-91976190D01*
X163642857Y-92023809D01*
X163595238Y-92119047D01*
X163595238Y-92261904D01*
X163642857Y-92357142D01*
X163690476Y-92404761D01*
X163785714Y-92452380D01*
X164166666Y-92452380D01*
X164166666Y-91452380D01*
X163833333Y-91452380D01*
X163738095Y-91500000D01*
X163690476Y-91547619D01*
X163642857Y-91642857D01*
X163642857Y-91738095D01*
X163690476Y-91833333D01*
X163738095Y-91880952D01*
X163833333Y-91928571D01*
X164166666Y-91928571D01*
X162690476Y-92452380D02*
X163166666Y-92452380D01*
X163166666Y-91452380D01*
X162357142Y-91928571D02*
X162023809Y-91928571D01*
X161880952Y-92452380D02*
X162357142Y-92452380D01*
X162357142Y-91452380D01*
X161880952Y-91452380D01*
X161690476Y-92547619D02*
X160928571Y-92547619D01*
X160261904Y-92452380D02*
X160261904Y-91928571D01*
X160309523Y-91833333D01*
X160404761Y-91785714D01*
X160595238Y-91785714D01*
X160690476Y-91833333D01*
X160261904Y-92404761D02*
X160357142Y-92452380D01*
X160595238Y-92452380D01*
X160690476Y-92404761D01*
X160738095Y-92309523D01*
X160738095Y-92214285D01*
X160690476Y-92119047D01*
X160595238Y-92071428D01*
X160357142Y-92071428D01*
X160261904Y-92023809D01*
X159785714Y-92452380D02*
X159785714Y-91785714D01*
X159785714Y-91976190D02*
X159738095Y-91880952D01*
X159690476Y-91833333D01*
X159595238Y-91785714D01*
X159500000Y-91785714D01*
X159166666Y-92452380D02*
X159166666Y-91785714D01*
X159166666Y-91880952D02*
X159119047Y-91833333D01*
X159023809Y-91785714D01*
X158880952Y-91785714D01*
X158785714Y-91833333D01*
X158738095Y-91928571D01*
X158738095Y-92452380D01*
X158738095Y-91928571D02*
X158690476Y-91833333D01*
X158595238Y-91785714D01*
X158452380Y-91785714D01*
X158357142Y-91833333D01*
X158309523Y-91928571D01*
X158309523Y-92452380D01*
X158071428Y-92547619D02*
X157309523Y-92547619D01*
X156928571Y-92452380D02*
X157023809Y-92404761D01*
X157071428Y-92309523D01*
X157071428Y-91452380D01*
X156166666Y-92404761D02*
X156261904Y-92452380D01*
X156452380Y-92452380D01*
X156547619Y-92404761D01*
X156595238Y-92309523D01*
X156595238Y-91928571D01*
X156547619Y-91833333D01*
X156452380Y-91785714D01*
X156261904Y-91785714D01*
X156166666Y-91833333D01*
X156119047Y-91928571D01*
X156119047Y-92023809D01*
X156595238Y-92119047D01*
X155833333Y-91785714D02*
X155452380Y-91785714D01*
X155690476Y-92452380D02*
X155690476Y-91595238D01*
X155642857Y-91500000D01*
X155547619Y-91452380D01*
X155452380Y-91452380D01*
X155261904Y-91785714D02*
X154880952Y-91785714D01*
X155119047Y-91452380D02*
X155119047Y-92309523D01*
X155071428Y-92404761D01*
X154976190Y-92452380D01*
X154880952Y-92452380D01*
X167666666Y-104428571D02*
X167333333Y-104428571D01*
X167190476Y-104952380D02*
X167666666Y-104952380D01*
X167666666Y-103952380D01*
X167190476Y-103952380D01*
X166761904Y-104952380D02*
X166761904Y-103952380D01*
X166190476Y-104952380D01*
X166190476Y-103952380D01*
X165761904Y-104666666D02*
X165285714Y-104666666D01*
X165857142Y-104952380D02*
X165523809Y-103952380D01*
X165190476Y-104952380D01*
X164523809Y-104428571D02*
X164380952Y-104476190D01*
X164333333Y-104523809D01*
X164285714Y-104619047D01*
X164285714Y-104761904D01*
X164333333Y-104857142D01*
X164380952Y-104904761D01*
X164476190Y-104952380D01*
X164857142Y-104952380D01*
X164857142Y-103952380D01*
X164523809Y-103952380D01*
X164428571Y-104000000D01*
X164380952Y-104047619D01*
X164333333Y-104142857D01*
X164333333Y-104238095D01*
X164380952Y-104333333D01*
X164428571Y-104380952D01*
X164523809Y-104428571D01*
X164857142Y-104428571D01*
X163380952Y-104952380D02*
X163857142Y-104952380D01*
X163857142Y-103952380D01*
X163047619Y-104428571D02*
X162714285Y-104428571D01*
X162571428Y-104952380D02*
X163047619Y-104952380D01*
X163047619Y-103952380D01*
X162571428Y-103952380D01*
X162380952Y-105047619D02*
X161619047Y-105047619D01*
X161238095Y-104952380D02*
X161333333Y-104904761D01*
X161380952Y-104809523D01*
X161380952Y-103952380D01*
X160476190Y-104904761D02*
X160571428Y-104952380D01*
X160761904Y-104952380D01*
X160857142Y-104904761D01*
X160904761Y-104809523D01*
X160904761Y-104428571D01*
X160857142Y-104333333D01*
X160761904Y-104285714D01*
X160571428Y-104285714D01*
X160476190Y-104333333D01*
X160428571Y-104428571D01*
X160428571Y-104523809D01*
X160904761Y-104619047D01*
X159571428Y-104285714D02*
X159571428Y-105095238D01*
X159619047Y-105190476D01*
X159666666Y-105238095D01*
X159761904Y-105285714D01*
X159904761Y-105285714D01*
X160000000Y-105238095D01*
X159571428Y-104904761D02*
X159666666Y-104952380D01*
X159857142Y-104952380D01*
X159952380Y-104904761D01*
X160000000Y-104857142D01*
X160047619Y-104761904D01*
X160047619Y-104476190D01*
X160000000Y-104380952D01*
X159952380Y-104333333D01*
X159857142Y-104285714D01*
X159666666Y-104285714D01*
X159571428Y-104333333D01*
X159333333Y-105047619D02*
X158571428Y-105047619D01*
X158333333Y-104952380D02*
X158333333Y-104285714D01*
X158333333Y-104476190D02*
X158285714Y-104380952D01*
X158238095Y-104333333D01*
X158142857Y-104285714D01*
X158047619Y-104285714D01*
X157714285Y-104952380D02*
X157714285Y-104285714D01*
X157714285Y-103952380D02*
X157761904Y-104000000D01*
X157714285Y-104047619D01*
X157666666Y-104000000D01*
X157714285Y-103952380D01*
X157714285Y-104047619D01*
X156809523Y-104285714D02*
X156809523Y-105095238D01*
X156857142Y-105190476D01*
X156904761Y-105238095D01*
X157000000Y-105285714D01*
X157142857Y-105285714D01*
X157238095Y-105238095D01*
X156809523Y-104904761D02*
X156904761Y-104952380D01*
X157095238Y-104952380D01*
X157190476Y-104904761D01*
X157238095Y-104857142D01*
X157285714Y-104761904D01*
X157285714Y-104476190D01*
X157238095Y-104380952D01*
X157190476Y-104333333D01*
X157095238Y-104285714D01*
X156904761Y-104285714D01*
X156809523Y-104333333D01*
X156333333Y-104952380D02*
X156333333Y-103952380D01*
X155904761Y-104952380D02*
X155904761Y-104428571D01*
X155952380Y-104333333D01*
X156047619Y-104285714D01*
X156190476Y-104285714D01*
X156285714Y-104333333D01*
X156333333Y-104380952D01*
X155571428Y-104285714D02*
X155190476Y-104285714D01*
X155428571Y-103952380D02*
X155428571Y-104809523D01*
X155380952Y-104904761D01*
X155285714Y-104952380D01*
X155190476Y-104952380D01*
X161952380Y-75952380D02*
X161761904Y-75952380D01*
X161666666Y-76000000D01*
X161571428Y-76095238D01*
X161523809Y-76285714D01*
X161523809Y-76619047D01*
X161571428Y-76809523D01*
X161666666Y-76904761D01*
X161761904Y-76952380D01*
X161952380Y-76952380D01*
X162047619Y-76904761D01*
X162142857Y-76809523D01*
X162190476Y-76619047D01*
X162190476Y-76285714D01*
X162142857Y-76095238D01*
X162047619Y-76000000D01*
X161952380Y-75952380D01*
X160523809Y-76857142D02*
X160571428Y-76904761D01*
X160714285Y-76952380D01*
X160809523Y-76952380D01*
X160952380Y-76904761D01*
X161047619Y-76809523D01*
X161095238Y-76714285D01*
X161142857Y-76523809D01*
X161142857Y-76380952D01*
X161095238Y-76190476D01*
X161047619Y-76095238D01*
X160952380Y-76000000D01*
X160809523Y-75952380D01*
X160714285Y-75952380D01*
X160571428Y-76000000D01*
X160523809Y-76047619D01*
X160095238Y-76952380D02*
X160095238Y-75952380D01*
X159857142Y-75952380D01*
X159714285Y-76000000D01*
X159619047Y-76095238D01*
X159571428Y-76190476D01*
X159523809Y-76380952D01*
X159523809Y-76523809D01*
X159571428Y-76714285D01*
X159619047Y-76809523D01*
X159714285Y-76904761D01*
X159857142Y-76952380D01*
X160095238Y-76952380D01*
X159333333Y-77047619D02*
X158571428Y-77047619D01*
X158380952Y-76904761D02*
X158285714Y-76952380D01*
X158095238Y-76952380D01*
X158000000Y-76904761D01*
X157952380Y-76809523D01*
X157952380Y-76761904D01*
X158000000Y-76666666D01*
X158095238Y-76619047D01*
X158238095Y-76619047D01*
X158333333Y-76571428D01*
X158380952Y-76476190D01*
X158380952Y-76428571D01*
X158333333Y-76333333D01*
X158238095Y-76285714D01*
X158095238Y-76285714D01*
X158000000Y-76333333D01*
X157523809Y-76285714D02*
X157523809Y-77285714D01*
X157523809Y-76333333D02*
X157428571Y-76285714D01*
X157238095Y-76285714D01*
X157142857Y-76333333D01*
X157095238Y-76380952D01*
X157047619Y-76476190D01*
X157047619Y-76761904D01*
X157095238Y-76857142D01*
X157142857Y-76904761D01*
X157238095Y-76952380D01*
X157428571Y-76952380D01*
X157523809Y-76904761D01*
X156619047Y-76952380D02*
X156619047Y-76285714D01*
X156619047Y-75952380D02*
X156666666Y-76000000D01*
X156619047Y-76047619D01*
X156571428Y-76000000D01*
X156619047Y-75952380D01*
X156619047Y-76047619D01*
X156142857Y-76285714D02*
X156142857Y-76952380D01*
X156142857Y-76380952D02*
X156095238Y-76333333D01*
X156000000Y-76285714D01*
X155857142Y-76285714D01*
X155761904Y-76333333D01*
X155714285Y-76428571D01*
X155714285Y-76952380D01*
X154857142Y-76904761D02*
X154952380Y-76952380D01*
X155142857Y-76952380D01*
X155238095Y-76904761D01*
X155285714Y-76809523D01*
X155285714Y-76428571D01*
X155238095Y-76333333D01*
X155142857Y-76285714D01*
X154952380Y-76285714D01*
X154857142Y-76333333D01*
X154809523Y-76428571D01*
X154809523Y-76523809D01*
X155285714Y-76619047D01*
X163761904Y-78452380D02*
X163571428Y-78452380D01*
X163476190Y-78500000D01*
X163380952Y-78595238D01*
X163333333Y-78785714D01*
X163333333Y-79119047D01*
X163380952Y-79309523D01*
X163476190Y-79404761D01*
X163571428Y-79452380D01*
X163761904Y-79452380D01*
X163857142Y-79404761D01*
X163952380Y-79309523D01*
X164000000Y-79119047D01*
X164000000Y-78785714D01*
X163952380Y-78595238D01*
X163857142Y-78500000D01*
X163761904Y-78452380D01*
X162333333Y-79357142D02*
X162380952Y-79404761D01*
X162523809Y-79452380D01*
X162619047Y-79452380D01*
X162761904Y-79404761D01*
X162857142Y-79309523D01*
X162904761Y-79214285D01*
X162952380Y-79023809D01*
X162952380Y-78880952D01*
X162904761Y-78690476D01*
X162857142Y-78595238D01*
X162761904Y-78500000D01*
X162619047Y-78452380D01*
X162523809Y-78452380D01*
X162380952Y-78500000D01*
X162333333Y-78547619D01*
X161904761Y-79452380D02*
X161904761Y-78452380D01*
X161666666Y-78452380D01*
X161523809Y-78500000D01*
X161428571Y-78595238D01*
X161380952Y-78690476D01*
X161333333Y-78880952D01*
X161333333Y-79023809D01*
X161380952Y-79214285D01*
X161428571Y-79309523D01*
X161523809Y-79404761D01*
X161666666Y-79452380D01*
X161904761Y-79452380D01*
X161142857Y-79547619D02*
X160380952Y-79547619D01*
X160000000Y-79452380D02*
X160095238Y-79404761D01*
X160142857Y-79309523D01*
X160142857Y-78452380D01*
X159238095Y-79404761D02*
X159333333Y-79452380D01*
X159523809Y-79452380D01*
X159619047Y-79404761D01*
X159666666Y-79309523D01*
X159666666Y-78928571D01*
X159619047Y-78833333D01*
X159523809Y-78785714D01*
X159333333Y-78785714D01*
X159238095Y-78833333D01*
X159190476Y-78928571D01*
X159190476Y-79023809D01*
X159666666Y-79119047D01*
X158333333Y-78785714D02*
X158333333Y-79595238D01*
X158380952Y-79690476D01*
X158428571Y-79738095D01*
X158523809Y-79785714D01*
X158666666Y-79785714D01*
X158761904Y-79738095D01*
X158333333Y-79404761D02*
X158428571Y-79452380D01*
X158619047Y-79452380D01*
X158714285Y-79404761D01*
X158761904Y-79357142D01*
X158809523Y-79261904D01*
X158809523Y-78976190D01*
X158761904Y-78880952D01*
X158714285Y-78833333D01*
X158619047Y-78785714D01*
X158428571Y-78785714D01*
X158333333Y-78833333D01*
X158095238Y-79547619D02*
X157333333Y-79547619D01*
X156952380Y-79452380D02*
X157047619Y-79404761D01*
X157095238Y-79309523D01*
X157095238Y-78452380D01*
X156190476Y-79404761D02*
X156285714Y-79452380D01*
X156476190Y-79452380D01*
X156571428Y-79404761D01*
X156619047Y-79309523D01*
X156619047Y-78928571D01*
X156571428Y-78833333D01*
X156476190Y-78785714D01*
X156285714Y-78785714D01*
X156190476Y-78833333D01*
X156142857Y-78928571D01*
X156142857Y-79023809D01*
X156619047Y-79119047D01*
X155857142Y-78785714D02*
X155476190Y-78785714D01*
X155714285Y-79452380D02*
X155714285Y-78595238D01*
X155666666Y-78500000D01*
X155571428Y-78452380D01*
X155476190Y-78452380D01*
X155285714Y-78785714D02*
X154904761Y-78785714D01*
X155142857Y-78452380D02*
X155142857Y-79309523D01*
X155095238Y-79404761D01*
X155000000Y-79452380D01*
X154904761Y-79452380D01*
X165023809Y-70452380D02*
X164833333Y-70452380D01*
X164738095Y-70500000D01*
X164642857Y-70595238D01*
X164595238Y-70785714D01*
X164595238Y-71119047D01*
X164642857Y-71309523D01*
X164738095Y-71404761D01*
X164833333Y-71452380D01*
X165023809Y-71452380D01*
X165119047Y-71404761D01*
X165214285Y-71309523D01*
X165261904Y-71119047D01*
X165261904Y-70785714D01*
X165214285Y-70595238D01*
X165119047Y-70500000D01*
X165023809Y-70452380D01*
X163595238Y-71357142D02*
X163642857Y-71404761D01*
X163785714Y-71452380D01*
X163880952Y-71452380D01*
X164023809Y-71404761D01*
X164119047Y-71309523D01*
X164166666Y-71214285D01*
X164214285Y-71023809D01*
X164214285Y-70880952D01*
X164166666Y-70690476D01*
X164119047Y-70595238D01*
X164023809Y-70500000D01*
X163880952Y-70452380D01*
X163785714Y-70452380D01*
X163642857Y-70500000D01*
X163595238Y-70547619D01*
X163166666Y-71452380D02*
X163166666Y-70452380D01*
X162928571Y-70452380D01*
X162785714Y-70500000D01*
X162690476Y-70595238D01*
X162642857Y-70690476D01*
X162595238Y-70880952D01*
X162595238Y-71023809D01*
X162642857Y-71214285D01*
X162690476Y-71309523D01*
X162785714Y-71404761D01*
X162928571Y-71452380D01*
X163166666Y-71452380D01*
X162404761Y-71547619D02*
X161642857Y-71547619D01*
X160976190Y-71452380D02*
X160976190Y-70928571D01*
X161023809Y-70833333D01*
X161119047Y-70785714D01*
X161309523Y-70785714D01*
X161404761Y-70833333D01*
X160976190Y-71404761D02*
X161071428Y-71452380D01*
X161309523Y-71452380D01*
X161404761Y-71404761D01*
X161452380Y-71309523D01*
X161452380Y-71214285D01*
X161404761Y-71119047D01*
X161309523Y-71071428D01*
X161071428Y-71071428D01*
X160976190Y-71023809D01*
X160500000Y-71452380D02*
X160500000Y-70785714D01*
X160500000Y-70976190D02*
X160452380Y-70880952D01*
X160404761Y-70833333D01*
X160309523Y-70785714D01*
X160214285Y-70785714D01*
X159880952Y-71452380D02*
X159880952Y-70785714D01*
X159880952Y-70880952D02*
X159833333Y-70833333D01*
X159738095Y-70785714D01*
X159595238Y-70785714D01*
X159500000Y-70833333D01*
X159452380Y-70928571D01*
X159452380Y-71452380D01*
X159452380Y-70928571D02*
X159404761Y-70833333D01*
X159309523Y-70785714D01*
X159166666Y-70785714D01*
X159071428Y-70833333D01*
X159023809Y-70928571D01*
X159023809Y-71452380D01*
X158785714Y-71547619D02*
X158023809Y-71547619D01*
X157785714Y-71452380D02*
X157785714Y-70785714D01*
X157785714Y-70976190D02*
X157738095Y-70880952D01*
X157690476Y-70833333D01*
X157595238Y-70785714D01*
X157500000Y-70785714D01*
X157166666Y-71452380D02*
X157166666Y-70785714D01*
X157166666Y-70452380D02*
X157214285Y-70500000D01*
X157166666Y-70547619D01*
X157119047Y-70500000D01*
X157166666Y-70452380D01*
X157166666Y-70547619D01*
X156261904Y-70785714D02*
X156261904Y-71595238D01*
X156309523Y-71690476D01*
X156357142Y-71738095D01*
X156452380Y-71785714D01*
X156595238Y-71785714D01*
X156690476Y-71738095D01*
X156261904Y-71404761D02*
X156357142Y-71452380D01*
X156547619Y-71452380D01*
X156642857Y-71404761D01*
X156690476Y-71357142D01*
X156738095Y-71261904D01*
X156738095Y-70976190D01*
X156690476Y-70880952D01*
X156642857Y-70833333D01*
X156547619Y-70785714D01*
X156357142Y-70785714D01*
X156261904Y-70833333D01*
X155785714Y-71452380D02*
X155785714Y-70452380D01*
X155357142Y-71452380D02*
X155357142Y-70928571D01*
X155404761Y-70833333D01*
X155500000Y-70785714D01*
X155642857Y-70785714D01*
X155738095Y-70833333D01*
X155785714Y-70880952D01*
X155023809Y-70785714D02*
X154642857Y-70785714D01*
X154880952Y-70452380D02*
X154880952Y-71309523D01*
X154833333Y-71404761D01*
X154738095Y-71452380D01*
X154642857Y-71452380D01*
X161690476Y-73452380D02*
X161500000Y-73452380D01*
X161404761Y-73500000D01*
X161309523Y-73595238D01*
X161261904Y-73785714D01*
X161261904Y-74119047D01*
X161309523Y-74309523D01*
X161404761Y-74404761D01*
X161500000Y-74452380D01*
X161690476Y-74452380D01*
X161785714Y-74404761D01*
X161880952Y-74309523D01*
X161928571Y-74119047D01*
X161928571Y-73785714D01*
X161880952Y-73595238D01*
X161785714Y-73500000D01*
X161690476Y-73452380D01*
X160261904Y-74357142D02*
X160309523Y-74404761D01*
X160452380Y-74452380D01*
X160547619Y-74452380D01*
X160690476Y-74404761D01*
X160785714Y-74309523D01*
X160833333Y-74214285D01*
X160880952Y-74023809D01*
X160880952Y-73880952D01*
X160833333Y-73690476D01*
X160785714Y-73595238D01*
X160690476Y-73500000D01*
X160547619Y-73452380D01*
X160452380Y-73452380D01*
X160309523Y-73500000D01*
X160261904Y-73547619D01*
X159833333Y-74452380D02*
X159833333Y-73452380D01*
X159595238Y-73452380D01*
X159452380Y-73500000D01*
X159357142Y-73595238D01*
X159309523Y-73690476D01*
X159261904Y-73880952D01*
X159261904Y-74023809D01*
X159309523Y-74214285D01*
X159357142Y-74309523D01*
X159452380Y-74404761D01*
X159595238Y-74452380D01*
X159833333Y-74452380D01*
X159071428Y-74547619D02*
X158309523Y-74547619D01*
X158071428Y-73785714D02*
X158071428Y-74452380D01*
X158071428Y-73880952D02*
X158023809Y-73833333D01*
X157928571Y-73785714D01*
X157785714Y-73785714D01*
X157690476Y-73833333D01*
X157642857Y-73928571D01*
X157642857Y-74452380D01*
X156785714Y-74404761D02*
X156880952Y-74452380D01*
X157071428Y-74452380D01*
X157166666Y-74404761D01*
X157214285Y-74309523D01*
X157214285Y-73928571D01*
X157166666Y-73833333D01*
X157071428Y-73785714D01*
X156880952Y-73785714D01*
X156785714Y-73833333D01*
X156738095Y-73928571D01*
X156738095Y-74023809D01*
X157214285Y-74119047D01*
X155880952Y-74404761D02*
X155976190Y-74452380D01*
X156166666Y-74452380D01*
X156261904Y-74404761D01*
X156309523Y-74357142D01*
X156357142Y-74261904D01*
X156357142Y-73976190D01*
X156309523Y-73880952D01*
X156261904Y-73833333D01*
X156166666Y-73785714D01*
X155976190Y-73785714D01*
X155880952Y-73833333D01*
X155452380Y-74452380D02*
X155452380Y-73452380D01*
X155357142Y-74071428D02*
X155071428Y-74452380D01*
X155071428Y-73785714D02*
X155452380Y-74166666D01*
X164047619Y-67952380D02*
X163857142Y-67952380D01*
X163761904Y-68000000D01*
X163666666Y-68095238D01*
X163619047Y-68285714D01*
X163619047Y-68619047D01*
X163666666Y-68809523D01*
X163761904Y-68904761D01*
X163857142Y-68952380D01*
X164047619Y-68952380D01*
X164142857Y-68904761D01*
X164238095Y-68809523D01*
X164285714Y-68619047D01*
X164285714Y-68285714D01*
X164238095Y-68095238D01*
X164142857Y-68000000D01*
X164047619Y-67952380D01*
X162619047Y-68857142D02*
X162666666Y-68904761D01*
X162809523Y-68952380D01*
X162904761Y-68952380D01*
X163047619Y-68904761D01*
X163142857Y-68809523D01*
X163190476Y-68714285D01*
X163238095Y-68523809D01*
X163238095Y-68380952D01*
X163190476Y-68190476D01*
X163142857Y-68095238D01*
X163047619Y-68000000D01*
X162904761Y-67952380D01*
X162809523Y-67952380D01*
X162666666Y-68000000D01*
X162619047Y-68047619D01*
X162190476Y-68952380D02*
X162190476Y-67952380D01*
X161952380Y-67952380D01*
X161809523Y-68000000D01*
X161714285Y-68095238D01*
X161666666Y-68190476D01*
X161619047Y-68380952D01*
X161619047Y-68523809D01*
X161666666Y-68714285D01*
X161714285Y-68809523D01*
X161809523Y-68904761D01*
X161952380Y-68952380D01*
X162190476Y-68952380D01*
X161428571Y-69047619D02*
X160666666Y-69047619D01*
X160000000Y-68952380D02*
X160000000Y-68428571D01*
X160047619Y-68333333D01*
X160142857Y-68285714D01*
X160333333Y-68285714D01*
X160428571Y-68333333D01*
X160000000Y-68904761D02*
X160095238Y-68952380D01*
X160333333Y-68952380D01*
X160428571Y-68904761D01*
X160476190Y-68809523D01*
X160476190Y-68714285D01*
X160428571Y-68619047D01*
X160333333Y-68571428D01*
X160095238Y-68571428D01*
X160000000Y-68523809D01*
X159523809Y-68952380D02*
X159523809Y-68285714D01*
X159523809Y-68476190D02*
X159476190Y-68380952D01*
X159428571Y-68333333D01*
X159333333Y-68285714D01*
X159238095Y-68285714D01*
X158904761Y-68952380D02*
X158904761Y-68285714D01*
X158904761Y-68380952D02*
X158857142Y-68333333D01*
X158761904Y-68285714D01*
X158619047Y-68285714D01*
X158523809Y-68333333D01*
X158476190Y-68428571D01*
X158476190Y-68952380D01*
X158476190Y-68428571D02*
X158428571Y-68333333D01*
X158333333Y-68285714D01*
X158190476Y-68285714D01*
X158095238Y-68333333D01*
X158047619Y-68428571D01*
X158047619Y-68952380D01*
X157809523Y-69047619D02*
X157047619Y-69047619D01*
X156666666Y-68952380D02*
X156761904Y-68904761D01*
X156809523Y-68809523D01*
X156809523Y-67952380D01*
X155904761Y-68904761D02*
X156000000Y-68952380D01*
X156190476Y-68952380D01*
X156285714Y-68904761D01*
X156333333Y-68809523D01*
X156333333Y-68428571D01*
X156285714Y-68333333D01*
X156190476Y-68285714D01*
X156000000Y-68285714D01*
X155904761Y-68333333D01*
X155857142Y-68428571D01*
X155857142Y-68523809D01*
X156333333Y-68619047D01*
X155571428Y-68285714D02*
X155190476Y-68285714D01*
X155428571Y-68952380D02*
X155428571Y-68095238D01*
X155380952Y-68000000D01*
X155285714Y-67952380D01*
X155190476Y-67952380D01*
X155000000Y-68285714D02*
X154619047Y-68285714D01*
X154857142Y-67952380D02*
X154857142Y-68809523D01*
X154809523Y-68904761D01*
X154714285Y-68952380D01*
X154619047Y-68952380D01*
X164738095Y-80952380D02*
X164547619Y-80952380D01*
X164452380Y-81000000D01*
X164357142Y-81095238D01*
X164309523Y-81285714D01*
X164309523Y-81619047D01*
X164357142Y-81809523D01*
X164452380Y-81904761D01*
X164547619Y-81952380D01*
X164738095Y-81952380D01*
X164833333Y-81904761D01*
X164928571Y-81809523D01*
X164976190Y-81619047D01*
X164976190Y-81285714D01*
X164928571Y-81095238D01*
X164833333Y-81000000D01*
X164738095Y-80952380D01*
X163309523Y-81857142D02*
X163357142Y-81904761D01*
X163500000Y-81952380D01*
X163595238Y-81952380D01*
X163738095Y-81904761D01*
X163833333Y-81809523D01*
X163880952Y-81714285D01*
X163928571Y-81523809D01*
X163928571Y-81380952D01*
X163880952Y-81190476D01*
X163833333Y-81095238D01*
X163738095Y-81000000D01*
X163595238Y-80952380D01*
X163500000Y-80952380D01*
X163357142Y-81000000D01*
X163309523Y-81047619D01*
X162880952Y-81952380D02*
X162880952Y-80952380D01*
X162642857Y-80952380D01*
X162500000Y-81000000D01*
X162404761Y-81095238D01*
X162357142Y-81190476D01*
X162309523Y-81380952D01*
X162309523Y-81523809D01*
X162357142Y-81714285D01*
X162404761Y-81809523D01*
X162500000Y-81904761D01*
X162642857Y-81952380D01*
X162880952Y-81952380D01*
X162119047Y-82047619D02*
X161357142Y-82047619D01*
X160976190Y-81952380D02*
X161071428Y-81904761D01*
X161119047Y-81809523D01*
X161119047Y-80952380D01*
X160214285Y-81904761D02*
X160309523Y-81952380D01*
X160500000Y-81952380D01*
X160595238Y-81904761D01*
X160642857Y-81809523D01*
X160642857Y-81428571D01*
X160595238Y-81333333D01*
X160500000Y-81285714D01*
X160309523Y-81285714D01*
X160214285Y-81333333D01*
X160166666Y-81428571D01*
X160166666Y-81523809D01*
X160642857Y-81619047D01*
X159309523Y-81285714D02*
X159309523Y-82095238D01*
X159357142Y-82190476D01*
X159404761Y-82238095D01*
X159500000Y-82285714D01*
X159642857Y-82285714D01*
X159738095Y-82238095D01*
X159309523Y-81904761D02*
X159404761Y-81952380D01*
X159595238Y-81952380D01*
X159690476Y-81904761D01*
X159738095Y-81857142D01*
X159785714Y-81761904D01*
X159785714Y-81476190D01*
X159738095Y-81380952D01*
X159690476Y-81333333D01*
X159595238Y-81285714D01*
X159404761Y-81285714D01*
X159309523Y-81333333D01*
X159071428Y-82047619D02*
X158309523Y-82047619D01*
X158071428Y-81952380D02*
X158071428Y-81285714D01*
X158071428Y-81476190D02*
X158023809Y-81380952D01*
X157976190Y-81333333D01*
X157880952Y-81285714D01*
X157785714Y-81285714D01*
X157452380Y-81952380D02*
X157452380Y-81285714D01*
X157452380Y-80952380D02*
X157500000Y-81000000D01*
X157452380Y-81047619D01*
X157404761Y-81000000D01*
X157452380Y-80952380D01*
X157452380Y-81047619D01*
X156547619Y-81285714D02*
X156547619Y-82095238D01*
X156595238Y-82190476D01*
X156642857Y-82238095D01*
X156738095Y-82285714D01*
X156880952Y-82285714D01*
X156976190Y-82238095D01*
X156547619Y-81904761D02*
X156642857Y-81952380D01*
X156833333Y-81952380D01*
X156928571Y-81904761D01*
X156976190Y-81857142D01*
X157023809Y-81761904D01*
X157023809Y-81476190D01*
X156976190Y-81380952D01*
X156928571Y-81333333D01*
X156833333Y-81285714D01*
X156642857Y-81285714D01*
X156547619Y-81333333D01*
X156071428Y-81952380D02*
X156071428Y-80952380D01*
X155642857Y-81952380D02*
X155642857Y-81428571D01*
X155690476Y-81333333D01*
X155785714Y-81285714D01*
X155928571Y-81285714D01*
X156023809Y-81333333D01*
X156071428Y-81380952D01*
X155309523Y-81285714D02*
X154928571Y-81285714D01*
X155166666Y-80952380D02*
X155166666Y-81809523D01*
X155119047Y-81904761D01*
X155023809Y-81952380D01*
X154928571Y-81952380D01*
X163309523Y-63857142D02*
X163357142Y-63904761D01*
X163500000Y-63952380D01*
X163595238Y-63952380D01*
X163738095Y-63904761D01*
X163833333Y-63809523D01*
X163880952Y-63714285D01*
X163928571Y-63523809D01*
X163928571Y-63380952D01*
X163880952Y-63190476D01*
X163833333Y-63095238D01*
X163738095Y-63000000D01*
X163595238Y-62952380D01*
X163500000Y-62952380D01*
X163357142Y-63000000D01*
X163309523Y-63047619D01*
X162928571Y-63904761D02*
X162785714Y-63952380D01*
X162547619Y-63952380D01*
X162452380Y-63904761D01*
X162404761Y-63857142D01*
X162357142Y-63761904D01*
X162357142Y-63666666D01*
X162404761Y-63571428D01*
X162452380Y-63523809D01*
X162547619Y-63476190D01*
X162738095Y-63428571D01*
X162833333Y-63380952D01*
X162880952Y-63333333D01*
X162928571Y-63238095D01*
X162928571Y-63142857D01*
X162880952Y-63047619D01*
X162833333Y-63000000D01*
X162738095Y-62952380D01*
X162500000Y-62952380D01*
X162357142Y-63000000D01*
X162166666Y-64047619D02*
X161404761Y-64047619D01*
X161023809Y-63952380D02*
X161119047Y-63904761D01*
X161166666Y-63809523D01*
X161166666Y-62952380D01*
X160261904Y-63904761D02*
X160357142Y-63952380D01*
X160547619Y-63952380D01*
X160642857Y-63904761D01*
X160690476Y-63809523D01*
X160690476Y-63428571D01*
X160642857Y-63333333D01*
X160547619Y-63285714D01*
X160357142Y-63285714D01*
X160261904Y-63333333D01*
X160214285Y-63428571D01*
X160214285Y-63523809D01*
X160690476Y-63619047D01*
X159357142Y-63285714D02*
X159357142Y-64095238D01*
X159404761Y-64190476D01*
X159452380Y-64238095D01*
X159547619Y-64285714D01*
X159690476Y-64285714D01*
X159785714Y-64238095D01*
X159357142Y-63904761D02*
X159452380Y-63952380D01*
X159642857Y-63952380D01*
X159738095Y-63904761D01*
X159785714Y-63857142D01*
X159833333Y-63761904D01*
X159833333Y-63476190D01*
X159785714Y-63380952D01*
X159738095Y-63333333D01*
X159642857Y-63285714D01*
X159452380Y-63285714D01*
X159357142Y-63333333D01*
X159119047Y-64047619D02*
X158357142Y-64047619D01*
X158119047Y-63952380D02*
X158119047Y-63285714D01*
X158119047Y-63476190D02*
X158071428Y-63380952D01*
X158023809Y-63333333D01*
X157928571Y-63285714D01*
X157833333Y-63285714D01*
X157500000Y-63952380D02*
X157500000Y-63285714D01*
X157500000Y-62952380D02*
X157547619Y-63000000D01*
X157500000Y-63047619D01*
X157452380Y-63000000D01*
X157500000Y-62952380D01*
X157500000Y-63047619D01*
X156595238Y-63285714D02*
X156595238Y-64095238D01*
X156642857Y-64190476D01*
X156690476Y-64238095D01*
X156785714Y-64285714D01*
X156928571Y-64285714D01*
X157023809Y-64238095D01*
X156595238Y-63904761D02*
X156690476Y-63952380D01*
X156880952Y-63952380D01*
X156976190Y-63904761D01*
X157023809Y-63857142D01*
X157071428Y-63761904D01*
X157071428Y-63476190D01*
X157023809Y-63380952D01*
X156976190Y-63333333D01*
X156880952Y-63285714D01*
X156690476Y-63285714D01*
X156595238Y-63333333D01*
X156119047Y-63952380D02*
X156119047Y-62952380D01*
X155690476Y-63952380D02*
X155690476Y-63428571D01*
X155738095Y-63333333D01*
X155833333Y-63285714D01*
X155976190Y-63285714D01*
X156071428Y-63333333D01*
X156119047Y-63380952D01*
X155357142Y-63285714D02*
X154976190Y-63285714D01*
X155214285Y-62952380D02*
X155214285Y-63809523D01*
X155166666Y-63904761D01*
X155071428Y-63952380D01*
X154976190Y-63952380D01*
X162333333Y-61357142D02*
X162380952Y-61404761D01*
X162523809Y-61452380D01*
X162619047Y-61452380D01*
X162761904Y-61404761D01*
X162857142Y-61309523D01*
X162904761Y-61214285D01*
X162952380Y-61023809D01*
X162952380Y-60880952D01*
X162904761Y-60690476D01*
X162857142Y-60595238D01*
X162761904Y-60500000D01*
X162619047Y-60452380D01*
X162523809Y-60452380D01*
X162380952Y-60500000D01*
X162333333Y-60547619D01*
X161952380Y-61404761D02*
X161809523Y-61452380D01*
X161571428Y-61452380D01*
X161476190Y-61404761D01*
X161428571Y-61357142D01*
X161380952Y-61261904D01*
X161380952Y-61166666D01*
X161428571Y-61071428D01*
X161476190Y-61023809D01*
X161571428Y-60976190D01*
X161761904Y-60928571D01*
X161857142Y-60880952D01*
X161904761Y-60833333D01*
X161952380Y-60738095D01*
X161952380Y-60642857D01*
X161904761Y-60547619D01*
X161857142Y-60500000D01*
X161761904Y-60452380D01*
X161523809Y-60452380D01*
X161380952Y-60500000D01*
X161190476Y-61547619D02*
X160428571Y-61547619D01*
X160047619Y-61452380D02*
X160142857Y-61404761D01*
X160190476Y-61309523D01*
X160190476Y-60452380D01*
X159285714Y-61404761D02*
X159380952Y-61452380D01*
X159571428Y-61452380D01*
X159666666Y-61404761D01*
X159714285Y-61309523D01*
X159714285Y-60928571D01*
X159666666Y-60833333D01*
X159571428Y-60785714D01*
X159380952Y-60785714D01*
X159285714Y-60833333D01*
X159238095Y-60928571D01*
X159238095Y-61023809D01*
X159714285Y-61119047D01*
X158380952Y-60785714D02*
X158380952Y-61595238D01*
X158428571Y-61690476D01*
X158476190Y-61738095D01*
X158571428Y-61785714D01*
X158714285Y-61785714D01*
X158809523Y-61738095D01*
X158380952Y-61404761D02*
X158476190Y-61452380D01*
X158666666Y-61452380D01*
X158761904Y-61404761D01*
X158809523Y-61357142D01*
X158857142Y-61261904D01*
X158857142Y-60976190D01*
X158809523Y-60880952D01*
X158761904Y-60833333D01*
X158666666Y-60785714D01*
X158476190Y-60785714D01*
X158380952Y-60833333D01*
X158142857Y-61547619D02*
X157380952Y-61547619D01*
X157000000Y-61452380D02*
X157095238Y-61404761D01*
X157142857Y-61309523D01*
X157142857Y-60452380D01*
X156238095Y-61404761D02*
X156333333Y-61452380D01*
X156523809Y-61452380D01*
X156619047Y-61404761D01*
X156666666Y-61309523D01*
X156666666Y-60928571D01*
X156619047Y-60833333D01*
X156523809Y-60785714D01*
X156333333Y-60785714D01*
X156238095Y-60833333D01*
X156190476Y-60928571D01*
X156190476Y-61023809D01*
X156666666Y-61119047D01*
X155904761Y-60785714D02*
X155523809Y-60785714D01*
X155761904Y-61452380D02*
X155761904Y-60595238D01*
X155714285Y-60500000D01*
X155619047Y-60452380D01*
X155523809Y-60452380D01*
X155333333Y-60785714D02*
X154952380Y-60785714D01*
X155190476Y-60452380D02*
X155190476Y-61309523D01*
X155142857Y-61404761D01*
X155047619Y-61452380D01*
X154952380Y-61452380D01*
X160523809Y-58857142D02*
X160571428Y-58904761D01*
X160714285Y-58952380D01*
X160809523Y-58952380D01*
X160952380Y-58904761D01*
X161047619Y-58809523D01*
X161095238Y-58714285D01*
X161142857Y-58523809D01*
X161142857Y-58380952D01*
X161095238Y-58190476D01*
X161047619Y-58095238D01*
X160952380Y-58000000D01*
X160809523Y-57952380D01*
X160714285Y-57952380D01*
X160571428Y-58000000D01*
X160523809Y-58047619D01*
X160142857Y-58904761D02*
X160000000Y-58952380D01*
X159761904Y-58952380D01*
X159666666Y-58904761D01*
X159619047Y-58857142D01*
X159571428Y-58761904D01*
X159571428Y-58666666D01*
X159619047Y-58571428D01*
X159666666Y-58523809D01*
X159761904Y-58476190D01*
X159952380Y-58428571D01*
X160047619Y-58380952D01*
X160095238Y-58333333D01*
X160142857Y-58238095D01*
X160142857Y-58142857D01*
X160095238Y-58047619D01*
X160047619Y-58000000D01*
X159952380Y-57952380D01*
X159714285Y-57952380D01*
X159571428Y-58000000D01*
X159380952Y-59047619D02*
X158619047Y-59047619D01*
X158428571Y-58904761D02*
X158333333Y-58952380D01*
X158142857Y-58952380D01*
X158047619Y-58904761D01*
X158000000Y-58809523D01*
X158000000Y-58761904D01*
X158047619Y-58666666D01*
X158142857Y-58619047D01*
X158285714Y-58619047D01*
X158380952Y-58571428D01*
X158428571Y-58476190D01*
X158428571Y-58428571D01*
X158380952Y-58333333D01*
X158285714Y-58285714D01*
X158142857Y-58285714D01*
X158047619Y-58333333D01*
X157571428Y-58285714D02*
X157571428Y-59285714D01*
X157571428Y-58333333D02*
X157476190Y-58285714D01*
X157285714Y-58285714D01*
X157190476Y-58333333D01*
X157142857Y-58380952D01*
X157095238Y-58476190D01*
X157095238Y-58761904D01*
X157142857Y-58857142D01*
X157190476Y-58904761D01*
X157285714Y-58952380D01*
X157476190Y-58952380D01*
X157571428Y-58904761D01*
X156666666Y-58952380D02*
X156666666Y-58285714D01*
X156666666Y-57952380D02*
X156714285Y-58000000D01*
X156666666Y-58047619D01*
X156619047Y-58000000D01*
X156666666Y-57952380D01*
X156666666Y-58047619D01*
X156190476Y-58285714D02*
X156190476Y-58952380D01*
X156190476Y-58380952D02*
X156142857Y-58333333D01*
X156047619Y-58285714D01*
X155904761Y-58285714D01*
X155809523Y-58333333D01*
X155761904Y-58428571D01*
X155761904Y-58952380D01*
X154904761Y-58904761D02*
X155000000Y-58952380D01*
X155190476Y-58952380D01*
X155285714Y-58904761D01*
X155333333Y-58809523D01*
X155333333Y-58428571D01*
X155285714Y-58333333D01*
X155190476Y-58285714D01*
X155000000Y-58285714D01*
X154904761Y-58333333D01*
X154857142Y-58428571D01*
X154857142Y-58523809D01*
X155333333Y-58619047D01*
X160261904Y-56357142D02*
X160309523Y-56404761D01*
X160452380Y-56452380D01*
X160547619Y-56452380D01*
X160690476Y-56404761D01*
X160785714Y-56309523D01*
X160833333Y-56214285D01*
X160880952Y-56023809D01*
X160880952Y-55880952D01*
X160833333Y-55690476D01*
X160785714Y-55595238D01*
X160690476Y-55500000D01*
X160547619Y-55452380D01*
X160452380Y-55452380D01*
X160309523Y-55500000D01*
X160261904Y-55547619D01*
X159880952Y-56404761D02*
X159738095Y-56452380D01*
X159500000Y-56452380D01*
X159404761Y-56404761D01*
X159357142Y-56357142D01*
X159309523Y-56261904D01*
X159309523Y-56166666D01*
X159357142Y-56071428D01*
X159404761Y-56023809D01*
X159500000Y-55976190D01*
X159690476Y-55928571D01*
X159785714Y-55880952D01*
X159833333Y-55833333D01*
X159880952Y-55738095D01*
X159880952Y-55642857D01*
X159833333Y-55547619D01*
X159785714Y-55500000D01*
X159690476Y-55452380D01*
X159452380Y-55452380D01*
X159309523Y-55500000D01*
X159119047Y-56547619D02*
X158357142Y-56547619D01*
X158119047Y-55785714D02*
X158119047Y-56452380D01*
X158119047Y-55880952D02*
X158071428Y-55833333D01*
X157976190Y-55785714D01*
X157833333Y-55785714D01*
X157738095Y-55833333D01*
X157690476Y-55928571D01*
X157690476Y-56452380D01*
X156833333Y-56404761D02*
X156928571Y-56452380D01*
X157119047Y-56452380D01*
X157214285Y-56404761D01*
X157261904Y-56309523D01*
X157261904Y-55928571D01*
X157214285Y-55833333D01*
X157119047Y-55785714D01*
X156928571Y-55785714D01*
X156833333Y-55833333D01*
X156785714Y-55928571D01*
X156785714Y-56023809D01*
X157261904Y-56119047D01*
X155928571Y-56404761D02*
X156023809Y-56452380D01*
X156214285Y-56452380D01*
X156309523Y-56404761D01*
X156357142Y-56357142D01*
X156404761Y-56261904D01*
X156404761Y-55976190D01*
X156357142Y-55880952D01*
X156309523Y-55833333D01*
X156214285Y-55785714D01*
X156023809Y-55785714D01*
X155928571Y-55833333D01*
X155500000Y-56452380D02*
X155500000Y-55452380D01*
X155404761Y-56071428D02*
X155119047Y-56452380D01*
X155119047Y-55785714D02*
X155500000Y-56166666D01*
X163595238Y-53357142D02*
X163642857Y-53404761D01*
X163785714Y-53452380D01*
X163880952Y-53452380D01*
X164023809Y-53404761D01*
X164119047Y-53309523D01*
X164166666Y-53214285D01*
X164214285Y-53023809D01*
X164214285Y-52880952D01*
X164166666Y-52690476D01*
X164119047Y-52595238D01*
X164023809Y-52500000D01*
X163880952Y-52452380D01*
X163785714Y-52452380D01*
X163642857Y-52500000D01*
X163595238Y-52547619D01*
X163214285Y-53404761D02*
X163071428Y-53452380D01*
X162833333Y-53452380D01*
X162738095Y-53404761D01*
X162690476Y-53357142D01*
X162642857Y-53261904D01*
X162642857Y-53166666D01*
X162690476Y-53071428D01*
X162738095Y-53023809D01*
X162833333Y-52976190D01*
X163023809Y-52928571D01*
X163119047Y-52880952D01*
X163166666Y-52833333D01*
X163214285Y-52738095D01*
X163214285Y-52642857D01*
X163166666Y-52547619D01*
X163119047Y-52500000D01*
X163023809Y-52452380D01*
X162785714Y-52452380D01*
X162642857Y-52500000D01*
X162452380Y-53547619D02*
X161690476Y-53547619D01*
X161023809Y-53452380D02*
X161023809Y-52928571D01*
X161071428Y-52833333D01*
X161166666Y-52785714D01*
X161357142Y-52785714D01*
X161452380Y-52833333D01*
X161023809Y-53404761D02*
X161119047Y-53452380D01*
X161357142Y-53452380D01*
X161452380Y-53404761D01*
X161500000Y-53309523D01*
X161500000Y-53214285D01*
X161452380Y-53119047D01*
X161357142Y-53071428D01*
X161119047Y-53071428D01*
X161023809Y-53023809D01*
X160547619Y-53452380D02*
X160547619Y-52785714D01*
X160547619Y-52976190D02*
X160500000Y-52880952D01*
X160452380Y-52833333D01*
X160357142Y-52785714D01*
X160261904Y-52785714D01*
X159928571Y-53452380D02*
X159928571Y-52785714D01*
X159928571Y-52880952D02*
X159880952Y-52833333D01*
X159785714Y-52785714D01*
X159642857Y-52785714D01*
X159547619Y-52833333D01*
X159500000Y-52928571D01*
X159500000Y-53452380D01*
X159500000Y-52928571D02*
X159452380Y-52833333D01*
X159357142Y-52785714D01*
X159214285Y-52785714D01*
X159119047Y-52833333D01*
X159071428Y-52928571D01*
X159071428Y-53452380D01*
X158833333Y-53547619D02*
X158071428Y-53547619D01*
X157833333Y-53452380D02*
X157833333Y-52785714D01*
X157833333Y-52976190D02*
X157785714Y-52880952D01*
X157738095Y-52833333D01*
X157642857Y-52785714D01*
X157547619Y-52785714D01*
X157214285Y-53452380D02*
X157214285Y-52785714D01*
X157214285Y-52452380D02*
X157261904Y-52500000D01*
X157214285Y-52547619D01*
X157166666Y-52500000D01*
X157214285Y-52452380D01*
X157214285Y-52547619D01*
X156309523Y-52785714D02*
X156309523Y-53595238D01*
X156357142Y-53690476D01*
X156404761Y-53738095D01*
X156500000Y-53785714D01*
X156642857Y-53785714D01*
X156738095Y-53738095D01*
X156309523Y-53404761D02*
X156404761Y-53452380D01*
X156595238Y-53452380D01*
X156690476Y-53404761D01*
X156738095Y-53357142D01*
X156785714Y-53261904D01*
X156785714Y-52976190D01*
X156738095Y-52880952D01*
X156690476Y-52833333D01*
X156595238Y-52785714D01*
X156404761Y-52785714D01*
X156309523Y-52833333D01*
X155833333Y-53452380D02*
X155833333Y-52452380D01*
X155404761Y-53452380D02*
X155404761Y-52928571D01*
X155452380Y-52833333D01*
X155547619Y-52785714D01*
X155690476Y-52785714D01*
X155785714Y-52833333D01*
X155833333Y-52880952D01*
X155071428Y-52785714D02*
X154690476Y-52785714D01*
X154928571Y-52452380D02*
X154928571Y-53309523D01*
X154880952Y-53404761D01*
X154785714Y-53452380D01*
X154690476Y-53452380D01*
X162619047Y-50857142D02*
X162666666Y-50904761D01*
X162809523Y-50952380D01*
X162904761Y-50952380D01*
X163047619Y-50904761D01*
X163142857Y-50809523D01*
X163190476Y-50714285D01*
X163238095Y-50523809D01*
X163238095Y-50380952D01*
X163190476Y-50190476D01*
X163142857Y-50095238D01*
X163047619Y-50000000D01*
X162904761Y-49952380D01*
X162809523Y-49952380D01*
X162666666Y-50000000D01*
X162619047Y-50047619D01*
X162238095Y-50904761D02*
X162095238Y-50952380D01*
X161857142Y-50952380D01*
X161761904Y-50904761D01*
X161714285Y-50857142D01*
X161666666Y-50761904D01*
X161666666Y-50666666D01*
X161714285Y-50571428D01*
X161761904Y-50523809D01*
X161857142Y-50476190D01*
X162047619Y-50428571D01*
X162142857Y-50380952D01*
X162190476Y-50333333D01*
X162238095Y-50238095D01*
X162238095Y-50142857D01*
X162190476Y-50047619D01*
X162142857Y-50000000D01*
X162047619Y-49952380D01*
X161809523Y-49952380D01*
X161666666Y-50000000D01*
X161476190Y-51047619D02*
X160714285Y-51047619D01*
X160047619Y-50952380D02*
X160047619Y-50428571D01*
X160095238Y-50333333D01*
X160190476Y-50285714D01*
X160380952Y-50285714D01*
X160476190Y-50333333D01*
X160047619Y-50904761D02*
X160142857Y-50952380D01*
X160380952Y-50952380D01*
X160476190Y-50904761D01*
X160523809Y-50809523D01*
X160523809Y-50714285D01*
X160476190Y-50619047D01*
X160380952Y-50571428D01*
X160142857Y-50571428D01*
X160047619Y-50523809D01*
X159571428Y-50952380D02*
X159571428Y-50285714D01*
X159571428Y-50476190D02*
X159523809Y-50380952D01*
X159476190Y-50333333D01*
X159380952Y-50285714D01*
X159285714Y-50285714D01*
X158952380Y-50952380D02*
X158952380Y-50285714D01*
X158952380Y-50380952D02*
X158904761Y-50333333D01*
X158809523Y-50285714D01*
X158666666Y-50285714D01*
X158571428Y-50333333D01*
X158523809Y-50428571D01*
X158523809Y-50952380D01*
X158523809Y-50428571D02*
X158476190Y-50333333D01*
X158380952Y-50285714D01*
X158238095Y-50285714D01*
X158142857Y-50333333D01*
X158095238Y-50428571D01*
X158095238Y-50952380D01*
X157857142Y-51047619D02*
X157095238Y-51047619D01*
X156714285Y-50952380D02*
X156809523Y-50904761D01*
X156857142Y-50809523D01*
X156857142Y-49952380D01*
X155952380Y-50904761D02*
X156047619Y-50952380D01*
X156238095Y-50952380D01*
X156333333Y-50904761D01*
X156380952Y-50809523D01*
X156380952Y-50428571D01*
X156333333Y-50333333D01*
X156238095Y-50285714D01*
X156047619Y-50285714D01*
X155952380Y-50333333D01*
X155904761Y-50428571D01*
X155904761Y-50523809D01*
X156380952Y-50619047D01*
X155619047Y-50285714D02*
X155238095Y-50285714D01*
X155476190Y-50952380D02*
X155476190Y-50095238D01*
X155428571Y-50000000D01*
X155333333Y-49952380D01*
X155238095Y-49952380D01*
X155047619Y-50285714D02*
X154666666Y-50285714D01*
X154904761Y-49952380D02*
X154904761Y-50809523D01*
X154857142Y-50904761D01*
X154761904Y-50952380D01*
X154666666Y-50952380D01*
X159452380Y-48357142D02*
X159500000Y-48404761D01*
X159642857Y-48452380D01*
X159738095Y-48452380D01*
X159880952Y-48404761D01*
X159976190Y-48309523D01*
X160023809Y-48214285D01*
X160071428Y-48023809D01*
X160071428Y-47880952D01*
X160023809Y-47690476D01*
X159976190Y-47595238D01*
X159880952Y-47500000D01*
X159738095Y-47452380D01*
X159642857Y-47452380D01*
X159500000Y-47500000D01*
X159452380Y-47547619D01*
X159071428Y-48404761D02*
X158928571Y-48452380D01*
X158690476Y-48452380D01*
X158595238Y-48404761D01*
X158547619Y-48357142D01*
X158500000Y-48261904D01*
X158500000Y-48166666D01*
X158547619Y-48071428D01*
X158595238Y-48023809D01*
X158690476Y-47976190D01*
X158880952Y-47928571D01*
X158976190Y-47880952D01*
X159023809Y-47833333D01*
X159071428Y-47738095D01*
X159071428Y-47642857D01*
X159023809Y-47547619D01*
X158976190Y-47500000D01*
X158880952Y-47452380D01*
X158642857Y-47452380D01*
X158500000Y-47500000D01*
X158309523Y-48547619D02*
X157547619Y-48547619D01*
X156738095Y-48357142D02*
X156785714Y-48404761D01*
X156928571Y-48452380D01*
X157023809Y-48452380D01*
X157166666Y-48404761D01*
X157261904Y-48309523D01*
X157309523Y-48214285D01*
X157357142Y-48023809D01*
X157357142Y-47880952D01*
X157309523Y-47690476D01*
X157261904Y-47595238D01*
X157166666Y-47500000D01*
X157023809Y-47452380D01*
X156928571Y-47452380D01*
X156785714Y-47500000D01*
X156738095Y-47547619D01*
X155833333Y-48452380D02*
X156309523Y-48452380D01*
X156309523Y-47452380D01*
X155500000Y-48452380D02*
X155500000Y-47452380D01*
X154928571Y-48452380D02*
X155357142Y-47880952D01*
X154928571Y-47452380D02*
X155500000Y-48023809D01*
X160357142Y-45857142D02*
X160404761Y-45904761D01*
X160547619Y-45952380D01*
X160642857Y-45952380D01*
X160785714Y-45904761D01*
X160880952Y-45809523D01*
X160928571Y-45714285D01*
X160976190Y-45523809D01*
X160976190Y-45380952D01*
X160928571Y-45190476D01*
X160880952Y-45095238D01*
X160785714Y-45000000D01*
X160642857Y-44952380D01*
X160547619Y-44952380D01*
X160404761Y-45000000D01*
X160357142Y-45047619D01*
X159976190Y-45904761D02*
X159833333Y-45952380D01*
X159595238Y-45952380D01*
X159500000Y-45904761D01*
X159452380Y-45857142D01*
X159404761Y-45761904D01*
X159404761Y-45666666D01*
X159452380Y-45571428D01*
X159500000Y-45523809D01*
X159595238Y-45476190D01*
X159785714Y-45428571D01*
X159880952Y-45380952D01*
X159928571Y-45333333D01*
X159976190Y-45238095D01*
X159976190Y-45142857D01*
X159928571Y-45047619D01*
X159880952Y-45000000D01*
X159785714Y-44952380D01*
X159547619Y-44952380D01*
X159404761Y-45000000D01*
X159214285Y-46047619D02*
X158452380Y-46047619D01*
X158214285Y-45952380D02*
X158214285Y-44952380D01*
X157880952Y-45666666D01*
X157547619Y-44952380D01*
X157547619Y-45952380D01*
X157071428Y-45952380D02*
X157071428Y-44952380D01*
X156642857Y-45904761D02*
X156500000Y-45952380D01*
X156261904Y-45952380D01*
X156166666Y-45904761D01*
X156119047Y-45857142D01*
X156071428Y-45761904D01*
X156071428Y-45666666D01*
X156119047Y-45571428D01*
X156166666Y-45523809D01*
X156261904Y-45476190D01*
X156452380Y-45428571D01*
X156547619Y-45380952D01*
X156595238Y-45333333D01*
X156642857Y-45238095D01*
X156642857Y-45142857D01*
X156595238Y-45047619D01*
X156547619Y-45000000D01*
X156452380Y-44952380D01*
X156214285Y-44952380D01*
X156071428Y-45000000D01*
X155452380Y-44952380D02*
X155261904Y-44952380D01*
X155166666Y-45000000D01*
X155071428Y-45095238D01*
X155023809Y-45285714D01*
X155023809Y-45619047D01*
X155071428Y-45809523D01*
X155166666Y-45904761D01*
X155261904Y-45952380D01*
X155452380Y-45952380D01*
X155547619Y-45904761D01*
X155642857Y-45809523D01*
X155690476Y-45619047D01*
X155690476Y-45285714D01*
X155642857Y-45095238D01*
X155547619Y-45000000D01*
X155452380Y-44952380D01*
M02*
