M48
; DRILL file {KiCad 5.1.3-ffb9f22~84~ubuntu18.04.1} date Sun 04 Aug 2019 06:46:39 AM PDT
; FORMAT={-:-/ absolute / inch / decimal}
; #@! TF.CreationDate,2019-08-04T06:46:39-07:00
; #@! TF.GenerationSoftware,Kicad,Pcbnew,5.1.3-ffb9f22~84~ubuntu18.04.1
; #@! TF.FileFunction,Plated,1,2,PTH
FMAT,2
INCH
T1C0.0157
T2C0.0394
%
G90
G05
T1
X6.3287Y-2.8051
X6.3287Y-3.0217
X6.3474Y-2.9864
X6.3583Y-2.8445
X6.3868Y-2.9242
X6.3878Y-3.2087
X6.4769Y-2.8446
X6.5354Y-3.3169
X6.5421Y-3.2512
X6.5748Y-2.9134
X6.6535Y-2.8937
X6.6831Y-3.0118
X6.7126Y-2.9823
X6.7126Y-3.3465
X6.7815Y-3.3366
X6.8799Y-3.3071
X6.9094Y-2.9528
X6.9094Y-3.3957
X6.9291Y-1.5551
X6.939Y-2.8937
X6.9488Y-1.5945
X6.9587Y-2.9528
X6.968Y-2.8243
X6.9685Y-1.5551
X6.9685Y-3.8583
X6.9685Y-3.8976
X6.9685Y-3.937
X6.9685Y-3.9764
X6.9685Y-4.0157
X6.9685Y-4.0551
X6.9685Y-4.0945
X6.9882Y-1.5945
X7.0079Y-1.5551
X7.0079Y-1.9488
X7.0079Y-1.9882
X7.0079Y-2.0276
X7.0079Y-2.0669
X7.0079Y-2.1063
X7.0079Y-2.7657
X7.0079Y-2.9626
X7.0079Y-3.2087
X7.0079Y-3.8386
X7.0079Y-3.878
X7.0079Y-3.9173
X7.0079Y-3.9567
X7.0079Y-3.9961
X7.0079Y-4.0354
X7.0079Y-4.0748
X7.0276Y-1.5945
X7.0374Y-2.2835
X7.0472Y-1.5551
X7.0472Y-1.9291
X7.0472Y-1.9685
X7.0472Y-2.0079
X7.0472Y-2.0472
X7.0472Y-2.0866
X7.0472Y-2.4409
X7.0472Y-2.4803
X7.0472Y-2.5197
X7.0472Y-2.5591
X7.0472Y-2.5984
X7.0472Y-2.8346
X7.0472Y-2.874
X7.0472Y-3.8583
X7.0472Y-3.8976
X7.0472Y-3.937
X7.0472Y-3.9764
X7.0472Y-4.0157
X7.0472Y-4.0551
X7.0472Y-4.0945
X7.0669Y-1.5945
X7.0669Y-3.1988
X7.0866Y-1.5551
X7.0866Y-1.9094
X7.0866Y-1.9488
X7.0866Y-1.9882
X7.0866Y-2.0276
X7.0866Y-2.0669
X7.0866Y-2.4213
X7.0866Y-2.4606
X7.0866Y-2.5
X7.0866Y-2.5394
X7.0866Y-2.5787
X7.0866Y-2.815
X7.0866Y-2.8543
X7.0866Y-2.8937
X7.0866Y-3.0118
X7.1063Y-1.5945
X7.1063Y-2.9724
X7.1063Y-3.0512
X7.1073Y-3.3081
X7.126Y-1.5551
X7.126Y-2.4016
X7.126Y-2.4409
X7.126Y-2.4803
X7.126Y-2.5197
X7.126Y-2.5591
X7.126Y-2.7953
X7.126Y-2.8346
X7.126Y-2.874
X7.126Y-3.0118
X7.126Y-3.4252
X7.1265Y-3.2485
X7.1457Y-1.5945
X7.1457Y-2.9724
X7.1457Y-3.0512
X7.1457Y-3.4646
X7.1654Y-1.5551
X7.1654Y-2.7756
X7.1654Y-2.815
X7.1654Y-2.8543
X7.1654Y-3.0118
X7.1654Y-3.4252
X7.185Y-1.5945
X7.185Y-2.9724
X7.185Y-3.0512
X7.185Y-3.4646
X7.2047Y-1.5551
X7.2047Y-3.0118
X7.2047Y-3.4252
X7.2244Y-1.5945
X7.2244Y-2.9724
X7.2244Y-3.0512
X7.2244Y-3.4646
X7.2441Y-1.5551
X7.2441Y-3.0118
X7.2441Y-3.4252
X7.2638Y-1.5945
X7.2638Y-2.9724
X7.2638Y-3.0512
X7.2638Y-3.4646
X7.2835Y-1.5551
X7.2835Y-3.0118
X7.2835Y-3.4252
X7.3031Y-1.5945
X7.3031Y-2.9724
X7.3031Y-3.0512
X7.3031Y-3.4646
X7.3228Y-1.5551
X7.3228Y-3.4252
X7.3425Y-1.5945
X7.3425Y-3.4646
X7.3622Y-1.5551
X7.3819Y-1.5945
X7.4606Y-2.5886
X7.4705Y-2.1161
X7.4705Y-3.0709
X7.4705Y-3.5728
X7.4705Y-4.065
X7.5425Y-1.7315
X7.5894Y-1.5572
X7.5984Y-1.4173
X7.6181Y-1.7028
X7.6181Y-2.0571
X7.6181Y-2.5295
X7.6181Y-3.0217
X7.6181Y-3.5138
X7.6181Y-3.9961
X7.6575Y-2.0571
X7.6575Y-2.5295
X7.6575Y-3.0217
X7.6575Y-3.9961
X7.6575Y-1.7028
X7.6575Y-3.5138
X7.6969Y-2.0571
X7.6969Y-2.5295
X7.6969Y-3.0217
X7.6969Y-3.9961
X7.6969Y-1.7028
X7.6969Y-3.5138
X7.7264Y-2.0079
X7.7264Y-3.4843
X7.7264Y-3.9567
X7.7362Y-2.5
X7.7461Y-2.9921
X7.815Y-1.5748
X7.8937Y-1.437
X7.9331Y-1.4665
X7.9724Y-1.4862
X8.0118Y-1.5059
X8.061Y-1.5256
X8.0906Y-1.9094
X8.0906Y-2.4016
X8.0906Y-2.8937
X8.0906Y-3.3858
X8.1102Y-1.9488
X8.1102Y-2.4409
X8.1102Y-2.9331
X8.1102Y-3.4252
X8.1102Y-3.8976
X8.1299Y-1.9094
X8.1299Y-1.9882
X8.1299Y-2.4016
X8.1299Y-2.4803
X8.1299Y-2.8937
X8.1299Y-2.9724
X8.1299Y-3.3858
X8.1299Y-3.4646
X8.1299Y-3.937
X8.1496Y-1.9488
X8.1496Y-2.0276
X8.1496Y-2.4409
X8.1496Y-2.5197
X8.1496Y-2.9331
X8.1496Y-3.0118
X8.1496Y-3.4252
X8.1496Y-3.5039
X8.1496Y-3.8976
X8.1496Y-3.9764
X8.1693Y-1.9094
X8.1693Y-1.9882
X8.1693Y-2.4016
X8.1693Y-2.4803
X8.1693Y-2.8937
X8.1693Y-2.9724
X8.1693Y-3.3858
X8.1693Y-3.4646
X8.1693Y-3.937
X8.1693Y-4.0157
X8.189Y-1.9488
X8.189Y-2.0276
X8.189Y-2.4409
X8.189Y-2.5197
X8.189Y-2.9331
X8.189Y-3.0118
X8.189Y-3.4252
X8.189Y-3.5039
X8.189Y-3.8976
X8.189Y-3.9764
X8.2087Y-1.9094
X8.2087Y-1.9882
X8.2087Y-2.4016
X8.2087Y-2.4803
X8.2087Y-2.8937
X8.2087Y-2.9724
X8.2087Y-3.3858
X8.2087Y-3.4646
X8.2087Y-3.937
X8.2087Y-4.0157
X8.2283Y-1.9488
X8.2283Y-2.0276
X8.2283Y-2.4409
X8.2283Y-2.5197
X8.2283Y-2.9331
X8.2283Y-3.0118
X8.2283Y-3.4252
X8.2283Y-3.5039
X8.2283Y-3.8976
X8.2283Y-3.9764
X8.248Y-1.9094
X8.248Y-1.9882
X8.248Y-2.4016
X8.248Y-2.4803
X8.248Y-2.8937
X8.248Y-2.9724
X8.248Y-3.3858
X8.248Y-3.4646
X8.248Y-3.937
X8.248Y-4.0157
X8.2677Y-1.9488
X8.2677Y-2.0276
X8.2677Y-2.4409
X8.2677Y-2.5197
X8.2677Y-2.9331
X8.2677Y-3.0118
X8.2677Y-3.4252
X8.2677Y-3.5039
X8.2677Y-3.8976
X8.2677Y-3.9764
X8.2874Y-1.9094
X8.2874Y-1.9882
X8.2874Y-2.4016
X8.2874Y-2.4803
X8.2874Y-2.8937
X8.2874Y-2.9724
X8.2874Y-3.3858
X8.2874Y-3.4646
X8.2874Y-3.937
X8.2874Y-4.0157
X8.3071Y-1.9488
X8.3071Y-2.0276
X8.3071Y-2.4409
X8.3071Y-2.5197
X8.3071Y-2.9331
X8.3071Y-3.0118
X8.3071Y-3.4252
X8.3071Y-3.5039
X8.3071Y-3.8976
X8.3071Y-3.9764
X8.3268Y-1.9882
X8.3268Y-2.4803
X8.3268Y-2.9724
X8.3268Y-3.4646
X8.3268Y-3.937
X8.3268Y-4.0157
X8.3465Y-2.0276
X8.3465Y-2.5197
X8.3465Y-3.0118
X8.3465Y-3.5039
X8.3465Y-3.9764
X8.3661Y-4.0157
T2
X6.0236Y-1.7913
X6.0236Y-1.8913
X6.0236Y-1.9913
X6.0236Y-2.0913
X6.0236Y-2.1913
X6.0236Y-2.2913
X6.0236Y-2.3913
X6.0236Y-2.4913
X6.0236Y-3.4055
X6.0236Y-3.5055
X6.0236Y-3.6055
X6.0236Y-3.7055
X6.0236Y-3.8055
X6.0236Y-3.9055
X6.0236Y-4.0055
X6.0236Y-4.1055
X6.0236Y-2.6969
X6.0236Y-2.7969
X6.0236Y-2.8969
X6.0236Y-2.9969
X6.0236Y-3.0969
X6.0236Y-3.1969
T0
M30
