G04 #@! TF.GenerationSoftware,KiCad,Pcbnew,5.1.3-ffb9f22~84~ubuntu18.04.1*
G04 #@! TF.CreationDate,2019-08-04T06:46:36-07:00*
G04 #@! TF.ProjectId,body_part_power,626f6479-5f70-4617-9274-5f706f776572,rev?*
G04 #@! TF.SameCoordinates,Original*
G04 #@! TF.FileFunction,Legend,Top*
G04 #@! TF.FilePolarity,Positive*
%FSLAX46Y46*%
G04 Gerber Fmt 4.6, Leading zero omitted, Abs format (unit mm)*
G04 Created by KiCad (PCBNEW 5.1.3-ffb9f22~84~ubuntu18.04.1) date 2019-08-04 06:46:36*
%MOMM*%
%LPD*%
G04 APERTURE LIST*
%ADD10C,0.150000*%
%ADD11C,0.010000*%
%ADD12C,0.120000*%
G04 APERTURE END LIST*
D10*
X152142857Y-37452380D02*
X152142857Y-36452380D01*
X152142857Y-36833333D02*
X152238095Y-36785714D01*
X152428571Y-36785714D01*
X152523809Y-36833333D01*
X152571428Y-36880952D01*
X152619047Y-36976190D01*
X152619047Y-37261904D01*
X152571428Y-37357142D01*
X152523809Y-37404761D01*
X152428571Y-37452380D01*
X152238095Y-37452380D01*
X152142857Y-37404761D01*
X153190476Y-37452380D02*
X153095238Y-37404761D01*
X153047619Y-37357142D01*
X153000000Y-37261904D01*
X153000000Y-36976190D01*
X153047619Y-36880952D01*
X153095238Y-36833333D01*
X153190476Y-36785714D01*
X153333333Y-36785714D01*
X153428571Y-36833333D01*
X153476190Y-36880952D01*
X153523809Y-36976190D01*
X153523809Y-37261904D01*
X153476190Y-37357142D01*
X153428571Y-37404761D01*
X153333333Y-37452380D01*
X153190476Y-37452380D01*
X154380952Y-37452380D02*
X154380952Y-36452380D01*
X154380952Y-37404761D02*
X154285714Y-37452380D01*
X154095238Y-37452380D01*
X154000000Y-37404761D01*
X153952380Y-37357142D01*
X153904761Y-37261904D01*
X153904761Y-36976190D01*
X153952380Y-36880952D01*
X154000000Y-36833333D01*
X154095238Y-36785714D01*
X154285714Y-36785714D01*
X154380952Y-36833333D01*
X154761904Y-36785714D02*
X155000000Y-37452380D01*
X155238095Y-36785714D02*
X155000000Y-37452380D01*
X154904761Y-37690476D01*
X154857142Y-37738095D01*
X154761904Y-37785714D01*
X155380952Y-37547619D02*
X156142857Y-37547619D01*
X156380952Y-36785714D02*
X156380952Y-37785714D01*
X156380952Y-36833333D02*
X156476190Y-36785714D01*
X156666666Y-36785714D01*
X156761904Y-36833333D01*
X156809523Y-36880952D01*
X156857142Y-36976190D01*
X156857142Y-37261904D01*
X156809523Y-37357142D01*
X156761904Y-37404761D01*
X156666666Y-37452380D01*
X156476190Y-37452380D01*
X156380952Y-37404761D01*
X157714285Y-37452380D02*
X157714285Y-36928571D01*
X157666666Y-36833333D01*
X157571428Y-36785714D01*
X157380952Y-36785714D01*
X157285714Y-36833333D01*
X157714285Y-37404761D02*
X157619047Y-37452380D01*
X157380952Y-37452380D01*
X157285714Y-37404761D01*
X157238095Y-37309523D01*
X157238095Y-37214285D01*
X157285714Y-37119047D01*
X157380952Y-37071428D01*
X157619047Y-37071428D01*
X157714285Y-37023809D01*
X158190476Y-37452380D02*
X158190476Y-36785714D01*
X158190476Y-36976190D02*
X158238095Y-36880952D01*
X158285714Y-36833333D01*
X158380952Y-36785714D01*
X158476190Y-36785714D01*
X158666666Y-36785714D02*
X159047619Y-36785714D01*
X158809523Y-36452380D02*
X158809523Y-37309523D01*
X158857142Y-37404761D01*
X158952380Y-37452380D01*
X159047619Y-37452380D01*
X159142857Y-37547619D02*
X159904761Y-37547619D01*
X160571428Y-37404761D02*
X160476190Y-37452380D01*
X160285714Y-37452380D01*
X160190476Y-37404761D01*
X160142857Y-37357142D01*
X160095238Y-37261904D01*
X160095238Y-36976190D01*
X160142857Y-36880952D01*
X160190476Y-36833333D01*
X160285714Y-36785714D01*
X160476190Y-36785714D01*
X160571428Y-36833333D01*
X161142857Y-37452380D02*
X161047619Y-37404761D01*
X161000000Y-37357142D01*
X160952380Y-37261904D01*
X160952380Y-36976190D01*
X161000000Y-36880952D01*
X161047619Y-36833333D01*
X161142857Y-36785714D01*
X161285714Y-36785714D01*
X161380952Y-36833333D01*
X161428571Y-36880952D01*
X161476190Y-36976190D01*
X161476190Y-37261904D01*
X161428571Y-37357142D01*
X161380952Y-37404761D01*
X161285714Y-37452380D01*
X161142857Y-37452380D01*
X161904761Y-36785714D02*
X161904761Y-37452380D01*
X161904761Y-36880952D02*
X161952380Y-36833333D01*
X162047619Y-36785714D01*
X162190476Y-36785714D01*
X162285714Y-36833333D01*
X162333333Y-36928571D01*
X162333333Y-37452380D01*
X162666666Y-36785714D02*
X163047619Y-36785714D01*
X162809523Y-36452380D02*
X162809523Y-37309523D01*
X162857142Y-37404761D01*
X162952380Y-37452380D01*
X163047619Y-37452380D01*
X163380952Y-37452380D02*
X163380952Y-36785714D01*
X163380952Y-36976190D02*
X163428571Y-36880952D01*
X163476190Y-36833333D01*
X163571428Y-36785714D01*
X163666666Y-36785714D01*
X164142857Y-37452380D02*
X164047619Y-37404761D01*
X164000000Y-37357142D01*
X163952380Y-37261904D01*
X163952380Y-36976190D01*
X164000000Y-36880952D01*
X164047619Y-36833333D01*
X164142857Y-36785714D01*
X164285714Y-36785714D01*
X164380952Y-36833333D01*
X164428571Y-36880952D01*
X164476190Y-36976190D01*
X164476190Y-37261904D01*
X164428571Y-37357142D01*
X164380952Y-37404761D01*
X164285714Y-37452380D01*
X164142857Y-37452380D01*
X165047619Y-37452380D02*
X164952380Y-37404761D01*
X164904761Y-37309523D01*
X164904761Y-36452380D01*
X165190476Y-37547619D02*
X165952380Y-37547619D01*
X166095238Y-36785714D02*
X166333333Y-37452380D01*
X166571428Y-36785714D01*
X167142857Y-36452380D02*
X167238095Y-36452380D01*
X167333333Y-36500000D01*
X167380952Y-36547619D01*
X167428571Y-36642857D01*
X167476190Y-36833333D01*
X167476190Y-37071428D01*
X167428571Y-37261904D01*
X167380952Y-37357142D01*
X167333333Y-37404761D01*
X167238095Y-37452380D01*
X167142857Y-37452380D01*
X167047619Y-37404761D01*
X167000000Y-37357142D01*
X166952380Y-37261904D01*
X166904761Y-37071428D01*
X166904761Y-36833333D01*
X166952380Y-36642857D01*
X167000000Y-36547619D01*
X167047619Y-36500000D01*
X167142857Y-36452380D01*
X167904761Y-37357142D02*
X167952380Y-37404761D01*
X167904761Y-37452380D01*
X167857142Y-37404761D01*
X167904761Y-37357142D01*
X167904761Y-37452380D01*
X168904761Y-37452380D02*
X168333333Y-37452380D01*
X168619047Y-37452380D02*
X168619047Y-36452380D01*
X168523809Y-36595238D01*
X168428571Y-36690476D01*
X168333333Y-36738095D01*
X156261904Y-108952380D02*
X156880952Y-108952380D01*
X156547619Y-109333333D01*
X156690476Y-109333333D01*
X156785714Y-109380952D01*
X156833333Y-109428571D01*
X156880952Y-109523809D01*
X156880952Y-109761904D01*
X156833333Y-109857142D01*
X156785714Y-109904761D01*
X156690476Y-109952380D01*
X156404761Y-109952380D01*
X156309523Y-109904761D01*
X156261904Y-109857142D01*
X157738095Y-108952380D02*
X157547619Y-108952380D01*
X157452380Y-109000000D01*
X157404761Y-109047619D01*
X157309523Y-109190476D01*
X157261904Y-109380952D01*
X157261904Y-109761904D01*
X157309523Y-109857142D01*
X157357142Y-109904761D01*
X157452380Y-109952380D01*
X157642857Y-109952380D01*
X157738095Y-109904761D01*
X157785714Y-109857142D01*
X157833333Y-109761904D01*
X157833333Y-109523809D01*
X157785714Y-109428571D01*
X157738095Y-109380952D01*
X157642857Y-109333333D01*
X157452380Y-109333333D01*
X157357142Y-109380952D01*
X157309523Y-109428571D01*
X157261904Y-109523809D01*
X158119047Y-108952380D02*
X158452380Y-109952380D01*
X158785714Y-108952380D01*
X156738095Y-104500000D02*
X156642857Y-104452380D01*
X156500000Y-104452380D01*
X156357142Y-104500000D01*
X156261904Y-104595238D01*
X156214285Y-104690476D01*
X156166666Y-104880952D01*
X156166666Y-105023809D01*
X156214285Y-105214285D01*
X156261904Y-105309523D01*
X156357142Y-105404761D01*
X156500000Y-105452380D01*
X156595238Y-105452380D01*
X156738095Y-105404761D01*
X156785714Y-105357142D01*
X156785714Y-105023809D01*
X156595238Y-105023809D01*
X157214285Y-105452380D02*
X157214285Y-104452380D01*
X157785714Y-105452380D01*
X157785714Y-104452380D01*
X158261904Y-105452380D02*
X158261904Y-104452380D01*
X158500000Y-104452380D01*
X158642857Y-104500000D01*
X158738095Y-104595238D01*
X158785714Y-104690476D01*
X158833333Y-104880952D01*
X158833333Y-105023809D01*
X158785714Y-105214285D01*
X158738095Y-105309523D01*
X158642857Y-105404761D01*
X158500000Y-105452380D01*
X158261904Y-105452380D01*
D11*
G36*
X155418423Y-41151777D02*
G01*
X155456263Y-41155066D01*
X155476759Y-41158897D01*
X155528390Y-41175874D01*
X155573060Y-41199654D01*
X155610646Y-41229527D01*
X155641024Y-41264781D01*
X155664071Y-41304703D01*
X155679661Y-41348583D01*
X155687672Y-41395708D01*
X155687980Y-41445366D01*
X155680461Y-41496846D01*
X155664990Y-41549436D01*
X155641445Y-41602424D01*
X155609701Y-41655099D01*
X155571669Y-41704398D01*
X155522024Y-41755506D01*
X155467034Y-41800255D01*
X155407863Y-41838142D01*
X155345678Y-41868666D01*
X155281645Y-41891325D01*
X155216929Y-41905617D01*
X155152695Y-41911041D01*
X155098218Y-41908169D01*
X155043393Y-41897107D01*
X154994297Y-41878036D01*
X154951371Y-41851148D01*
X154932887Y-41835333D01*
X154901140Y-41801436D01*
X154878000Y-41766962D01*
X154862118Y-41729320D01*
X154852141Y-41685916D01*
X154850986Y-41678145D01*
X154848426Y-41623755D01*
X154855286Y-41568691D01*
X154870934Y-41513752D01*
X154884275Y-41483475D01*
X155249164Y-41483475D01*
X155251545Y-41505112D01*
X155264506Y-41549304D01*
X155285689Y-41588657D01*
X155314198Y-41622122D01*
X155349137Y-41648653D01*
X155389610Y-41667204D01*
X155390453Y-41667481D01*
X155410411Y-41671460D01*
X155437461Y-41673152D01*
X155455684Y-41672976D01*
X155479938Y-41671571D01*
X155498324Y-41668634D01*
X155515122Y-41663176D01*
X155532690Y-41655155D01*
X155569679Y-41631788D01*
X155600282Y-41601948D01*
X155623754Y-41567048D01*
X155639349Y-41528504D01*
X155646322Y-41487728D01*
X155643925Y-41446134D01*
X155643670Y-41444722D01*
X155630966Y-41402824D01*
X155609644Y-41364438D01*
X155580985Y-41331215D01*
X155546270Y-41304806D01*
X155527445Y-41294858D01*
X155497518Y-41285350D01*
X155462396Y-41280786D01*
X155425790Y-41281225D01*
X155391413Y-41286724D01*
X155373531Y-41292426D01*
X155338383Y-41311486D01*
X155307691Y-41337944D01*
X155282440Y-41370087D01*
X155263613Y-41406199D01*
X155252193Y-41444567D01*
X155249164Y-41483475D01*
X154884275Y-41483475D01*
X154894736Y-41459736D01*
X154926061Y-41407441D01*
X154964274Y-41357666D01*
X155008745Y-41311207D01*
X155058840Y-41268864D01*
X155113926Y-41231434D01*
X155173370Y-41199716D01*
X155236541Y-41174507D01*
X155254886Y-41168701D01*
X155291263Y-41160238D01*
X155332757Y-41154503D01*
X155376199Y-41151636D01*
X155418423Y-41151777D01*
X155418423Y-41151777D01*
G37*
X155418423Y-41151777D02*
X155456263Y-41155066D01*
X155476759Y-41158897D01*
X155528390Y-41175874D01*
X155573060Y-41199654D01*
X155610646Y-41229527D01*
X155641024Y-41264781D01*
X155664071Y-41304703D01*
X155679661Y-41348583D01*
X155687672Y-41395708D01*
X155687980Y-41445366D01*
X155680461Y-41496846D01*
X155664990Y-41549436D01*
X155641445Y-41602424D01*
X155609701Y-41655099D01*
X155571669Y-41704398D01*
X155522024Y-41755506D01*
X155467034Y-41800255D01*
X155407863Y-41838142D01*
X155345678Y-41868666D01*
X155281645Y-41891325D01*
X155216929Y-41905617D01*
X155152695Y-41911041D01*
X155098218Y-41908169D01*
X155043393Y-41897107D01*
X154994297Y-41878036D01*
X154951371Y-41851148D01*
X154932887Y-41835333D01*
X154901140Y-41801436D01*
X154878000Y-41766962D01*
X154862118Y-41729320D01*
X154852141Y-41685916D01*
X154850986Y-41678145D01*
X154848426Y-41623755D01*
X154855286Y-41568691D01*
X154870934Y-41513752D01*
X154884275Y-41483475D01*
X155249164Y-41483475D01*
X155251545Y-41505112D01*
X155264506Y-41549304D01*
X155285689Y-41588657D01*
X155314198Y-41622122D01*
X155349137Y-41648653D01*
X155389610Y-41667204D01*
X155390453Y-41667481D01*
X155410411Y-41671460D01*
X155437461Y-41673152D01*
X155455684Y-41672976D01*
X155479938Y-41671571D01*
X155498324Y-41668634D01*
X155515122Y-41663176D01*
X155532690Y-41655155D01*
X155569679Y-41631788D01*
X155600282Y-41601948D01*
X155623754Y-41567048D01*
X155639349Y-41528504D01*
X155646322Y-41487728D01*
X155643925Y-41446134D01*
X155643670Y-41444722D01*
X155630966Y-41402824D01*
X155609644Y-41364438D01*
X155580985Y-41331215D01*
X155546270Y-41304806D01*
X155527445Y-41294858D01*
X155497518Y-41285350D01*
X155462396Y-41280786D01*
X155425790Y-41281225D01*
X155391413Y-41286724D01*
X155373531Y-41292426D01*
X155338383Y-41311486D01*
X155307691Y-41337944D01*
X155282440Y-41370087D01*
X155263613Y-41406199D01*
X155252193Y-41444567D01*
X155249164Y-41483475D01*
X154884275Y-41483475D01*
X154894736Y-41459736D01*
X154926061Y-41407441D01*
X154964274Y-41357666D01*
X155008745Y-41311207D01*
X155058840Y-41268864D01*
X155113926Y-41231434D01*
X155173370Y-41199716D01*
X155236541Y-41174507D01*
X155254886Y-41168701D01*
X155291263Y-41160238D01*
X155332757Y-41154503D01*
X155376199Y-41151636D01*
X155418423Y-41151777D01*
G36*
X153793665Y-41342400D02*
G01*
X153811199Y-41344815D01*
X153827879Y-41350076D01*
X153846678Y-41358404D01*
X153896544Y-41386810D01*
X153946028Y-41424026D01*
X153994186Y-41468713D01*
X154040077Y-41519536D01*
X154082757Y-41575158D01*
X154121285Y-41634244D01*
X154154717Y-41695456D01*
X154182112Y-41757459D01*
X154202526Y-41818917D01*
X154215018Y-41878492D01*
X154215381Y-41881129D01*
X154218149Y-41924196D01*
X154214456Y-41962257D01*
X154204593Y-41994427D01*
X154188853Y-42019822D01*
X154167525Y-42037556D01*
X154163187Y-42039832D01*
X154135219Y-42048318D01*
X154103409Y-42049581D01*
X154071189Y-42043488D01*
X154070740Y-42043346D01*
X154027203Y-42025057D01*
X153982270Y-41997842D01*
X153936881Y-41962665D01*
X153891976Y-41920487D01*
X153848495Y-41872272D01*
X153807378Y-41818982D01*
X153769565Y-41761579D01*
X153735996Y-41701026D01*
X153735540Y-41700119D01*
X153710181Y-41645845D01*
X153701711Y-41623574D01*
X153855284Y-41623574D01*
X153855543Y-41651315D01*
X153858121Y-41679311D01*
X153862567Y-41702702D01*
X153872407Y-41732865D01*
X153886999Y-41767156D01*
X153904535Y-41801944D01*
X153923208Y-41833596D01*
X153938382Y-41855022D01*
X153969895Y-41890806D01*
X154001152Y-41918895D01*
X154031506Y-41939000D01*
X154060309Y-41950834D01*
X154086913Y-41954109D01*
X154110670Y-41948538D01*
X154126133Y-41938466D01*
X154140767Y-41921999D01*
X154150019Y-41902003D01*
X154154606Y-41876313D01*
X154155402Y-41850316D01*
X154151584Y-41811085D01*
X154141587Y-41770767D01*
X154126265Y-41730451D01*
X154106466Y-41691228D01*
X154083042Y-41654188D01*
X154056844Y-41620421D01*
X154028723Y-41591018D01*
X153999529Y-41567069D01*
X153970113Y-41549664D01*
X153941326Y-41539894D01*
X153914019Y-41538849D01*
X153912521Y-41539075D01*
X153890226Y-41547610D01*
X153871870Y-41564429D01*
X153861805Y-41581686D01*
X153857365Y-41599295D01*
X153855284Y-41623574D01*
X153701711Y-41623574D01*
X153691505Y-41596742D01*
X153678956Y-41550850D01*
X153671980Y-41506209D01*
X153670024Y-41468820D01*
X153670147Y-41443734D01*
X153671356Y-41425780D01*
X153674108Y-41411950D01*
X153678861Y-41399235D01*
X153681443Y-41393751D01*
X153692212Y-41376421D01*
X153705671Y-41360733D01*
X153711471Y-41355651D01*
X153721774Y-41348608D01*
X153731873Y-41344452D01*
X153744939Y-41342443D01*
X153764145Y-41341838D01*
X153770641Y-41341820D01*
X153793665Y-41342400D01*
X153793665Y-41342400D01*
G37*
X153793665Y-41342400D02*
X153811199Y-41344815D01*
X153827879Y-41350076D01*
X153846678Y-41358404D01*
X153896544Y-41386810D01*
X153946028Y-41424026D01*
X153994186Y-41468713D01*
X154040077Y-41519536D01*
X154082757Y-41575158D01*
X154121285Y-41634244D01*
X154154717Y-41695456D01*
X154182112Y-41757459D01*
X154202526Y-41818917D01*
X154215018Y-41878492D01*
X154215381Y-41881129D01*
X154218149Y-41924196D01*
X154214456Y-41962257D01*
X154204593Y-41994427D01*
X154188853Y-42019822D01*
X154167525Y-42037556D01*
X154163187Y-42039832D01*
X154135219Y-42048318D01*
X154103409Y-42049581D01*
X154071189Y-42043488D01*
X154070740Y-42043346D01*
X154027203Y-42025057D01*
X153982270Y-41997842D01*
X153936881Y-41962665D01*
X153891976Y-41920487D01*
X153848495Y-41872272D01*
X153807378Y-41818982D01*
X153769565Y-41761579D01*
X153735996Y-41701026D01*
X153735540Y-41700119D01*
X153710181Y-41645845D01*
X153701711Y-41623574D01*
X153855284Y-41623574D01*
X153855543Y-41651315D01*
X153858121Y-41679311D01*
X153862567Y-41702702D01*
X153872407Y-41732865D01*
X153886999Y-41767156D01*
X153904535Y-41801944D01*
X153923208Y-41833596D01*
X153938382Y-41855022D01*
X153969895Y-41890806D01*
X154001152Y-41918895D01*
X154031506Y-41939000D01*
X154060309Y-41950834D01*
X154086913Y-41954109D01*
X154110670Y-41948538D01*
X154126133Y-41938466D01*
X154140767Y-41921999D01*
X154150019Y-41902003D01*
X154154606Y-41876313D01*
X154155402Y-41850316D01*
X154151584Y-41811085D01*
X154141587Y-41770767D01*
X154126265Y-41730451D01*
X154106466Y-41691228D01*
X154083042Y-41654188D01*
X154056844Y-41620421D01*
X154028723Y-41591018D01*
X153999529Y-41567069D01*
X153970113Y-41549664D01*
X153941326Y-41539894D01*
X153914019Y-41538849D01*
X153912521Y-41539075D01*
X153890226Y-41547610D01*
X153871870Y-41564429D01*
X153861805Y-41581686D01*
X153857365Y-41599295D01*
X153855284Y-41623574D01*
X153701711Y-41623574D01*
X153691505Y-41596742D01*
X153678956Y-41550850D01*
X153671980Y-41506209D01*
X153670024Y-41468820D01*
X153670147Y-41443734D01*
X153671356Y-41425780D01*
X153674108Y-41411950D01*
X153678861Y-41399235D01*
X153681443Y-41393751D01*
X153692212Y-41376421D01*
X153705671Y-41360733D01*
X153711471Y-41355651D01*
X153721774Y-41348608D01*
X153731873Y-41344452D01*
X153744939Y-41342443D01*
X153764145Y-41341838D01*
X153770641Y-41341820D01*
X153793665Y-41342400D01*
G36*
X156678201Y-39979738D02*
G01*
X156698348Y-39981965D01*
X156715863Y-39985564D01*
X156731188Y-39991308D01*
X156744766Y-39999971D01*
X156757039Y-40012324D01*
X156768450Y-40029140D01*
X156779440Y-40051193D01*
X156790453Y-40079255D01*
X156801931Y-40114099D01*
X156814316Y-40156498D01*
X156828050Y-40207225D01*
X156843577Y-40267052D01*
X156844299Y-40269867D01*
X156861506Y-40342474D01*
X156875540Y-40414276D01*
X156886689Y-40487443D01*
X156895238Y-40564150D01*
X156901474Y-40646569D01*
X156905609Y-40734760D01*
X156906717Y-40768405D01*
X156907222Y-40794525D01*
X156906933Y-40815749D01*
X156905658Y-40834703D01*
X156903208Y-40854014D01*
X156899391Y-40876309D01*
X156894016Y-40904217D01*
X156892872Y-40910020D01*
X156876391Y-40988711D01*
X156858865Y-41063406D01*
X156840546Y-41133339D01*
X156821687Y-41197741D01*
X156802541Y-41255845D01*
X156783359Y-41306882D01*
X156764394Y-41350085D01*
X156745900Y-41384686D01*
X156728657Y-41409293D01*
X156717953Y-41422749D01*
X156703677Y-41441717D01*
X156687975Y-41463311D01*
X156677487Y-41478152D01*
X156651986Y-41512275D01*
X156628222Y-41539201D01*
X156606922Y-41558184D01*
X156589823Y-41568106D01*
X156577848Y-41570698D01*
X156560149Y-41572358D01*
X156545639Y-41572712D01*
X156529049Y-41571866D01*
X156513769Y-41569024D01*
X156496746Y-41563303D01*
X156474929Y-41553818D01*
X156465960Y-41549618D01*
X156443192Y-41537894D01*
X156421706Y-41525181D01*
X156404652Y-41513418D01*
X156398199Y-41507955D01*
X156375298Y-41479710D01*
X156355228Y-41441883D01*
X156337972Y-41394420D01*
X156323507Y-41337269D01*
X156314959Y-41291020D01*
X156312442Y-41273764D01*
X156310422Y-41255587D01*
X156308848Y-41235174D01*
X156307672Y-41211208D01*
X156306843Y-41182375D01*
X156306312Y-41147359D01*
X156306029Y-41104844D01*
X156305945Y-41053516D01*
X156305945Y-41052260D01*
X156306068Y-40995778D01*
X156306514Y-40947431D01*
X156307403Y-40905192D01*
X156308857Y-40867037D01*
X156310997Y-40830942D01*
X156313942Y-40794882D01*
X156317814Y-40756833D01*
X156322734Y-40714769D01*
X156328823Y-40666667D01*
X156329068Y-40664778D01*
X156338126Y-40607754D01*
X156350976Y-40545299D01*
X156367031Y-40479301D01*
X156385706Y-40411648D01*
X156406413Y-40344227D01*
X156428565Y-40278927D01*
X156451577Y-40217635D01*
X156474862Y-40162239D01*
X156497832Y-40114626D01*
X156503030Y-40104937D01*
X156530897Y-40060835D01*
X156561983Y-40023517D01*
X156562588Y-40022896D01*
X156585380Y-40001619D01*
X156606068Y-39987902D01*
X156627763Y-39980583D01*
X156653575Y-39978502D01*
X156678201Y-39979738D01*
X156678201Y-39979738D01*
G37*
X156678201Y-39979738D02*
X156698348Y-39981965D01*
X156715863Y-39985564D01*
X156731188Y-39991308D01*
X156744766Y-39999971D01*
X156757039Y-40012324D01*
X156768450Y-40029140D01*
X156779440Y-40051193D01*
X156790453Y-40079255D01*
X156801931Y-40114099D01*
X156814316Y-40156498D01*
X156828050Y-40207225D01*
X156843577Y-40267052D01*
X156844299Y-40269867D01*
X156861506Y-40342474D01*
X156875540Y-40414276D01*
X156886689Y-40487443D01*
X156895238Y-40564150D01*
X156901474Y-40646569D01*
X156905609Y-40734760D01*
X156906717Y-40768405D01*
X156907222Y-40794525D01*
X156906933Y-40815749D01*
X156905658Y-40834703D01*
X156903208Y-40854014D01*
X156899391Y-40876309D01*
X156894016Y-40904217D01*
X156892872Y-40910020D01*
X156876391Y-40988711D01*
X156858865Y-41063406D01*
X156840546Y-41133339D01*
X156821687Y-41197741D01*
X156802541Y-41255845D01*
X156783359Y-41306882D01*
X156764394Y-41350085D01*
X156745900Y-41384686D01*
X156728657Y-41409293D01*
X156717953Y-41422749D01*
X156703677Y-41441717D01*
X156687975Y-41463311D01*
X156677487Y-41478152D01*
X156651986Y-41512275D01*
X156628222Y-41539201D01*
X156606922Y-41558184D01*
X156589823Y-41568106D01*
X156577848Y-41570698D01*
X156560149Y-41572358D01*
X156545639Y-41572712D01*
X156529049Y-41571866D01*
X156513769Y-41569024D01*
X156496746Y-41563303D01*
X156474929Y-41553818D01*
X156465960Y-41549618D01*
X156443192Y-41537894D01*
X156421706Y-41525181D01*
X156404652Y-41513418D01*
X156398199Y-41507955D01*
X156375298Y-41479710D01*
X156355228Y-41441883D01*
X156337972Y-41394420D01*
X156323507Y-41337269D01*
X156314959Y-41291020D01*
X156312442Y-41273764D01*
X156310422Y-41255587D01*
X156308848Y-41235174D01*
X156307672Y-41211208D01*
X156306843Y-41182375D01*
X156306312Y-41147359D01*
X156306029Y-41104844D01*
X156305945Y-41053516D01*
X156305945Y-41052260D01*
X156306068Y-40995778D01*
X156306514Y-40947431D01*
X156307403Y-40905192D01*
X156308857Y-40867037D01*
X156310997Y-40830942D01*
X156313942Y-40794882D01*
X156317814Y-40756833D01*
X156322734Y-40714769D01*
X156328823Y-40666667D01*
X156329068Y-40664778D01*
X156338126Y-40607754D01*
X156350976Y-40545299D01*
X156367031Y-40479301D01*
X156385706Y-40411648D01*
X156406413Y-40344227D01*
X156428565Y-40278927D01*
X156451577Y-40217635D01*
X156474862Y-40162239D01*
X156497832Y-40114626D01*
X156503030Y-40104937D01*
X156530897Y-40060835D01*
X156561983Y-40023517D01*
X156562588Y-40022896D01*
X156585380Y-40001619D01*
X156606068Y-39987902D01*
X156627763Y-39980583D01*
X156653575Y-39978502D01*
X156678201Y-39979738D01*
D10*
X162350000Y-74850000D02*
X162875000Y-74850000D01*
X168650000Y-81150000D02*
X168125000Y-81150000D01*
X168650000Y-74850000D02*
X168125000Y-74850000D01*
X162350000Y-81150000D02*
X162350000Y-80625000D01*
X168650000Y-81150000D02*
X168650000Y-80625000D01*
X168650000Y-74850000D02*
X168650000Y-75375000D01*
X162350000Y-74850000D02*
X162350000Y-75375000D01*
X162500000Y-103000000D02*
X162500000Y-103600000D01*
X162500000Y-107600000D02*
X162500000Y-106400000D01*
X162500000Y-111000000D02*
X162500000Y-110400000D01*
X159500000Y-103000000D02*
X159500000Y-111000000D01*
X159500000Y-111000000D02*
X174500000Y-111000000D01*
X174500000Y-111000000D02*
X174500000Y-103000000D01*
X174500000Y-103000000D02*
X159500000Y-103000000D01*
D12*
X151670000Y-105610000D02*
X154330000Y-105610000D01*
X151670000Y-87770000D02*
X151670000Y-105610000D01*
X154330000Y-87770000D02*
X154330000Y-105610000D01*
X151670000Y-87770000D02*
X154330000Y-87770000D01*
X151670000Y-86500000D02*
X151670000Y-85170000D01*
X151670000Y-85170000D02*
X153000000Y-85170000D01*
X151670000Y-44170000D02*
X153000000Y-44170000D01*
X151670000Y-45500000D02*
X151670000Y-44170000D01*
X151670000Y-46770000D02*
X154330000Y-46770000D01*
X154330000Y-46770000D02*
X154330000Y-64610000D01*
X151670000Y-46770000D02*
X151670000Y-64610000D01*
X151670000Y-64610000D02*
X154330000Y-64610000D01*
D10*
X201000000Y-40000000D02*
X201000000Y-40600000D01*
X201000000Y-44600000D02*
X201000000Y-43400000D01*
X201000000Y-48000000D02*
X201000000Y-47400000D01*
X198000000Y-40000000D02*
X198000000Y-48000000D01*
X198000000Y-48000000D02*
X213000000Y-48000000D01*
X213000000Y-48000000D02*
X213000000Y-40000000D01*
X213000000Y-40000000D02*
X198000000Y-40000000D01*
X213000000Y-77500000D02*
X198000000Y-77500000D01*
X213000000Y-85500000D02*
X213000000Y-77500000D01*
X198000000Y-85500000D02*
X213000000Y-85500000D01*
X198000000Y-77500000D02*
X198000000Y-85500000D01*
X201000000Y-85500000D02*
X201000000Y-84900000D01*
X201000000Y-82100000D02*
X201000000Y-80900000D01*
X201000000Y-77500000D02*
X201000000Y-78100000D01*
D12*
X151670000Y-82530000D02*
X154330000Y-82530000D01*
X151670000Y-69770000D02*
X151670000Y-82530000D01*
X154330000Y-69770000D02*
X154330000Y-82530000D01*
X151670000Y-69770000D02*
X154330000Y-69770000D01*
X151670000Y-68500000D02*
X151670000Y-67170000D01*
X151670000Y-67170000D02*
X153000000Y-67170000D01*
D10*
X213000000Y-52500000D02*
X198000000Y-52500000D01*
X213000000Y-60500000D02*
X213000000Y-52500000D01*
X198000000Y-60500000D02*
X213000000Y-60500000D01*
X198000000Y-52500000D02*
X198000000Y-60500000D01*
X201000000Y-60500000D02*
X201000000Y-59900000D01*
X201000000Y-57100000D02*
X201000000Y-55900000D01*
X201000000Y-52500000D02*
X201000000Y-53100000D01*
X201000000Y-90000000D02*
X201000000Y-90600000D01*
X201000000Y-94600000D02*
X201000000Y-93400000D01*
X201000000Y-98000000D02*
X201000000Y-97400000D01*
X198000000Y-90000000D02*
X198000000Y-98000000D01*
X198000000Y-98000000D02*
X213000000Y-98000000D01*
X213000000Y-98000000D02*
X213000000Y-90000000D01*
X213000000Y-90000000D02*
X198000000Y-90000000D01*
X201000000Y-65000000D02*
X201000000Y-65600000D01*
X201000000Y-69600000D02*
X201000000Y-68400000D01*
X201000000Y-73000000D02*
X201000000Y-72400000D01*
X198000000Y-65000000D02*
X198000000Y-73000000D01*
X198000000Y-73000000D02*
X213000000Y-73000000D01*
X213000000Y-73000000D02*
X213000000Y-65000000D01*
X213000000Y-65000000D02*
X198000000Y-65000000D01*
X213000000Y-102500000D02*
X198000000Y-102500000D01*
X213000000Y-110500000D02*
X213000000Y-102500000D01*
X198000000Y-110500000D02*
X213000000Y-110500000D01*
X198000000Y-102500000D02*
X198000000Y-110500000D01*
X201000000Y-110500000D02*
X201000000Y-109900000D01*
X201000000Y-107100000D02*
X201000000Y-105900000D01*
X201000000Y-102500000D02*
X201000000Y-103100000D01*
D12*
X189600000Y-48300000D02*
X189600000Y-47900000D01*
X183000000Y-48300000D02*
X189600000Y-48300000D01*
X183400000Y-42700000D02*
X188600000Y-42700000D01*
X183400000Y-80200000D02*
X188600000Y-80200000D01*
X183000000Y-85800000D02*
X189600000Y-85800000D01*
X189600000Y-85800000D02*
X189600000Y-85400000D01*
X183400000Y-55700000D02*
X188600000Y-55700000D01*
X183000000Y-61300000D02*
X189600000Y-61300000D01*
X189600000Y-61300000D02*
X189600000Y-60900000D01*
X183400000Y-92700000D02*
X188600000Y-92700000D01*
X183000000Y-98300000D02*
X189600000Y-98300000D01*
X189600000Y-98300000D02*
X189600000Y-97900000D01*
X189600000Y-73300000D02*
X189600000Y-72900000D01*
X183000000Y-73300000D02*
X189600000Y-73300000D01*
X183400000Y-67700000D02*
X188600000Y-67700000D01*
X189600000Y-110800000D02*
X189600000Y-110400000D01*
X183000000Y-110800000D02*
X189600000Y-110800000D01*
X183400000Y-105200000D02*
X188600000Y-105200000D01*
M02*
